<svg xmlns="http://www.w3.org/2000/svg" width="512" height="512" viewBox="0 0 512 512" style="enable-background:new 0 0 512 512" xml:space="preserve">
  <path fill="#f67661" d="M425.824 10.614C425.824 4.752 421.072 0 415.21 0h-74.298C294.016 0 256 38.016 256 84.911h95.527c41.033 0 74.297-33.263 74.297-74.297z" data-original="#fc8978"/>
  <path fill="#9fa3e1" d="M382.295 448.235 341.33 512H226.636c-54.276-38.729-48.054-85.546-28.447-122.534H352.91l3.122 6.243z" data-original="#a7b6c5"/>
  <path fill="#8389ca" d="M226.636 512H170.67l-39.718-59.119 26.335-53.163 5.08-10.252h58.222c-11.519 36.617-15.867 81.157 6.047 122.534z" data-original="#889cb0"/>
  <path fill="#edc463" d="M170.67 512h-56.646c-17.999 0-31.651-17.639-28.138-36.586 6.038-32.496 19.957-61.942 39.533-85.948h28.065c1.35 3.008 2.627 6.45 3.802 10.252 9.232 29.539 13.384 80.384 13.384 112.282z" data-original="#83deff"/>
  <path fill="#f8d071" d="M397.966 512H341.33c0-33.402 4.554-87.555 14.702-116.291.793-2.246 1.617-4.338 2.483-6.243h28.066c19.576 24.006 33.495 53.452 39.533 85.948C429.627 494.361 415.975 512 397.966 512zM287.03 54.303h-62.06V15.455C224.97 6.919 231.889 0 240.424 0h31.151c8.535 0 15.455 6.919 15.455 15.455z" data-original="#a4e7ff"/>
  <path fill="#8389ca" d="M389.981 393.196c4.08 5.285 2.38 12.981-3.523 16.072-33.197 17.361-67.464 27.736-101.784 31.434h-.021c-2.112 0-140.132-.535-119.072-141.419l242.368-8.048c-5.615 18.04-11.276 34.393-23.341 48.941-9.139 11.025-8.123 35.525.634 46.879z" data-original="#889cb0"/>
  <path fill="#7d82bf" d="M284.673 440.703c-54.256 5.832-108.646-5.038-159.131-31.434-5.904-3.091-7.604-10.787-3.523-16.072l4.739-6.141c8.758-11.354 9.481-35.855.343-46.879-12.065-14.548-19.326-27.512-24.941-45.553l63.42 4.66c17.66 48.362 53.865 97.209 119.093 141.419z" data-original="#7a8fa5"/>
  <path fill="#fed2a4" d="M425.217 220.142c0 23.264-21.75 47.634-31.538 67.509H124.704c-2.857-5.53-28.159-15.497-30.99-25.437-.185-.669 2.033-5.534 1.847-6.214-4.967-18.594-11.419-33.236-9.202-50.98 1.226-10.262 9.726-18.318 20.555-19.462 16.464-1.731 32.424-4.173 47.662-7.068 27.633-5.254 52.916-12.023 74.615-18.843h105.287c17.124 15.268 42.315 32.506 75.573 41.84 9.51 2.668 15.166 8.569 15.166 18.655z" data-original="#ffddcf"/>
  <path fill="#ffbd86" d="M161.686 287.651h-61.107c-3.033-5.87-7.262-16.35-9.726-25.242-.185-.669-.371-1.339-.556-2.019-4.862-18.199-6.204-37.224-3.936-55.369 1.226-10.262 9.726-18.318 20.555-19.462 16.464-1.731 32.424-4.173 47.662-7.068-5.132 34.195-4.432 71.41 7.108 109.16z" data-original="#ffcbbe"/>
  <ellipse cx="174.032" cy="239.673" fill="#fb8978" rx="30.244" ry="24.085" data-original="#ffa1ac"/>
  <ellipse cx="337.967" cy="239.673" fill="#fb8978" rx="30.244" ry="24.085" data-original="#ffa1ac"/>
  <path fill="#333941" d="M191.659 224.215a7.726 7.726 0 0 1-7.727-7.727v-12.364a7.727 7.727 0 0 1 15.454 0v12.364a7.727 7.727 0 0 1-7.727 7.727zm128.682 0a7.726 7.726 0 0 1-7.727-7.727v-12.364c0-4.268 3.459-7.727 7.727-7.727s7.727 3.459 7.727 7.727v12.364a7.726 7.726 0 0 1-7.727 7.727zm-64.34 7.36a30.23 30.23 0 0 1-22.79-10.378 7.727 7.727 0 1 1 11.652-10.154 14.775 14.775 0 0 0 11.138 5.078c4.329 0 8.283-1.803 11.137-5.078a7.728 7.728 0 0 1 11.652 10.154 30.23 30.23 0 0 1-22.789 10.378z" data-original="#333941"/>
  <path fill="#9fa3e1" d="M421.251 215.118C393.35 197.283 339.259 168.415 256 168.415c-41.068 0-75.048 7.026-102.278 16.299-40.068-88.977 56.09-147.56 56.09-147.56 45.416-12.157 92.707-6.223 136.289 17.814 42.583 23.502 86.236 66.372 95.942 144.366 1.596 12.889-10.695 22.234-20.792 15.784z" data-original="#a7b6c5"/>
  <path fill="#8389ca" d="M209.811 37.153c-18.36 28.674-47.878 83.156-56.09 147.56-27.973 9.51-48.836 21.369-62.972 30.405-10.097 6.449-22.388-2.896-20.791-15.785 9.706-77.994 53.37-120.865 95.942-144.366 14.3-7.881 29.003-13.826 43.911-17.814z" data-original="#889cb0"/>
  <path fill="#9fa3e1" d="M427.148 210.482c0 91.456-38.795 138.608-84.963 163.119-36.885 19.574-76.551 26.105-115.291 19.595-114.673-60.724-71.977-139.49-71.977-139.49 26.582 8.62 60.149 15.055 101.083 15.055 123.441 0 171.148-58.279 171.148-58.279z" data-original="#a7b6c5"/>
  <path d="M226.894 393.197c-19.411-3.255-38.595-9.786-57.079-19.595-46.168-24.511-85.443-71.099-85.443-162.554 0 0 16.979 25.313 70.545 42.66 7.573 46.202 28.745 94.141 71.977 139.489zM256 131.849a7.726 7.726 0 0 1-7.727-7.727V62.061a7.727 7.727 0 0 1 15.454 0v62.061a7.726 7.726 0 0 1-7.727 7.727zm38.788 0a7.726 7.726 0 0 1-7.727-7.727V69.818c0-4.268 3.459-7.727 7.727-7.727s7.727 3.459 7.727 7.727v54.303a7.726 7.726 0 0 1-7.727 7.728zm38.788 0a7.726 7.726 0 0 1-7.727-7.727V85.333c0-4.268 3.459-7.727 7.727-7.727s7.727 3.459 7.727 7.727v38.788a7.727 7.727 0 0 1-7.727 7.728zm-116.364 0a7.726 7.726 0 0 1-7.727-7.727V69.818a7.727 7.727 0 0 1 15.454 0v54.303a7.727 7.727 0 0 1-7.727 7.728zM186.156 85.33v38.791a7.73 7.73 0 0 1-7.727 7.727 7.723 7.723 0 0 1-7.727-7.727v-8.129c.577-31.239 14.455-34.444 14.455-34.444a7.602 7.602 0 0 1 .999 3.782z" fill="#8389ca" data-original="#889cb0"/>
  <path fill="#7d82bf" d="M185.156 81.549c-5.017 10.531-9.963 22.069-14.455 34.444V85.33a7.724 7.724 0 0 1 7.727-7.727 7.697 7.697 0 0 1 6.728 3.946z" data-original="#7a8fa5"/>
</svg>
