<svg xmlns="http://www.w3.org/2000/svg" width="512" height="512" viewBox="0 0 512 512" style="enable-background:new 0 0 512 512" xml:space="preserve">
  <circle cx="124.269" cy="374.144" r="59.393" fill="#d57b42" transform="rotate(-76.7 124.315 374.246)" data-original="#fbf1cf"/>
  <circle cx="387.731" cy="374.144" r="59.393" fill="#d57b42" transform="rotate(-67.48 387.869 374.054)" data-original="#fbf1cf"/>
  <path fill="#fce29f" d="M388.936 512c8.611 0 15.392-7.449 14.473-16.011-7.984-74.364-70.944-132.272-147.429-132.272s-139.445 57.907-147.429 132.272c-.919 8.562 5.861 16.011 14.473 16.011z" data-original="#cde9fa"/>
  <path fill="#8389ca" d="M338.946 512 196.709 369.763a153.876 153.876 0 0 0-44.015 27.907 154.62 154.62 0 0 0-15.125 15.754 5.333 5.333 0 0 0 .331 7.181L229.294 512z" data-original="#dd5c6e"/>
  <circle cx="256" cy="447.567" r="22.631" fill="#eed076" data-original="#eed076"/>
  <circle cx="447.124" cy="270.391" r="61.646" fill="#ffbd86" transform="rotate(-45 447.108 270.493)" data-original="#ffcabd"/>
  <circle cx="64.876" cy="270.391" r="61.646" fill="#fed2a4" transform="rotate(-45 64.831 270.424)" data-original="#ffdcce"/>
  <path fill="#fce29f" d="M95.177 349.376c0 16.735-13.566 30.301-30.301 30.301s-30.301-13.566-30.301-30.301 13.566-53.043 30.301-53.043 30.301 36.308 30.301 53.043zm321.646 0c0 16.735 13.566 30.301 30.301 30.301s30.301-13.566 30.301-30.301-13.566-53.043-30.301-53.043-30.301 36.308-30.301 53.043z" data-original="#cde9fa"/>
  <ellipse cx="255.98" cy="260.547" fill="#fed2a4" rx="188.747" ry="169.648" data-original="#ffdcce"/>
  <path fill="#ffbd86" d="M311.292 422.786c-259.43-57.148-172.235-242.299-131.357-317.542-66.367 26.291-112.702 85.929-112.702 155.303 0 93.694 84.505 169.648 188.747 169.648 19.247 0 37.818-2.597 55.312-7.409z" data-original="#ffcabd"/>
  <path fill="#d57b42" d="M453.085 174.251c11.194-43.796-27.777-84.503-72.392-74.425-8.729-26.836-36.754-46.482-70.002-46.482-21.808 0-41.363 8.46-54.711 21.846-13.348-13.387-32.904-21.846-54.711-21.846-33.248 0-61.273 19.646-70.002 46.482-44.564-10.067-83.594 30.589-72.392 74.425-12.038 8.055-19.967 21.772-19.967 37.345 0 24.801 20.105 44.905 44.906 44.905 22.245 0 40.701-16.179 44.271-37.409 22.529-3.834 40.834-20.043 47.666-41.397 27.608 9.108 59.708 2.797 80.23-17.785 20.528 20.588 52.631 26.891 80.23 17.785 6.832 21.354 25.137 37.563 47.666 41.397 3.57 21.23 22.025 37.409 44.271 37.409 24.801 0 44.905-20.105 44.905-44.905-.001-15.573-7.93-29.29-19.968-37.345z" data-original="#fbf1cf"/>
  <g fill="#fb8978">
    <ellipse cx="163.844" cy="307.848" rx="34.004" ry="27.079" data-original="#eda1ab"/>
    <ellipse cx="348.156" cy="307.848" rx="34.004" ry="27.079" data-original="#eda1ab"/>
  </g>
  <path d="M183.661 289.281a7.5 7.5 0 0 1-7.5-7.5v-13.9c0-4.143 3.357-7.5 7.5-7.5s7.5 3.357 7.5 7.5v13.9c0 4.143-3.357 7.5-7.5 7.5zm144.678 0a7.5 7.5 0 0 1-7.5-7.5v-13.9c0-4.143 3.357-7.5 7.5-7.5s7.5 3.357 7.5 7.5v13.9a7.5 7.5 0 0 1-7.5 7.5zM256 297.556a32.79 32.79 0 0 1-24.726-11.262 7.498 7.498 0 0 1 .728-10.581 7.498 7.498 0 0 1 10.581.728c3.387 3.886 8.277 6.115 13.417 6.115s10.03-2.229 13.417-6.115a7.5 7.5 0 1 1 11.309 9.853A32.792 32.792 0 0 1 256 297.556z" data-original="#4e5660" fill="#4e5660"/>
  <path fill="#fce29f" d="M256 50.667c38.222 0 73.345-11.296 90.719-15.249 35.43 47.561 73.987 69.826 134.988 69.826-3.314 22.947-11.754 46.914-17.704 61.845-3.009 7.551-12.206 10.332-18.941 5.781-68.715-46.433-158.385-49.858-189.062-49.858s-120.347 3.425-189.061 49.857c-6.735 4.551-15.932 1.77-18.941-5.781-5.95-14.931-14.39-38.898-17.704-61.845 61 0 99.558-22.265 134.987-69.826 17.374 3.954 52.497 15.25 90.719 15.25z" data-original="#cde9fa"/>
  <path fill="#f8d071" d="M211.63 46.266c-19.628-3.618-36.086-8.514-46.348-10.849-35.43 47.561-73.987 69.826-134.987 69.826 3.314 22.947 11.754 46.914 17.704 61.845 3.009 7.551 12.206 10.332 18.941 5.781 50.398-34.055 112.066-44.975 153.467-48.377-12.537-18.984-12.372-55.927-8.777-78.226z" data-original="#a2ddfd"/>
  <circle cx="165.002" cy="26.903" r="26.903" fill="#fce29f" data-original="#cde9fa"/>
  <circle cx="26.903" cy="99.473" r="26.903" fill="#fce29f" data-original="#cde9fa"/>
  <circle cx="346.998" cy="26.903" r="26.903" fill="#f8d071" data-original="#a2ddfd"/>
  <circle cx="485.097" cy="99.473" r="26.903" fill="#f8d071" data-original="#a2ddfd"/>
  <path fill="#fce29f" d="M181.197 100.304a7.501 7.501 0 0 1-7.239-5.562l-1.898-7.085a7.5 7.5 0 0 1 5.303-9.186 7.498 7.498 0 0 1 9.186 5.304l1.898 7.085a7.5 7.5 0 0 1-7.25 9.444z" data-original="#cde9fa"/>
  <path fill="#f8d071" d="M330.803 100.304a7.475 7.475 0 0 1-1.946-.258 7.5 7.5 0 0 1-5.303-9.186l1.898-7.085a7.498 7.498 0 0 1 9.186-5.304 7.5 7.5 0 0 1 5.303 9.186l-1.898 7.085a7.504 7.504 0 0 1-7.24 5.562z" data-original="#a2ddfd"/>
</svg>
