<svg xmlns="http://www.w3.org/2000/svg" width="512" height="512" viewBox="0 0 682.667 682.667" style="enable-background:new 0 0 512 512" xml:space="preserve">
  <defs>
    <clipPath id="a" clipPathUnits="userSpaceOnUse">
      <path d="M0 512h512V0H0Z" data-original="#000000"/>
    </clipPath>
  </defs>
  <path d="M0 0h91.781l20.469 45.89-20.469 54.145H0l-19.809-50.018Z" style="fill-opacity:1;fill-rule:nonzero;stroke:none" transform="matrix(1.33333 0 0 -1.33333 280.146 672.667)" fill="#f67661" data-original="#fd5f7e"/>
  <g clip-path="url(#a)" transform="matrix(1.33333 0 0 -1.33333 0 682.667)">
    <path d="M0 0h-85.098s-3.351 31.752 30.904 66.554l17.748 16.313 44.9-36.977z" style="fill-opacity:1;fill-rule:nonzero;stroke:none" transform="translate(171.282 7.5)" fill="#9fa3e1" data-original="#69a2de"/>
    <path d="m0 0 3.571 3.282-15.823 13.031L-30 0c-34.255-34.802-30.904-66.554-30.904-66.554h30S-34.255-34.802 0 0" style="fill-opacity:1;fill-rule:nonzero;stroke:none" transform="translate(147.088 74.054)" fill="#8389ca" data-original="#007dcf"/>
    <path d="M0 0h85.098s3.351 31.752-30.904 66.554L36.446 82.867l-44.9-36.977Z" style="fill-opacity:1;fill-rule:nonzero;stroke:none" transform="translate(340.718 7.5)" fill="#9fa3e1" data-original="#69a2de"/>
    <path d="M0 0c-48.607-66.444 73.678-100.779 73.678-148.651h38.827v100.035z" style="fill-opacity:1;fill-rule:nonzero;stroke:none" transform="translate(97.604 156.15)" fill="#fff0ce" data-original="#e8e8e8"/>
    <path d="m0 0-23.702 10.242C-72.309-56.202 49.976-90.537 49.976-138.409h30C79.976-93.06-29.755-59.857 0 0" style="fill-opacity:1;fill-rule:nonzero;stroke:none" transform="translate(121.306 145.909)" fill="#fce29f" data-original="#c7c5cb"/>
    <path d="M0 0c48.607-66.444-73.678-100.779-73.678-148.651h-38.827v100.035z" style="fill-opacity:1;fill-rule:nonzero;stroke:none" transform="translate(414.396 156.15)" fill="#fff0ce" data-original="#e8e8e8"/>
    <path d="M0 0c0-21.703-17.594-39.297-39.297-39.297C-61-39.297-78.594-21.703-78.594 0c0 21.703 17.594 39.297 39.297 39.297C-17.594 39.297 0 21.703 0 0" style="fill-opacity:1;fill-rule:nonzero;stroke:none" transform="translate(480.17 259.078)" fill="#ffbe9c" data-original="#ffbe9c"/>
    <path d="M0 0c0-21.703 17.594-39.297 39.297-39.297C61-39.297 78.594-21.703 78.594 0c0 21.703-17.594 39.297-39.297 39.297C17.594 39.297 0 21.703 0 0" style="fill-opacity:1;fill-rule:nonzero;stroke:none" transform="translate(31.83 259.078)" fill="#ffbe9c" data-original="#ffbe9c"/>
    <path d="M0 0c-.878 4.602-1.501 9.254-1.659 13.936-3.322 98.327-84.078 177.019-183.214 177.019s-179.892-78.692-183.214-177.019c-.158-4.682-.781-9.334-1.659-13.936-13.11-68.695.284-128.244 146.361-176.708a122.338 122.338 0 0 1 77.024 0C-.284-128.244 13.111-68.695 0 0" style="fill-opacity:1;fill-rule:nonzero;stroke:none" transform="translate(440.873 267.991)" fill="#df8956" data-original="#e7886e"/>
    <path d="M0 0c-146.077 48.463-159.472 108.012-146.361 176.708.878 4.602 1.5 9.254 1.659 13.937 3.152 93.316 76.052 168.937 168.214 176.402-4.949.4-9.949.616-15 .616-99.136 0-179.893-78.692-183.214-177.018-.159-4.683-.781-9.335-1.659-13.937C-189.472 108.012-176.077 48.463-30 0A122.335 122.335 0 0 1 8.512-6.222c5.021 0 10.03.316 15 .93A122.358 122.358 0 0 0 0 0" style="fill-opacity:1;fill-rule:nonzero;stroke:none" transform="translate(247.488 91.284)" fill="#d57b42" data-original="#dc6742"/>
    <path d="M0 0c0 8.82-10.038 13.885-17.132 8.644L-35.17-4.68a15.578 15.578 0 0 0-18.514 0l-28.784 21.263a10.749 10.749 0 0 1-12.771 0L-124.024-4.68a15.578 15.578 0 0 0-18.514 0l-28.784 21.263a10.749 10.749 0 0 1-12.771 0L-212.877-4.68a15.58 15.58 0 0 0-18.515 0l-28.784 21.263a10.749 10.749 0 0 1-12.771 0L-301.731-4.68a15.578 15.578 0 0 0-18.514 0l-18.038 13.324c-7.094 5.241-17.132.176-17.132-8.644v-120.806l177.707-22.099L0-120.806Z" style="fill-opacity:1;fill-rule:nonzero;stroke:none" transform="translate(433.708 485.815)" fill="#fce29f" data-original="#f9ed80"/>
    <path d="M0 0v119.944l-12.868 9.506c-7.094 5.24-17.132.175-17.132-8.644V0Z" style="fill-opacity:1;fill-rule:nonzero;stroke:none" transform="translate(108.292 365.009)" fill="#f7cc66" data-original="#fab659"/>
    <path d="M0 0c-25.363-30.374-30.102-111.755 29.206-111.755 59.307 0 46.67 36.646 102.63 36.646 55.96 0 43.322-36.646 102.629-36.646 59.308 0 54.569 81.381 29.206 111.755L131.836 22.1Z" style="fill-opacity:1;fill-rule:nonzero;stroke:none" transform="translate(124.165 320.81)" fill="#fed2a4" data-original="#ffd3bc"/>
    <path d="M0 0h-355.415c-12.205 0-22.1-9.894-22.1-22.1 0-12.205 9.895-22.099 22.1-22.099H0c12.205 0 22.1 9.894 22.1 22.099C22.1-9.894 12.205 0 0 0" style="fill-opacity:1;fill-rule:nonzero;stroke:none" transform="translate(433.708 365.009)" fill="#f7cc66" data-original="#fab659"/>
    <path d="M0 0c0 12.206 9.894 22.1 22.1 22.1h-30C-20.106 22.1-30 12.206-30 0c0-12.205 9.894-22.099 22.1-22.099h30C9.894-22.099 0-12.205 0 0" style="fill-opacity:1;fill-rule:nonzero;stroke:none" transform="translate(86.193 342.91)" fill="#f3bb37" data-original="#ec8d00"/>
    <path d="M0 0c-10.758 0-19.479-8.721-19.479-19.479V-44.72c0-10.758 8.721-19.479 19.479-19.479s19.479 8.721 19.479 19.479v25.241C19.479-8.721 10.758 0 0 0" style="fill-opacity:1;fill-rule:nonzero;stroke:none" transform="translate(256 458.946)" fill="#9fa3e1" data-original="#69a2de"/>
    <path d="M0 0c-8.065 0-14.603-6.538-14.603-14.603v-18.923c0-8.065 6.538-14.603 14.603-14.603s14.603 6.538 14.603 14.603v18.923C14.603-6.538 8.065 0 0 0" style="fill-opacity:1;fill-rule:nonzero;stroke:none" transform="translate(138.767 450.911)" fill="#f67661" data-original="#fd5f7e"/>
    <path d="M0 0c8.065 0 14.603-6.538 14.603-14.603v-18.923c0-8.065-6.538-14.603-14.603-14.603s-14.603 6.538-14.603 14.603v18.923C-14.603-6.538-8.065 0 0 0" style="fill-opacity:1;fill-rule:nonzero;stroke:none" transform="translate(373.233 450.911)" fill="#f67661" data-original="#fd5f7e"/>
    <path d="M0 0a7.5 7.5 0 0 0-7.5 7.5v16.472a7.5 7.5 0 0 0 7.5 7.5 7.5 7.5 0 0 0 7.5-7.5V7.5A7.5 7.5 0 0 0 0 0" style="fill-opacity:1;fill-rule:nonzero;stroke:none" transform="translate(171.283 250.287)" fill="#423e4f" data-original="#423e4f"/>
    <path d="M0 0c-8.069 0-15.65 3.378-20.799 9.268A7.5 7.5 0 0 0-9.506 19.14C-7.206 16.509-3.741 15 0 15c3.741 0 7.207 1.509 9.507 4.14A7.5 7.5 0 1 0 20.8 9.268C15.651 3.378 8.07 0 0 0" style="fill-opacity:1;fill-rule:nonzero;stroke:none" transform="translate(256 200.079)" fill="#423e4f" data-original="#423e4f"/>
    <path d="M0 0h-17.907a7.5 7.5 0 0 0-7.5 7.5 7.5 7.5 0 0 0 7.5 7.5H0a7.5 7.5 0 0 0 7.5-7.5A7.5 7.5 0 0 0 0 0" style="fill-opacity:1;fill-rule:nonzero;stroke:none" transform="translate(169.403 230.203)" fill="#fed2a4" data-original="#ffd3bc"/>
    <path d="M0 0a7.5 7.5 0 0 0-7.5 7.5v16.472a7.5 7.5 0 0 0 7.5 7.5 7.5 7.5 0 0 0 7.5-7.5V7.5A7.5 7.5 0 0 0 0 0" style="fill-opacity:1;fill-rule:nonzero;stroke:none" transform="translate(340.717 250.287)" fill="#423e4f" data-original="#423e4f"/>
    <path d="M0 0h-17.908a7.5 7.5 0 0 0-7.5 7.5 7.5 7.5 0 0 0 7.5 7.5H0a7.5 7.5 0 0 0 7.5-7.5A7.5 7.5 0 0 0 0 0" style="fill-opacity:1;fill-rule:nonzero;stroke:none" transform="translate(360.505 230.203)" fill="#fed2a4" data-original="#ffd3bc"/>
  </g>
</svg>
