<svg xmlns="http://www.w3.org/2000/svg" width="512" height="512" viewBox="0 0 512 511" style="enable-background:new 0 0 512 512" xml:space="preserve">
  <path fill="#eaeaea" d="m404.117 202.172 19.04 5.953a27.67 27.67 0 0 0 27.019-6.09c15.59-14.406 28.07-26.793 37.176-36.172 12.59-12.965 20.558-29.722 22.582-47.68 4-35.554 1.41-69.152-1.207-89.898-1.614-12.808-11.7-22.894-24.504-24.508-20.75-2.617-54.364-5.21-89.934-1.203-17.937 2.024-34.684 9.985-47.637 22.563-39.57 38.425-132.687 136.855-205.457 276.004l70.164 70.168c65.09-34.04 121.258-72.528 166.555-107.907 6.727-5.254 10.676-13.293 10.676-21.828V213.59c0-8.07 7.824-13.824 15.527-11.418zm0 0" data-original="#eaeaea"/>
  <path fill="#d8d7da" d="M211.36 371.305c23.98-12.54 46.742-25.68 68.206-39.051-8.28-22.356-19.753-45.254-35.554-63.762-21.23-24.87-31.864-52.851-37.125-76.281-22.41 32.68-44.883 69.137-65.692 108.93zm0 0" data-original="#d8d7da"/>
  <path fill="#d8d7da" d="M500.668 11.832a28.231 28.231 0 0 0-16.461-8.062c-20.746-2.618-54.336-5.204-89.883-1.204-17.957 2.024-34.719 9.993-47.683 22.582-39.579 38.438-132.68 136.86-205.442 275.989l35.082 35.082zm0 0" data-original="#d8d7da"/>
  <path fill="#c6c5ca" d="M206.887 192.21c-22.41 32.68-44.88 69.138-65.688 108.927l35.082 35.082 67.73-67.727c-21.23-24.87-31.863-52.855-37.124-76.281zm0 0" data-original="#c6c5ca"/>
  <path fill="#df8956" d="m101.957 490.402 77.324-99.941-57.242-57.242-99.941 77.324c-27.133 20.988-29.676 61.023-5.422 85.277 24.254 24.254 64.293 21.711 85.281-5.418zm0 0" data-original="#eab9a4"/>
  <path fill="#d57b42" d="m179.277 390.457-57.238-57.238-75.418 58.347zm-24.339 31.461L9.632 423.844c-10.414 15.508-12.473 35.23-5.746 52.453h108.98zm0 0" data-original="#dd9f80"/>
  <path fill="#f8d071" d="M190.578 429.117c-21.168-47.773-59.57-85.695-107.195-107.195-19.758-8.918-28.543-32.168-19.625-51.926 8.922-19.758 32.168-28.543 51.926-19.621a292.759 292.759 0 0 1 146.441 146.437c8.922 19.758.137 43.004-19.621 51.926-15.305 6.91-41.598 3.692-51.926-19.62zm0 0" data-original="#ffcd00"/>
  <path fill="#fce29f" d="M240.328 336.223c0 35.375-28.676 64.05-64.05 64.05s-64.051-28.675-64.051-64.05 28.675-64.051 64.05-64.051 64.051 28.676 64.051 64.05zm0 0" data-original="#ffeb99"/>
  <path fill="#f67661" d="M206.285 336.223c0 16.574-13.437 30.007-30.008 30.007-16.57 0-30.007-13.433-30.007-30.007 0-16.57 13.437-30.004 30.007-30.004s30.008 13.433 30.008 30.004zm0 0" data-original="#ff929f"/>
  <path fill="#fce29f" d="m291.148 41.242 4.895 8.95a53.153 53.153 0 0 0 21.144 21.144l8.95 4.894c9.156 5.008 9.156 18.16 0 23.172l-8.95 4.891a53.187 53.187 0 0 0-21.144 21.148l-4.895 8.946c-5.011 9.16-18.164 9.16-23.171 0l-4.891-8.946a53.222 53.222 0 0 0-21.149-21.148l-8.945-4.89c-9.16-5.012-9.16-18.165 0-23.173l8.946-4.894a53.212 53.212 0 0 0 21.148-21.145l4.89-8.949c5.012-9.156 18.165-9.156 23.172 0zm0 0" data-original="#ffeb99"/>
</svg>