<svg xmlns="http://www.w3.org/2000/svg" width="512" height="512" viewBox="0 0 682.667 682.667" style="enable-background:new 0 0 512 512" xml:space="preserve">
  <defs>
    <clipPath id="a" clipPathUnits="userSpaceOnUse">
      <path d="M0 512h512V0H0Z" data-original="#000000"/>
    </clipPath>
  </defs>
  <g clip-path="url(#a)" transform="matrix(1.33333 0 0 -1.33333 0 682.667)">
    <path d="M0 0h-344.447s-22.819-65.876-22.819-90.337 62.784-73.384 195.042-73.384c132.259 0 195.042 48.923 195.042 73.384S0 0 0 0" style="fill-opacity:1;fill-rule:nonzero;stroke:none" transform="translate(428.224 245.577)" fill="#d57b42" data-original="#e3a57b"/>
    <path d="M0 0a165.199 165.199 0 0 1-39.095-4.677c-4.412 15.339-16.153 26.311-29.949 26.311-17.573 0-31.819-17.8-31.819-39.757 0-1.612.086-3.199.235-4.762-14.631 9.657-32.426 9.82-42.92-.676-12.427-12.426-9.914-35.085 5.612-50.611.054-.054.111-.104.165-.158-17.098-25.978-27.058-57.073-27.058-90.499v-51.762h329.658v51.762C164.829-73.796 91.032 0 0 0" style="fill-opacity:1;fill-rule:nonzero;stroke:none" transform="translate(255.901 490.366)" fill="#df8956" data-original="#f2b88f"/>
    <path d="M0 0c-27.325 106.607 40.785 153.562 40.785 153.562-4.412 15.339-16.153 26.311-29.949 26.311-17.573 0-31.819-17.8-31.819-39.757 0-1.613.086-3.199.235-4.762-14.631 9.657-32.425 9.819-42.92-.676-12.427-12.426-9.914-35.085 5.612-50.611.054-.054.111-.104.165-.158C-74.989 57.931-84.949 26.836-84.949-6.59v-51.762H0Z" style="fill-opacity:1;fill-rule:nonzero;stroke:none" transform="translate(176.022 332.127)" fill="#d57b42" data-original="#e3a57b"/>
    <path d="M442.577 404.377h-41.891V261.016h41.891z" style="fill-opacity:1;fill-rule:nonzero;stroke:none" fill="#fff0ce" data-original="#cde2ff"/>
    <path d="m0 0 15.347 48.157c1.503 4.718 8.148 4.804 9.773.126L41.891 0C31.139-13.394 10.751-13.394 0 0" style="fill-opacity:1;fill-rule:nonzero;stroke:none" transform="translate(400.687 404.377)" fill="#fed2a4" data-original="#ffeee5"/>
    <path d="M0 0c0-20.528-16.642-37.17-37.17-37.17-20.529 0-37.171 16.642-37.171 37.17 0 20.528 16.642 37.17 37.171 37.17C-16.642 37.17 0 20.528 0 0" style="fill-opacity:1;fill-rule:nonzero;stroke:none" transform="translate(442.58 261.016)" fill="#ffbd86" data-original="#ffdecf"/>
    <path d="M0 0c0-20.528-16.642-37.17-37.17-37.17-20.528 0-37.17 16.642-37.17 37.17 0 20.528 16.642 37.17 37.17 37.17C-16.642 37.17 0 20.528 0 0" style="fill-opacity:1;fill-rule:nonzero;stroke:none" transform="translate(143.56 261.016)" fill="#ffbd86" data-original="#ffcdbe"/>
    <path d="M0 0c-66.225 16.222-93.064 64.09-93.064 64.09l10.01-50.856C-81.715 6.435-87.338.296-94.232.994c-95.548 9.67-132.507 72.566-132.507 72.566C-244.626 16.358-289.355.083-289.57.004a149.624 149.624 0 0 1-4.592-37.237c.197-82.288 69.159-150.112 151.44-148.997C-61.176-185.126 4.59-118.677 4.59-36.868A149.65 149.65 0 0 1 0 0" style="fill-opacity:1;fill-rule:nonzero;stroke:none" transform="translate(400.685 297.887)" fill="#fed2a4" data-original="#ffeee5"/>
    <path d="M0 0c0 34.446 11.666 66.164 31.253 91.433-10.561 10.863-15.339 18.995-15.339 18.995-17.887-57.202-62.616-73.477-62.831-73.555A149.685 149.685 0 0 1-51.509-.365c.197-82.288 69.159-150.112 151.441-148.997 8.065.109 15.972.867 23.68 2.207C53.393-134.947 0-73.712 0 0" style="fill-opacity:1;fill-rule:nonzero;stroke:none" transform="translate(158.031 261.019)" fill="#ffbd86" data-original="#ffdecf"/>
    <path d="M0 0h-40.037v-61.811H0c17.068 0 30.905 13.837 30.905 30.905C30.905-13.837 17.068 0 0 0" style="fill-opacity:1;fill-rule:nonzero;stroke:none" transform="translate(411.672 61.811)" fill="#ffbd86" data-original="#ffdecf"/>
    <path d="M0 0h-30.885C-47.953 0-61.79-13.837-61.79-30.906c0-17.068 13.837-30.905 30.905-30.905H0Z" style="fill-opacity:1;fill-rule:nonzero;stroke:none" transform="translate(140.165 61.811)" fill="#ffbd86" data-original="#ffdecf"/>
    <path d="M0 0h-231.47c-10.391 0-19.156 7.737-20.445 18.048l-15.452 123.622c-1.537 12.297 8.052 23.159 20.444 23.159H15.453c12.393 0 21.982-10.862 20.444-23.159L20.444 18.048C19.155 7.737 10.391 0 0 0" style="fill-opacity:1;fill-rule:nonzero;stroke:none" transform="translate(371.635)" fill="#9fa3e1" data-original="#f2f6fc"/>
    <path d="m0 0-15.453 123.622c-1.537 12.297 8.052 23.159 20.444 23.159h-61.81c-12.393 0-21.982-10.862-20.445-23.159L-61.812 0c1.29-10.311 10.054-18.048 20.446-18.048h61.81C10.054-18.048 1.289-10.311 0 0" style="fill-opacity:1;fill-rule:nonzero;stroke:none" transform="translate(181.531 18.048)" fill="#8389ca" data-original="#e9edf5"/>
    <path d="M0 0c0-17.069-13.836-30.905-30.905-30.905-17.069 0-30.906 13.836-30.906 30.905 0 17.068 13.837 30.905 30.906 30.905S0 17.068 0 0" style="fill-opacity:1;fill-rule:nonzero;stroke:none" transform="translate(286.805 82.415)" fill="#fff0ce" data-original="#cde2ff"/>
    <path d="M0 0c0 11.438 6.218 21.416 15.453 26.761A30.753 30.753 0 0 1 0 30.905c-17.068 0-30.905-13.837-30.905-30.905 0-17.069 13.837-30.905 30.905-30.905a30.753 30.753 0 0 1 15.453 4.144C6.218-21.417 0-11.438 0 0" style="fill-opacity:1;fill-rule:nonzero;stroke:none" transform="translate(255.9 82.415)" fill="#fce29f" data-original="#b2d3ff"/>
    <path d="M0 0c0-13.3-13.539-24.082-30.24-24.082C-46.942-24.082-60.481-13.3-60.481 0s13.539 24.082 30.241 24.082C-13.539 24.082 0 13.3 0 0" style="fill-opacity:1;fill-rule:nonzero;stroke:none" transform="translate(204.185 231.15)" fill="#fb8978" data-original="#ffa1ac"/>
    <path d="M0 0c0-13.3 13.539-24.082 30.24-24.082C46.942-24.082 60.481-13.3 60.481 0S46.942 24.082 30.24 24.082C13.539 24.082 0 13.3 0 0" style="fill-opacity:1;fill-rule:nonzero;stroke:none" transform="translate(307.62 231.15)" fill="#fb8978" data-original="#ffa1ac"/>
    <path d="M0 0v-12.362" style="stroke-width:15;stroke-linecap:round;stroke-linejoin:round;stroke-miterlimit:10;stroke-dasharray:none;stroke-opacity:1" transform="translate(191.57 266.694)" fill="none" stroke="#495560" stroke-width="15" stroke-linecap="round" stroke-linejoin="round" stroke-miterlimit="10" data-original="#495560"/>
    <path d="M0 0v-12.362" style="stroke-width:15;stroke-linecap:round;stroke-linejoin:round;stroke-miterlimit:10;stroke-dasharray:none;stroke-opacity:1" transform="translate(320.236 266.694)" fill="none" stroke="#495560" stroke-width="15" stroke-linecap="round" stroke-linejoin="round" stroke-miterlimit="10" data-original="#495560"/>
    <path d="M0 0c4.124-4.732 10.191-7.727 16.962-7.727 6.769 0 12.837 2.995 16.961 7.727" style="stroke-width:15;stroke-linecap:round;stroke-linejoin:round;stroke-miterlimit:10;stroke-dasharray:none;stroke-opacity:1" transform="translate(238.941 254.7)" fill="none" stroke="#495560" stroke-width="15" stroke-linecap="round" stroke-linejoin="round" stroke-miterlimit="10" data-original="#495560"/>
    <path d="m0 0-7.103-22.285a20.557 20.557 0 0 1 23.95-.488l.711.488L9.773.126C8.148 4.804 1.503 4.718 0 0" style="fill-opacity:1;fill-rule:nonzero;stroke:none" transform="translate(416.033 452.535)" fill="#636978" data-original="#636978"/>
  </g>
</svg>
