<svg xmlns="http://www.w3.org/2000/svg" width="512" height="512" viewBox="0 0 496.878 496.878" style="enable-background:new 0 0 512 512" xml:space="preserve">
  <path fill="#fce29f" d="M264.272 462.022h46.092c11.942 0 19.88-12.38 14.865-23.218-22.763-49.193-26.651-106.334-25.309-167.894h-24.224l-43.778 17.026-14.021 70.936 2.747 79.862z" data-original="#fce3a0"/>
  <path fill="#f8d071" d="M250.168 379.627c0-40.005 9.367-77.299 25.527-108.718h-78.737c1.342 61.561-2.546 118.702-25.309 167.894-5.015 10.838 2.922 23.218 14.865 23.218h77.758c-9.06-25.176-14.104-53.055-14.104-82.394z" data-original="#f9d171"/>
  <circle cx="70.029" cy="157.766" r="30.543" fill="#f67661" data-original="#ff5f7f"/>
  <path fill="#fab658" d="M290.842 245.932c13.987 4.725 24.53 17.292 25.999 32.825l.073.774c2.072 21.921-14.64 41.148-36.64 42.061-7.807.324-15.617.529-23.429.615l-20.492-14.246 15.476-52.875z" data-original="#fab658"/>
  <path fill="#f69e18" d="M290.839 245.942a38.451 38.451 0 0 0-13.93-1.994 689.505 689.505 0 0 1-56.939 0c-20.455-.845-38.005 14.428-39.932 34.81l-.073.774c-2.072 21.921 14.64 41.148 36.64 42.061 13.407.557 26.824.76 40.239.613 6.801-28.549 18.538-54.475 33.995-76.264z" data-original="#f69e18"/>
  <circle cx="426.849" cy="157.766" r="30.543" fill="#f67661" data-original="#ff5f7f"/>
  <path fill="#fab658" d="M280.33 496.878h53.823c19.491 0 35.291-15.8 35.291-35.291 0-19.49-15.8-35.291-35.291-35.291h-79.615l-16.522 16.194 16.522 47.359z" data-original="#fab658"/>
  <path fill="#f69e18" d="M254.537 426.297h-91.811c-19.49 0-35.291 15.8-35.291 35.291 0 19.491 15.8 35.291 35.291 35.291H280.33c-12.011-20.932-20.886-44.809-25.793-70.582z" data-original="#f69e18"/>
  <path fill="#fce29f" d="M153.647 54.221H426.85v62.976c0 86.207-68.173 156.491-153.548 159.883l-68.513-11.285-75.296-83.823-28.92-86.247z" data-original="#fce3a0"/>
  <path fill="#f8d071" d="M151.903 81.888c0-9.373.593-18.607 1.743-27.667H70.029v62.976c0 88.371 71.639 160.011 160.011 160.011h36.798c2.166 0 4.318-.056 6.462-.141-71.918-35.494-121.397-109.553-121.397-195.179z" data-original="#f9d171"/>
  <path fill="#fab658" d="M167.86 0h246.248c22.97 0 41.591 18.621 41.591 41.591 0 22.97-18.621 41.591-41.591 41.591H151.92l-20.226-14.267 12.449-57.986z" data-original="#fab658"/>
  <path fill="#f69e18" d="M151.903 81.888c0-28.97 5.677-56.61 15.956-81.888H82.77C59.8 0 41.179 18.621 41.179 41.591c0 22.97 18.621 41.591 41.591 41.591h69.149c-.002-.432-.016-.861-.016-1.294z" data-original="#f69e18"/>
  <circle cx="248.439" cy="187.766" r="30.543" fill="#f67661" data-original="#ff5f7f"/>
</svg>