<svg width="233" height="373" viewBox="0 0 233 373" fill="none" xmlns="http://www.w3.org/2000/svg">
  <path d="m199.691 180.23-43.425-12.953 12.613-28.429a4.914 4.914 0 0 0-6.544-6.544l-28.43 12.612-12.952-74.827a4.914 4.914 0 0 0-9.125 0l-12.953 74.827-28.43-12.613a4.914 4.914 0 0 0-6.543 6.544l12.612 28.43L33.09 180.23a4.913 4.913 0 0 0 0 9.124l43.425 12.953-12.612 28.43a4.914 4.914 0 0 0 6.544 6.544l28.43-12.613 12.952 71.224a4.914 4.914 0 0 0 9.125 0l12.952-71.224 28.43 12.613a4.914 4.914 0 0 0 6.544-6.544l-12.613-28.43 43.426-12.953a4.913 4.913 0 0 0-.001-9.124Z" fill="#fdba74"/>
  <path d="M224 46.326v280.348a4.122 4.122 0 0 1-3.452 4.062c-15.522 2.615-27.843 14.615-30.918 29.95a4.116 4.116 0 0 1-1.428 2.379 4.128 4.128 0 0 1-2.615.935H47.413a4.127 4.127 0 0 1-4.043-3.314c-3.075-15.335-15.397-27.335-30.918-29.95A4.13 4.13 0 0 1 9 326.674V46.326a4.12 4.12 0 0 1 .98-2.662 4.13 4.13 0 0 1 2.472-1.4C27.973 39.65 40.295 27.65 43.37 12.314A4.129 4.129 0 0 1 47.413 9h138.174c.954 0 1.877.33 2.615.935a4.116 4.116 0 0 1 1.428 2.379c3.075 15.335 15.396 27.335 30.918 29.95A4.124 4.124 0 0 1 224 46.326Z" stroke="#fdba74" stroke-width="15" stroke-miterlimit="10" stroke-linecap="round" stroke-linejoin="round"/>
  <circle cx="9" cy="9" r="8.5" fill="#fdba74"/>
  <circle cx="9" cy="364" r="8.5" fill="#fdba74"/>
  <circle cx="224" cy="364" r="8.5" fill="#fdba74"/>
  <circle cx="224" cy="9" r="8.5" fill="#fdba74"/>
</svg>
