<svg xmlns="http://www.w3.org/2000/svg" width="512" height="512" viewBox="0 0 512 512" style="enable-background:new 0 0 512 512" xml:space="preserve">
  <path fill="#f8d071" d="M512 153.538v274.523c0 22.005-11.291 41.372-28.392 52.622-157.492-78.691-159.139-316.913-64.819-390.089h30.267c34.758 0 62.944 28.186 62.944 62.944z" data-original="#fad989"/>
  <path fill="#fdc072" d="M483.608 480.682c-9.921 6.521-21.788 10.322-34.552 10.322H257.823c-34.769 0-62.944-28.175-62.944-62.944V153.538c0-34.758 28.176-62.944 62.944-62.944h160.966c-74.482 109.56-64.396 286.792 64.819 390.088z" data-original="#fdc072"/>
  <path fill="#f67661" d="M471.638 160.749v260.11c0 13.588-8.808 25.116-21.036 29.175-113.171-76.586-118.996-246.831-53.714-320.036h43.999c16.987 0 30.751 13.764 30.751 30.751z" data-original="#b18cd9"/>
  <path fill="#e96d59" d="M450.601 450.035a30.29 30.29 0 0 1-9.715 1.576H265.993c-16.988 0-30.751-13.773-30.751-30.751V160.75c0-16.988 13.763-30.751 30.751-30.751h130.895c-43.67 97.702-31.545 228.03 53.713 320.036z" data-original="#a57cd2"/>
  <path fill="#f8d071" d="M424.239 331.43c-7.201 11.682-17.616 21.593-30.741 28.237-12.766-10.807-17.665-27.697-13.207-41.877 10.961 4.275 23.261 4.852 34.521 1.288 7.305-2.308 13.455 5.841 9.427 12.352z" data-original="#fad989"/>
  <path fill="#fdc072" d="M393.498 359.667c-.165.093-.33.186-.505.268-38.735 19.295-85.907 3.029-104.388-36.365-17.729-37.787-1.793-83.383 35.582-101.947 13.341-6.634 27.681-9.035 41.496-7.737 4.914.464 7.829 4.708 7.603 8.849-.01.155-.031.309-.041.464-.237 2.122-1.319 4.183-3.379 5.656-19.532 13.877-28.052 41.454-16.545 64.551 5.831 11.713 15.69 20.006 26.97 24.384a294.27 294.27 0 0 0 13.207 41.877z" data-original="#fdc072"/>
  <path fill="#fce29f" d="M317.121 83.939v274.523c0 29.206-19.893 53.765-46.873 60.874C104.91 338.729 84.6 115.466 193.715 20.995h60.461c34.769 0 62.945 28.176 62.945 62.944z" data-original="#fbf198"/>
  <path fill="#f8d071" d="M270.247 419.335a63.128 63.128 0 0 1-16.071 2.071H62.944C28.186 421.406 0 393.22 0 358.462V83.939C0 49.17 28.186 20.995 62.944 20.995h130.771c-76.254 112.733-63.253 296.692 76.532 398.34z" data-original="#fad989"/>
  <path fill="#fb8978" d="M276.758 91.14v260.11c0 16.988-13.763 30.751-30.751 30.751h-18.275C112.045 307.62 106.556 142.363 171.927 60.389h74.08c16.988 0 30.751 13.774 30.751 30.751z" data-original="#bd9cde"/>
  <path fill="#f67661" d="M227.732 382.001H71.113c-16.988 0-30.751-13.763-30.751-30.751V91.14c0-16.977 13.763-30.751 30.751-30.751h100.814c-43.752 98.372-31.039 229.638 55.805 321.612z" data-original="#b18cd9"/>
  <path fill="#fce29f" d="m240.836 213.237-23.447-16.411 4.976-28.176c1.174-6.645-4.615-12.434-11.25-11.26l-28.186 4.976-16.411-23.447c-3.863-5.522-12.053-5.522-15.916 0l-.721 1.03c-18.075 49.069-19.918 117.564 21.623 156.392l11.425-16.318L211.115 285c6.634 1.174 12.424-4.605 11.25-11.25l-4.976-28.186 23.447-16.411c5.532-3.863 5.532-12.042 0-15.916z" data-original="#fbf198"/>
  <path fill="#f8d071" d="m171.505 296.342-4.986 7.129c-3.863 5.532-12.053 5.532-15.916 0l-16.411-23.447L106.016 285c-6.645 1.174-12.434-4.605-11.26-11.25l4.976-28.186-23.447-16.411c-5.522-3.863-5.522-12.043 0-15.916l23.447-16.411-4.976-28.176c-1.174-6.645 4.615-12.434 11.26-11.26l28.176 4.976 15.69-22.417c-6.584 51.376.03 105.935 21.623 156.393z" data-original="#fad989"/>
  <path fill="#f8d071" d="M194.879 221.2c.02 20.243-16.635 36.649-36.87 36.304-17.879-20.219-21.201-43.957-10.436-70.918a36.254 36.254 0 0 1 10.992-1.7c20.048.001 36.314 16.257 36.314 36.314z" data-original="#fad989"/>
  <path fill="#fdc072" d="M158.009 257.504c-19.8-.288-35.758-16.431-35.758-36.304 0-16.225 10.642-29.968 25.322-34.614a301.44 301.44 0 0 0 10.436 70.918z" data-original="#fdc072"/>
</svg>