<svg xmlns="http://www.w3.org/2000/svg" width="512" height="512" viewBox="0 0 512 512" style="enable-background:new 0 0 512 512" xml:space="preserve">
  <circle cx="46.366" cy="377.022" r="46.366" fill="#a05838" data-original="#a05838"/>
  <circle cx="97.175" cy="330.026" r="46.366" fill="#b76c4e" data-original="#b76c4e"/>
  <circle cx="465.634" cy="377.022" r="46.366" fill="#a05838" data-original="#a05838"/>
  <circle cx="414.825" cy="330.026" r="46.366" fill="#b76c4e" data-original="#b76c4e"/>
  <path fill="#8389ca" d="M322.808 360.242c-20.377-8.953-42.898-13.929-66.583-13.929-23.86 0-46.537 5.051-67.033 14.129V512h133.616z" data-original="#8dd470"/>
  <path fill="#f67661" d="M238.351 401.68c0-18.819-3.378-36.758-9.485-53.119-62.294 10.351-112.841 55.454-131.048 114.714C90.373 487.509 108.716 512 134.068 512h55.124c29.874-25.328 49.159-65.316 49.159-110.32z" data-original="#ff6e80"/>
  <path fill="#fb8978" d="M283.158 348.494c-6.123 16.379-9.51 34.342-9.51 53.186 0 45.004 19.285 84.992 49.159 110.32h55.575c25.352 0 43.695-24.491 36.25-48.725-18.247-59.395-68.985-104.565-131.474-114.781z" data-original="#ffa1ac"/>
  <circle cx="87.879" cy="260.791" r="40.901" fill="#ffbd86" data-original="#f9bbaf"/>
  <path fill="#e9efff" d="M320.267 348.292c-19.621-1.278-36.545 11.1-42.222 28.552a41.27 41.27 0 0 0-22.27-6.493 41.273 41.273 0 0 0-21.9 6.256c-5.76-17.349-22.653-29.618-42.217-28.309-20.488 1.371-37.11 17.951-38.525 38.436-1.675 24.242 17.494 44.429 41.378 44.429a41.42 41.42 0 0 0 10.756-1.412c6.272-1.683 12.899.734 16.652 6.034 7.511 10.604 19.873 17.527 33.857 17.527 14.005 0 26.384-6.943 33.893-17.574 3.778-5.35 10.459-7.814 16.771-6.068a41.4 41.4 0 0 0 11.052 1.494c23.884 0 43.053-20.186 41.378-44.428-1.419-20.516-18.083-37.108-38.603-38.444z" data-original="#e9efff"/>
  <path fill="#d3dcfb" d="M212.443 413.891c0-15.97 8.553-29.937 21.325-37.585-5.855-17.188-22.661-29.31-42.111-28.009-20.488 1.371-37.11 17.951-38.526 38.436-1.675 24.242 17.494 44.429 41.378 44.429a41.42 41.42 0 0 0 10.756-1.412 15.416 15.416 0 0 1 10.514.918 43.643 43.643 0 0 1-3.336-16.777z" data-original="#d3dcfb"/>
  <circle cx="423.671" cy="260.791" r="40.901" fill="#ffbd86" data-original="#ffcbbe"/>
  <circle cx="255.775" cy="230.941" r="162.76" fill="#fed2a4" data-original="#ffddcf"/>
  <path fill="#ffbd86" d="M184.392 230.941c0-73.89 49.496-136.427 117.071-156.223a162.288 162.288 0 0 0-45.689-6.537c-89.746 0-162.76 73.014-162.76 162.76s73.014 162.76 162.76 162.76c15.857 0 31.187-2.289 45.689-6.537-67.574-19.796-117.071-82.334-117.071-156.223z" data-original="#ffcbbe"/>
  <path fill="#f9d171" d="m256 92.716 143.939-17.352C368.315 29.824 315.644 0 256 0c-59.644 0-112.315 29.824-143.939 75.364z" data-original="#f9d171"/>
  <path fill="#f3c23b" d="M198.096 85.736c22.885-38.469 60.088-67.425 104.262-79.521A175.274 175.274 0 0 0 256 0c-59.644 0-112.315 29.824-143.939 75.364z" data-original="#f3c23b"/>
  <path fill="#b76c4e" d="M431.131 175.131c0-37.078-11.532-71.457-31.192-99.767H112.061c-19.659 28.31-31.192 62.689-31.192 99.767v10.302h350.262z" data-original="#b76c4e"/>
  <path fill="#a05838" d="M204.777 75.364h-92.716c-19.659 28.31-31.192 62.689-31.192 99.767v10.302h92.716v-10.302c.001-37.078 11.533-71.457 31.192-99.767z" data-original="#a05838"/>
  <path fill="#fce3a0" d="M433.47 229.559H78.53c-36.899 0-66.811-29.913-66.811-66.811 0-19.902 16.133-36.035 36.035-36.035h416.494c19.901 0 36.035 16.133 36.035 36.035-.001 36.898-29.914 66.811-66.813 66.811z" data-original="#fce3a0"/>
  <path fill="#f9d171" d="M134.181 162.747c0-19.902 16.133-36.035 36.035-36.035H47.753c-19.902 0-36.035 16.133-36.035 36.035 0 36.899 29.913 66.811 66.811 66.811h122.463c-36.898.001-66.811-29.912-66.811-66.811z" data-original="#f9d171"/>
  <ellipse cx="170.719" cy="293.595" fill="#fb8978" rx="31.467" ry="25.059" data-original="#ffa1ac"/>
  <path fill="#fb8978" d="M309.814 293.595c0 13.84 14.088 25.059 31.467 25.059 3.407 0 6.688-.431 9.76-1.229 12.601-3.271 21.707-12.704 21.707-23.83 0-13.839-14.088-25.059-31.467-25.059s-31.467 11.219-31.467 25.059z" data-original="#ffa1ac"/>
  <path fill="#495560" d="M189.058 276.972a7.5 7.5 0 0 1-7.5-7.5v-12.863a7.5 7.5 0 0 1 15 0v12.863a7.5 7.5 0 0 1-7.5 7.5zm133.884 0a7.5 7.5 0 0 1-7.5-7.5v-12.863a7.5 7.5 0 0 1 15 0v12.863a7.5 7.5 0 0 1-7.5 7.5zM256 284.629a30.909 30.909 0 0 1-23.303-10.612 7.5 7.5 0 0 1 11.309-9.855c3.028 3.475 7.4 5.468 11.995 5.468s8.967-1.993 11.995-5.468a7.5 7.5 0 0 1 11.309 9.855A30.916 30.916 0 0 1 256 284.629z" data-original="#495560"/>
  <path fill="#fb8978" d="M469.063 79.979c-5.438-10.436-15.635-16.778-26.545-17.759a20.469 20.469 0 0 1-15.325-9.295c-5.913-9.221-16.249-15.333-28.017-15.333s-22.104 6.112-28.017 15.333a20.469 20.469 0 0 1-15.325 9.295c-10.91.982-21.107 7.323-26.545 17.759-4.752 9.119-4.862 19.426-1.182 28.225a21.16 21.16 0 0 1 0 16.391c-3.68 8.799-3.57 19.106 1.182 28.225 5.439 10.436 15.635 16.778 26.545 17.759a20.469 20.469 0 0 1 15.325 9.295c5.913 9.221 16.249 15.333 28.017 15.333s22.104-6.112 28.017-15.333a20.469 20.469 0 0 1 15.325-9.295c10.91-.982 21.107-7.323 26.545-17.759 4.752-9.119 4.862-19.426 1.182-28.225a21.16 21.16 0 0 1 0-16.391c3.68-8.799 3.57-19.106-1.182-28.225z" data-original="#ffa1ac"/>
  <path fill="#f67661" d="M429.493 170.579c-10.91-.982-21.107-7.323-26.545-17.759-4.752-9.119-4.862-19.426-1.182-28.225a21.16 21.16 0 0 0 0-16.391c-3.68-8.798-3.57-19.106 1.182-28.225 5.439-10.436 15.635-16.778 26.545-17.759a20.273 20.273 0 0 0 6.513-1.718 20.45 20.45 0 0 1-8.813-7.577c-5.912-9.221-16.249-15.333-28.017-15.333s-22.104 6.112-28.017 15.333a20.469 20.469 0 0 1-15.325 9.295c-10.91.982-21.107 7.323-26.545 17.759-4.752 9.119-4.862 19.426-1.182 28.225a21.16 21.16 0 0 1 0 16.391c-3.68 8.798-3.57 19.106 1.182 28.225 5.439 10.436 15.635 16.778 26.545 17.759a20.469 20.469 0 0 1 15.325 9.295c5.912 9.221 16.249 15.333 28.017 15.333s22.104-6.112 28.017-15.333a20.443 20.443 0 0 1 8.813-7.577 20.332 20.332 0 0 0-6.513-1.718z" data-original="#ff6e80"/>
</svg>
