<svg xmlns="http://www.w3.org/2000/svg" width="512" height="512" viewBox="0 0 512 512" style="enable-background:new 0 0 512 512" xml:space="preserve">
  <g transform="translate(0 35)">
    <path fill="#f8d071" d="M315.995 335.494c-.068.106-68.988 30.498-78.666 119.85l38.479 21.248h40.187l58.1-63.181zM512 476.591h-79.802l-58.103-63.181 58.103-77.916c.072.104 79.802 35.433 79.802 141.097z" data-original="#fded80"/>
    <path fill="#f2c13b" d="M460.393 354.845c-15.35-13.606-28.167-19.309-28.196-19.351L400.47 378.04a158.695 158.695 0 0 0 59.923-23.195z" data-original="#fbcc83"/>
    <path fill="#9fa3e1" d="M315.995 335.494h116.203v141.098H315.995z" data-original="#e2e1f3"/>
    <path fill="#fb8978" d="M213.046 476.591H62.762l-54.71-54.44c20.244-63.792 71.75-86.658 71.75-86.658h116.203s51.506 22.866 71.75 86.658z" data-original="#f37a86"/>
    <path fill="#f67661" d="M51.593 354.836c24.904 16.062 54.538 25.394 86.313 25.394 31.774 0 61.407-9.332 86.311-25.393-15.375-13.644-28.211-19.344-28.211-19.344H79.802c0 .001-12.835 5.7-28.209 19.343z" data-original="#dd5c70"/>
    <path fill="#fed2a4" d="M79.807 335.499s-.028 37.622 32.953 63.59c14.818 11.667 35.474 11.667 50.292 0 32.981-25.968 32.953-63.59 32.953-63.59zm-17.045 86.653v54.44H0c0-20.775 3.09-38.835 8.052-54.44zm213.046 54.439h-62.762v-54.44h54.71c4.962 15.606 8.052 33.665 8.052 54.44z" data-original="#fddacc"/>
    <path fill="#f2c13b" d="M315.995 335.494c-.029.046-12.864 5.728-28.23 19.331a158.7 158.7 0 0 0 59.955 23.215z" data-original="#fbcc83"/>
    <path fill="#8389ca" d="M315.995 369.287c18.015 7.061 37.612 10.944 58.1 10.944 20.489 0 40.088-3.883 58.103-10.945v-33.791H315.995z" data-original="#c7c7f2"/>
    <circle cx="374.094" cy="220.546" r="128.778" fill="#e9a982" data-original="#fed2a4"/>
    <path fill="#ffbd86" d="M90.65 373.092c14.94 4.638 30.81 7.138 47.255 7.138s32.316-2.501 47.256-7.138c10.851-19.653 10.844-37.593 10.844-37.593H79.807s-.007 17.94 10.843 37.593z" data-original="#fdc8bb"/>
    <path fill="#df8f60" d="M284.7 243.206c0-71.767 49.318-132.007 115.909-148.7a129.312 129.312 0 0 0-26.514-2.738c-71.122 0-128.778 57.656-128.778 128.779 0 49.956 28.446 93.267 70.023 114.622-19.239-25.619-30.64-57.459-30.64-91.963z" data-original="#ffbd86"/>
    <ellipse cx="293.019" cy="236.144" fill="#D57B42" rx="29.916" ry="23.823" data-original="#f98797"/>
    <ellipse cx="455.173" cy="236.144" fill="#D57B42" rx="29.916" ry="23.823" data-original="#f98797"/>
    <circle cx="137.906" cy="220.546" r="128.778" fill="#fed2a4" data-original="#fddacc"/>
    <path fill="#ffbd86" d="M45.689 243.441c0-76.878 60.113-139.706 135.897-144.068-13.64-4.918-28.346-7.604-43.681-7.604-71.122 0-128.778 57.656-128.778 128.779 0 49.56 28.001 92.574 69.042 114.105-20.299-24.863-32.48-56.613-32.48-91.212z" data-original="#fdc8bb"/>
    <path fill="#df8956" d="M174.352 35.409h-11.618a50.65 50.65 0 0 0-26.906 7.737L105.48 62.172a35.705 35.705 0 0 1-18.967 5.454c-19.72 0-35.707 15.986-35.707 35.707 0 18.438 14.947 33.385 33.385 33.385h90.162c27.976 0 50.654-22.679 50.654-50.654-.001-27.977-22.68-50.655-50.655-50.655z" data-original="#dc9790"/>
    <ellipse cx="63.891" cy="222.224" fill="#FFBD86" rx="27.31" ry="21.748" data-original="#f98797"/>
    <ellipse cx="211.921" cy="222.224" fill="#FFBD86" rx="27.31" ry="21.748" data-original="#f98797"/>
    <path d="M92.806 206.284a7.726 7.726 0 0 1-7.726-7.726c0-2.907-2.365-5.273-5.273-5.273s-5.273 2.365-5.273 5.273a7.726 7.726 0 1 1-15.452 0c0-11.428 9.297-20.725 20.725-20.725s20.725 9.297 20.725 20.725a7.726 7.726 0 0 1-7.726 7.726zm116.197 0a7.726 7.726 0 0 1-7.726-7.726c0-2.907-2.365-5.273-5.273-5.273s-5.273 2.365-5.273 5.273a7.726 7.726 0 1 1-15.452 0c0-11.428 9.297-20.725 20.725-20.725s20.725 9.297 20.725 20.725a7.725 7.725 0 0 1-7.726 7.726zm101.451 14.653a7.726 7.726 0 0 1-7.726-7.726v-12.229a7.726 7.726 0 1 1 15.452 0v12.229a7.726 7.726 0 0 1-7.726 7.726zm127.284 0a7.726 7.726 0 0 1-7.726-7.726v-12.229a7.726 7.726 0 1 1 15.452 0v12.229a7.727 7.727 0 0 1-7.726 7.726zm-63.642 7.28a29.977 29.977 0 0 1-22.604-10.295 7.727 7.727 0 0 1 11.65-10.152c2.766 3.174 6.758 4.994 10.954 4.994s8.189-1.82 10.954-4.994a7.726 7.726 0 0 1 10.901-.748 7.726 7.726 0 0 1 .748 10.901 29.978 29.978 0 0 1-22.603 10.294z" data-original="#303646" fill="#303646"/>
    <path fill="#607080" d="M391.803 42.434a29.961 29.961 0 0 0-35.414 0c-35.834 26.257-82.981 33.239-82.981 97.83 0 0 37.686-14.75 79.453 8.531 13.176 7.345 29.294 7.345 42.47 0 41.767-23.281 79.453-8.531 79.453-8.531 0-64.591-47.147-71.573-82.981-97.83z" data-original="#5f66ab"/>
    <path fill="#df8956" d="M208.59 264.77c-14.168-16.768-22.401-63.612-70.685-38.041-48.283-25.571-56.517 21.273-70.685 38.041-3.954 4.679-2.234 11.838 3.325 14.412 14.963 6.929 40.437 11.194 67.36-17.782 26.922 28.976 52.397 24.711 67.36 17.782 5.559-2.574 7.279-9.732 3.325-14.412z" data-original="#dc9790"/>
    <path fill="#d57b42" d="M97.463 73.353c0-2.565.131-5.099.386-7.597a35.689 35.689 0 0 1-11.337 1.869c-19.72 0-35.707 15.986-35.707 35.707 0 18.438 14.947 33.385 33.385 33.385h49.036c-21.433-12.962-35.763-36.488-35.763-63.364z" data-original="#d0847f"/>
    <path fill="#4a5561" d="M317.811 101.06c0-14.958 3.785-29.032 10.446-41.318-28.359 16.059-54.849 32.107-54.849 80.522 0 0 22.923-8.968 52.825-1.874-5.395-11.309-8.422-23.965-8.422-37.33z" data-original="#4c5792"/>
  </g>
</svg>
