<svg xmlns="http://www.w3.org/2000/svg" width="512" height="512" viewBox="0 0 512 512" style="enable-background:new 0 0 512 512" xml:space="preserve">
  <path fill="#df8956" d="M474.531 409.303c-5.607-23.442-10.163-48.077-13.476-73.588-5.455-42.007-7.035-82.566-5.23-120.117H56.175c1.804 37.551.225 78.11-5.23 120.117-3.313 25.512-7.869 50.146-13.476 73.588-9.094 38.023 19.606 74.576 58.701 74.576h319.66c39.095 0 67.795-36.553 58.701-74.576z" data-original="#ff8a98"/>
  <circle cx="434.568" cy="304.012" r="77.191" fill="#9fa3e1" data-original="#e9efff"/>
  <path fill="#8389ca" d="M434.568 304.012c0-28.567 15.53-53.49 38.595-66.838a76.802 76.802 0 0 0-38.595-10.352c-42.631 0-77.191 34.559-77.191 77.191s34.56 77.191 77.191 77.191a76.802 76.802 0 0 0 38.595-10.352c-23.065-13.35-38.595-38.273-38.595-66.84z" data-original="#dae2fe"/>
  <path fill="#fff0ce" d="M465.564 320.919h-61.992c-9.337 0-16.907-7.569-16.907-16.907 0-9.337 7.569-16.907 16.907-16.907h61.992c9.337 0 16.907 7.569 16.907 16.907 0 9.338-7.57 16.907-16.907 16.907z" data-original="#b5e9f1"/>
  <path fill="#fce29f" d="M426.115 304.012c0-9.337 7.569-16.907 16.907-16.907h-39.449c-9.337 0-16.907 7.57-16.907 16.907s7.57 16.907 16.907 16.907h39.449c-9.338 0-16.907-7.569-16.907-16.907z" data-original="#81d9e7"/>
  <path fill="#d57b42" d="M230.663 215.598H56.175c1.804 37.551.225 78.11-5.23 120.117-3.313 25.512-7.869 50.146-13.476 73.588-9.094 38.023 19.606 74.576 58.701 74.576h134.493z" data-original="#fd5c6f"/>
  <path fill="#fed2a4" d="M418.231 484.447C405.122 406.698 337.478 347.472 256 347.472S106.878 406.698 93.769 484.447c-2.428 14.4 8.587 27.553 23.19 27.553h12.27l116.822-31.552L382.771 512h12.27c14.603 0 25.618-13.154 23.19-27.553z" data-original="#ffddcf"/>
  <path fill="#ffbd86" d="M212.175 484.447c9.751-57.833 49.68-105.408 103.028-125.991-18.372-7.089-38.332-10.984-59.203-10.984-81.478 0-149.122 59.226-162.231 136.975-2.428 14.4 8.587 27.553 23.19 27.553h12.27l82.645-22.321c-.09-1.711.003-3.462.301-5.232z" data-original="#ffcbbe"/>
  <path fill="#df8956" d="M316.28 2.824c-17.716-5.539-36.668-2.207-52.264 7.858-2.431 1.569-5.148 2.446-8.017 2.446-2.868 0-5.586-.878-8.017-2.446C232.387.617 213.436-2.715 195.72 2.824 113.734 28.455 54.235 104.98 54.235 195.413c0 24.72 4.454 48.397 12.589 70.284h378.351c8.135-21.887 12.589-45.564 12.589-70.284.001-90.433-59.498-166.958-141.484-192.589z" data-original="#ff8a98"/>
  <path fill="#d57b42" d="M139.66 198.11c0-81.735 47.943-152.262 117.239-185.016a14.1 14.1 0 0 1-.899.034c-2.868 0-5.586-.878-8.017-2.446C232.387.616 213.436-2.715 195.72 2.824 113.734 28.455 54.235 104.98 54.235 195.413c0 24.72 4.454 48.397 12.589 70.284h84.281c-7.407-21.159-11.445-43.9-11.445-67.587z" data-original="#fd5c6f"/>
  <circle cx="87.678" cy="248.749" r="43.094" fill="#ffbd86" data-original="#ffcbbe"/>
  <circle cx="424.322" cy="248.749" r="43.094" fill="#ffbd86" data-original="#ffcbbe"/>
  <path fill="#fb8978" d="m369.394 477.383-.136-.136a55.102 55.102 0 0 0-5.611-5.533c-32.768-31.954-64.039-56.7-64.039-87.336h-87.215c0 30.636-31.271 55.382-64.039 87.336a55.102 55.102 0 0 0-5.611 5.533l-.137.136.017.006c-8.203 9.411-13.179 21.572-13.393 34.612h253.543c-.214-13.04-5.19-25.201-13.393-34.612z" data-original="#b2aee4"/>
  <path fill="#f67661" d="M212.175 484.447c6.774-40.174 28.11-75.401 58.39-100.069h-58.173c0 30.636-31.271 55.382-64.039 87.336a55.102 55.102 0 0 0-5.611 5.533l-.137.136.017.006c-8.203 9.411-13.179 21.572-13.393 34.612h106.137c-14.603-.001-25.619-13.155-23.191-27.554z" data-original="#928cd9"/>
  <path fill="#fed2a4" d="m384.344 166.65-.076-.355c-2.264-10.721-10.915-18.932-21.787-20.307-12.561-1.589-25.845 1.076-37.497 8.701-18.47 12.086-42.591 19.403-68.985 19.403-26.389 0-50.508-7.315-68.976-19.397-12.572-8.225-26.998-10.669-40.374-8.237-10.259 1.865-18.197 9.864-20.381 20.06a6.322 6.322 0 0 1-.029.133c-3.325 15.399-10.766 28.529-20.381 37.786-5.73 5.517-9.038 13.103-9.474 21.046a160.94 160.94 0 0 0-.236 7.474c-.743 89.275 72.723 162.371 161.992 161.199 87.299-1.146 157.714-72.271 157.714-159.842 0-2.354-.052-4.695-.154-7.024-.366-8.359-3.948-16.325-10.089-22.008-10.043-9.297-17.84-22.761-21.267-38.632z" data-original="#ffddcf"/>
  <path fill="#ffbd86" d="M171.515 235.288c0-28.249 7.008-54.857 19.364-78.198a104.585 104.585 0 0 1-3.855-2.396c-12.572-8.225-26.998-10.669-40.374-8.237-10.259 1.865-18.197 9.864-20.381 20.06a6.322 6.322 0 0 1-.029.133c-3.325 15.399-10.766 28.529-20.381 37.786-5.73 5.517-9.038 13.103-9.474 21.046a160.94 160.94 0 0 0-.236 7.474c-.743 89.275 72.723 162.371 161.992 161.199 7.652-.1 15.171-.75 22.528-1.89-63.735-23.656-109.154-85.009-109.154-156.977z" data-original="#ffcbbe"/>
  <ellipse cx="174.119" cy="268.888" fill="#fb8978" rx="30.212" ry="24.06" data-original="#ffa1ac"/>
  <ellipse cx="337.88" cy="268.888" fill="#fb8978" rx="30.212" ry="24.06" data-original="#ffa1ac"/>
  <path fill="#303646" d="M189.484 255.042a30.758 30.758 0 0 1-23.19-10.562 7.5 7.5 0 0 1 11.308-9.856c3 3.442 7.332 5.417 11.883 5.417s8.882-1.975 11.883-5.417a7.5 7.5 0 0 1 10.582-.726 7.5 7.5 0 0 1 .726 10.582 30.764 30.764 0 0 1-23.192 10.562zm133.032 0a30.756 30.756 0 0 1-23.19-10.562 7.5 7.5 0 0 1 11.309-9.855c3 3.442 7.331 5.417 11.882 5.417s8.882-1.974 11.882-5.417a7.5 7.5 0 0 1 11.309 9.855 30.767 30.767 0 0 1-23.192 10.562zm-49.568 24.028a7.48 7.48 0 0 1-5.657-2.573c-2.851-3.271-6.966-5.147-11.291-5.147s-8.44 1.876-11.291 5.147a7.501 7.501 0 0 1-11.309-9.855A29.973 29.973 0 0 1 256 256.35a29.976 29.976 0 0 1 22.6 10.292 7.5 7.5 0 0 1-.727 10.582 7.47 7.47 0 0 1-4.925 1.846z" data-original="#303646"/>
  <circle cx="136.378" cy="77.191" r="77.191" fill="#9fa3e1" data-original="#e9efff"/>
  <path fill="#8389ca" d="M136.378 77.191c0-28.567 15.53-53.49 38.595-66.838A76.793 76.793 0 0 0 136.378 0C93.747 0 59.187 34.559 59.187 77.191s34.56 77.191 77.191 77.191a76.802 76.802 0 0 0 38.595-10.352c-23.065-13.349-38.595-38.273-38.595-66.839z" data-original="#dae2fe"/>
  <path fill="#fff0ce" d="M167.374 94.098h-61.992c-9.337 0-16.907-7.569-16.907-16.907 0-9.337 7.569-16.907 16.907-16.907h61.992c9.337 0 16.907 7.569 16.907 16.907 0 9.337-7.57 16.907-16.907 16.907z" data-original="#b5e9f1"/>
  <path fill="#fce29f" d="M127.925 77.191c0-9.337 7.57-16.907 16.907-16.907h-39.449c-9.337 0-16.907 7.57-16.907 16.907s7.57 16.907 16.907 16.907h39.449c-9.338 0-16.907-7.57-16.907-16.907z" data-original="#81d9e7"/>
  <circle cx="77.432" cy="434.809" r="77.191" fill="#9fa3e1" data-original="#e9efff"/>
  <path fill="#8389ca" d="M77.432 434.809c0-28.566 15.53-53.49 38.595-66.838a76.802 76.802 0 0 0-38.595-10.352c-42.631 0-77.191 34.559-77.191 77.191S34.801 512 77.432 512a76.802 76.802 0 0 0 38.595-10.352c-23.065-13.349-38.595-38.272-38.595-66.839z" data-original="#dae2fe"/>
  <path fill="#fff0ce" d="M108.428 451.716H46.436c-9.337 0-16.907-7.569-16.907-16.907 0-9.337 7.569-16.907 16.907-16.907h61.992c9.337 0 16.907 7.569 16.907 16.907 0 9.338-7.57 16.907-16.907 16.907z" data-original="#b5e9f1"/>
  <path fill="#fce29f" d="M68.979 434.809c0-9.337 7.57-16.907 16.907-16.907h-39.45c-9.337 0-16.907 7.57-16.907 16.907s7.57 16.907 16.907 16.907h39.449c-9.337 0-16.906-7.569-16.906-16.907z" data-original="#81d9e7"/>
</svg>
