<svg xmlns="http://www.w3.org/2000/svg" width="512" height="512" viewBox="0 0 512 512" style="enable-background:new 0 0 512 512" xml:space="preserve">
  <path fill="#9fa3e1" d="m268.69 418.86-48.08-214.24-49.48-49.17-83.73 13.52s-58.352 72.8-43.27 175.727C66.043 494.24 189.9 494.24 189.9 494.24l35.19-5.69v-.01l44.85-62.02z" data-original="#80d4ff"/>
  <path fill="#8389ca" d="m87.4 168.97-38.91 6.28-44.83 62.04 36.66 226.3 62.14 44.76 87.44-14.11C16.93 417.07 67.21 227.07 87.4 168.97z" data-original="#33bbff"/>
  <path fill="#f8d071" d="m220.613 204.623-18.574-8.633c-15.855-7.273-27.918-22.046-30.906-40.538l.031-.01 19.841-3.204a34.019 34.019 0 0 1 18.327 2.091z" data-original="#ffea80"/>
  <path fill="#f2c13b" d="M3.655 237.291.441 217.449c-2.998-18.533 9.612-35.985 28.176-38.982l19.872-3.214c4.78 29.494-15.288 57.268-44.834 62.038z" data-original="#ffc34d"/>
  <path fill="#f8d071" d="m244.976 485.34-19.872 3.214h-.01v-.01c-4.77-29.484 15.298-57.258 44.844-62.028l3.214 19.841c2.998 18.534-9.612 35.985-28.176 38.983z" data-original="#ffea80"/>
  <path fill="#f2c13b" d="m102.46 508.355-19.872 3.204c-18.564 2.998-36.046-9.591-39.054-28.124l-3.214-19.842c29.545-4.77 57.371 15.267 62.14 44.762z" data-original="#ffc34d"/>
  <path fill="#fce29f" d="M173.48 278.622a64.652 64.652 0 0 0-18.738-9.343c-5.177-1.598-10.122 3.007-8.808 8.263 4.451 17.811 1.304 37.387-10.297 53.438-11.603 16.053-29.223 25.206-47.559 26.602-5.405.412-8.216 6.565-5.058 10.971a64.557 64.557 0 0 0 14.773 14.784c23.535 16.952 54.634 15.822 76.68-.708l12.615-90.798a64.62 64.62 0 0 0-13.608-13.209z" data-original="#e6e9ef"/>
  <path fill="#fb8978" d="M452.11 32.13 348.09 14S261.494 83.764 239 204.623c-22.784 122.42 63.8 220.187 63.8 220.187l78.22 13.64 76.64-53.76h.01l48.28-276.05z" data-original="#ff80aa"/>
  <path fill="#f67661" d="m348.09 14-45.58-7.95-76.64 53.76-48.3 276.05h.01l53.85 76.5 71.37 12.45C219.35 259.21 324.22 56.3 348.09 14z" data-original="#ff4d88"/>
  <path fill="#f8d071" d="m511.486 77.003-5.532 31.637c-36.036-6.284-60.142-40.538-53.848-76.512l31.74 5.532c18.502 3.224 30.875 20.841 27.64 39.343z" data-original="#ffea80"/>
  <path fill="#f2c13b" d="M302.512 6.054c-6.305 35.964-40.61 60.039-76.646 53.755l5.542-31.678c3.235-18.482 20.83-30.844 39.312-27.62z" data-original="#ffc34d"/>
  <path fill="#f8d071" d="m457.669 384.69-5.542 31.678c-3.235 18.482-20.841 30.844-39.322 27.619l-31.781-5.542c6.294-35.974 40.61-60.039 76.636-53.755z" data-original="#ffea80"/>
  <path fill="#f2c13b" d="m231.43 412.361-31.75-5.532c-18.492-3.224-30.875-20.841-27.64-39.333l5.532-31.637h.01c36.025 6.284 60.142 40.528 53.848 76.502z" data-original="#ffc34d"/>
  <path fill="#fce29f" d="m298.15 214.644-13.367-26.999c-4.195-8.474 3.691-17.887 12.787-15.264l28.984 8.358 16.739-25.056c5.253-7.864 17.362-5.753 19.635 3.423l7.241 29.236 30.106 1.943c9.448.61 13.672 12.134 6.848 18.687l-21.742 20.878 13.367 26.999c4.195 8.473-3.691 17.887-12.787 15.264l-28.984-8.358-16.739 25.056c-5.253 7.864-17.362 5.753-19.635-3.423l-7.241-29.236-30.106-1.943c-9.448-.61-13.672-12.134-6.848-18.687z" data-original="#e6e9ef"/>
  <g fill="#8389ca">
    <circle cx="83.895" cy="224.707" r="7.5" data-original="#33bbff"/>
    <circle cx="120.304" cy="218.827" r="7.5" data-original="#33bbff"/>
    <circle cx="156.704" cy="212.947" r="7.5" data-original="#33bbff"/>
    <circle cx="119.354" cy="443.588" r="7.5" data-original="#33bbff"/>
    <circle cx="155.764" cy="437.708" r="7.5" data-original="#33bbff"/>
    <circle cx="192.173" cy="431.828" r="7.5" data-original="#33bbff"/>
  </g>
  <g fill="#f67661">
    <circle cx="320.554" cy="76.89" r="7.5" data-original="#ff4d88"/>
    <circle cx="364.973" cy="84.63" r="7.5" data-original="#ff4d88"/>
    <circle cx="409.382" cy="92.37" r="7.5" data-original="#ff4d88"/>
  </g>
</svg>
