<svg xmlns="http://www.w3.org/2000/svg" width="512" height="512" viewBox="0 0 512 512" style="enable-background:new 0 0 512 512" xml:space="preserve">
  <path fill="#f8d071" d="m141.602 455.788 44.446-52.524 5.306-21.328-46.022-46.022-21.32.451-52.524 44.446-7.535 23.963 55.126 55.126z" data-original="#fdcc6b"/>
  <path fill="#fdb04f" d="m145.332 335.914-12.289-12.289-24.302 2.332-52.524 44.446-5.146 21.489 12.882 12.882 81.379-68.86z" data-original="#fdb04f"/>
  <path fill="#eaaa83" d="m113.282 489.26 28.32-33.471-63.222-63.222-15.867-4.215-24.526 20.752c-26.344 22.288-40.688 56.785-.312 97.161 25.348 11.508 56.477 5.605 75.607-17.005z" data-original="#eaaa83"/>
  <path fill="#e4996d" d="m47.543 418.658 30.838-26.092-22.164-22.164-33.471 28.32c-28.693 24.276-30.503 67.884-3.931 94.467a64.112 64.112 0 0 0 18.86 13.073c-20.139-26.741-16.475-65.315 9.868-87.604z" data-original="#e4996d"/>
  <path fill="#eaaa83" d="M261.218 224.825 132.741 334.614l-1.836 13.507 55.143 55.143 96.322-113.84 10.178-17.215z" data-original="#eaaa83"/>
  <path fill="#e4996d" d="m278.067 183.552-33.95 27.862-135.376 114.543 22.164 22.164 121.918-103.158c6.027-5.099 14.77-3.085 16.414 2.207l13.133 42.254 18.222-21.535 25.838-28.046-48.363-56.291z" data-original="#e4996d"/>
  <path fill="#fce29f" d="m291.955 240.106 17.386 55.941c7.518 24.193 39.421 29.201 53.994 8.592l33.854-47.87a30.511 30.511 0 0 1 25.269-12.878l58.616.755c25.259.321 39.926-28.455 24.814-48.697l-35.054-46.99a30.45 30.45 0 0 1-4.437-28.01l18.825-55.513a31.448 31.448 0 0 0 1.392-6.013C359.055 25.305 256.001 98.439 274.643 221.065a30.476 30.476 0 0 1 17.312 19.041z" data-original="#fde19b"/>
  <path fill="#f8d071" d="M486.615 59.423c2.838-21.543-18.14-40.066-40.046-32.641l-55.513 18.825a30.452 30.452 0 0 1-28.01-4.437l-46.99-35.054c-20.242-15.112-49.018-.445-48.697 24.814l.755 58.616a30.511 30.511 0 0 1-12.878 25.269l-47.87 33.854c-20.625 14.584-15.567 46.484 8.554 53.983l55.98 17.398c.019.006.017.005 0 0h-.001c.937.292 1.848.639 2.744 1.015C292.722 120.224 385.097 50.184 486.615 59.423z" data-original="#fdcc6b"/>
</svg>
