<svg xmlns="http://www.w3.org/2000/svg" width="512" height="512" viewBox="0 0 512 512" style="enable-background:new 0 0 512 512" xml:space="preserve">
  <path fill="#f67661" d="m295.793 191.349 29.065-70.936c-8.996-19.012-18.511-35.367-29.627-50.515S271.399 40.808 256 26.622c-15.399 14.186-28.115 28.128-39.231 43.276s-20.631 31.503-29.627 50.515l29.065 70.936z" data-original="#f8475e"/>
  <path fill="#fce29f" d="M280.976 35.853a26.548 26.548 0 0 0 1.646-9.231C282.622 11.919 270.703 0 256 0c-4.237 0-8.24.994-11.796 2.755-13.436 18.816 9.395 48.845 36.772 33.098z" data-original="#f7e969"/>
  <path fill="#f8d071" d="M280.975 35.853c-24.456 7.159-42.635-13.01-36.771-33.098-8.784 4.35-14.826 13.4-14.826 23.866 0 14.703 11.919 26.622 26.622 26.622 11.457 0 21.222-7.238 24.975-17.39z" data-original="#f5c956"/>
  <path fill="#fb8978" d="M382.432 480.323c-14.15-56.66-65.39-98.632-126.432-98.632-61.043 0-112.282 41.973-126.432 98.632C125.546 496.426 137.852 512 154.45 512h203.1c16.598 0 28.904-15.574 24.882-31.677z" data-original="#ff6e80"/>
  <path fill="#f67661" d="M256 381.691c-55.894 0-103.562 35.193-122.07 84.627 9.662 4.684 20.357 7.552 31.596 8.396 2.289.172 4.616.259 6.917.259 9.129 0 18.225-1.362 26.741-3.974 6.975 5.24 14.747 9.417 23.2 12.459 10.573 3.805 21.883 5.735 33.616 5.735 11.732 0 23.042-1.93 33.617-5.735 8.453-3.042 16.224-7.219 23.199-12.459 8.517 2.613 17.613 3.974 26.74 3.974 2.302 0 4.629-.087 6.917-.259 11.24-.844 21.933-3.712 31.596-8.396-18.507-49.434-66.176-84.627-122.069-84.627z" data-original="#f8475e"/>
  <path fill="#fff0ce" d="M176.524 382.554c-7.327 2.519-16.392 8.224-24.996 14.957-6.468 5.061-12.675 10.704-17.688 16.011-6.588 6.974-5.65 18.082 1.978 23.899 9.255 7.057 20.429 10.769 31.638 11.611 10.511.789 21.054-.945 30.075-4.81 4.187-1.794 8.979-.934 12.317 2.166 6.378 5.924 13.654 10.101 21.258 12.837 8.156 2.935 16.689 4.213 24.895 4.213s16.739-1.278 24.895-4.213c7.604-2.736 14.88-6.913 21.258-12.837 3.338-3.1 8.129-3.96 12.317-2.166 9.021 3.865 19.564 5.6 30.075 4.81 11.209-.842 22.383-4.553 31.638-11.611 7.628-5.817 8.565-16.925 1.978-23.899-5.013-5.307-11.22-10.949-17.688-16.011-8.604-6.733-17.669-12.438-24.996-14.957z" data-original="#eeecff"/>
  <path fill="#f8d071" d="M256 429.108c11.894 0 23.666-.788 34.986-2.342 27.831-3.821 53.426-12.393 74.761-24.945a169.22 169.22 0 0 0-5.275-4.309c-8.604-6.733-17.669-12.438-24.996-14.957H176.524c-7.327 2.519-16.392 8.224-24.996 14.957a170.4 170.4 0 0 0-5.275 4.309c21.334 12.553 46.929 21.124 74.761 24.945 11.32 1.553 23.092 2.342 34.986 2.342z" data-original="#d3d3ff"/>
  <path fill="#fff0ce" d="M256 403.353c10.793 0 21.324-.708 31.483-2.103 56.1-7.702 100.842-36.331 115.648-82.158 3.417-10.575 5.239-22.066 5.239-34.427 0-12.964-2.005-25.507-5.751-37.393-14.012-44.458-52.387-79.718-101.342-93.391-14.304-3.995-29.512-6.147-45.278-6.147s-30.974 2.152-45.278 6.147c-48.954 13.673-87.33 48.932-101.342 93.391a124.113 124.113 0 0 0-5.751 37.393c0 12.361 1.823 23.852 5.239 34.427 14.806 45.826 59.549 74.456 115.649 82.158 10.16 1.395 20.691 2.103 31.484 2.103z" data-original="#eeecff"/>
  <path fill="#fed2a4" d="M256 362.72c8.805 0 17.366-.864 25.562-2.493 38.308-7.617 68.678-31.97 79.034-63.125a74.546 74.546 0 0 0 3.831-23.589c0-9.238-1.707-18.148-4.875-26.528-10.296-27.235-36.028-48.875-68.777-57.993-10.916-3.039-22.612-4.687-34.776-4.687s-23.86 1.648-34.776 4.687c-32.749 9.118-58.481 30.758-68.777 57.993-3.168 8.38-4.875 17.29-4.875 26.528a74.575 74.575 0 0 0 3.831 23.589c10.356 31.155 40.726 55.508 79.034 63.125A131.175 131.175 0 0 0 256 362.72z" data-original="#ffd3bc"/>
  <path fill="#fb8978" d="M256 214.449c9.131 0 34.077-.201 59.927-2.674 22.139-2.118 44.942-5.904 59.041-12.657 10.124-21.102 41.287-35.898 68.512-20.633 16.335 9.159 31.252 29.14 39.356 65.074 12.507-18.51 21.467-57.692 9.623-93.801-7.107-21.665-21.703-42.225-47.517-56.549-21.176-11.751-44.962-15.19-68.474-13.004-32.328 3.006-64.137 16.649-87.927 33.949-10.202 7.419-18.929 15.51-25.59 23.723-3.593 4.43-10.309 4.43-13.902 0-6.661-8.213-15.388-16.304-25.59-23.723-23.79-17.3-55.599-30.943-87.927-33.949-23.512-2.186-47.298 1.254-68.474 13.004-25.814 14.324-40.41 34.883-47.517 56.549-11.844 36.109-2.884 75.291 9.623 93.801 8.104-35.934 23.022-55.915 39.356-65.074 27.225-15.265 58.387-.469 68.512 20.633 14.099 6.754 36.902 10.539 59.041 12.657 25.85 2.473 50.796 2.674 59.927 2.674z" data-original="#ff6e80"/>
  <path fill="#f67661" d="M128.084 79.718C107.03 78.851 86 82.697 67.058 93.209c-25.814 14.324-40.41 34.883-47.517 56.549-11.844 36.109-2.884 75.291 9.623 93.801 8.104-35.934 23.022-55.915 39.356-65.074 15.223-8.536 31.675-7.668 44.995-1.558-14.565-30.557-14.294-75.033 14.569-97.209z" data-original="#f8475e"/>
  <circle cx="29.164" cy="243.559" r="26.622" fill="#fce29f" transform="rotate(-45 29.122 243.582)" data-original="#f7e969"/>
  <path fill="#f8d071" d="M54.139 252.79c-24.456 7.159-42.635-13.01-36.771-33.098-8.784 4.35-14.826 13.4-14.826 23.866 0 14.703 11.919 26.622 26.622 26.622 11.457.001 21.222-7.238 24.975-17.39z" data-original="#f5c956"/>
  <circle cx="482.836" cy="243.559" r="26.622" fill="#fce29f" transform="rotate(-45 482.829 243.666)" data-original="#f7e969"/>
  <path fill="#f8d071" d="M507.812 252.79c-24.456 7.159-42.635-13.01-36.771-33.098-8.784 4.35-14.826 13.4-14.826 23.866 0 14.703 11.919 26.622 26.622 26.622 11.456.001 21.221-7.238 24.975-17.39z" data-original="#f5c956"/>
  <path d="M191.666 289.764a7.5 7.5 0 0 1-7.5-7.5v-12.362c0-4.142 3.357-7.5 7.5-7.5s7.5 3.358 7.5 7.5v12.362a7.5 7.5 0 0 1-7.5 7.5zm128.667 0a7.5 7.5 0 0 1-7.5-7.5v-12.362c0-4.142 3.357-7.5 7.5-7.5s7.5 3.358 7.5 7.5v12.362a7.5 7.5 0 0 1-7.5 7.5zM256 297.123a29.993 29.993 0 0 1-22.615-10.3 7.5 7.5 0 0 1 11.309-9.855 14.999 14.999 0 0 0 11.307 5.154c4.331 0 8.452-1.879 11.307-5.154a7.501 7.501 0 0 1 11.309 9.855 30 30 0 0 1-22.617 10.3z" data-original="#425460" fill="#425460"/>
</svg>
