<svg xmlns="http://www.w3.org/2000/svg" width="512" height="512" viewBox="0 0 682.667 682.667" style="enable-background:new 0 0 512 512" xml:space="preserve">
  <defs>
    <clipPath id="a" clipPathUnits="userSpaceOnUse">
      <path d="M0 512h512V0H0Z" data-original="#000000"/>
    </clipPath>
  </defs>
  <g clip-path="url(#a)" transform="matrix(1.33333 0 0 -1.33333 0 682.667)">
    <path d="M0 0c-14.277 0-27.977-2.486-40.706-7.045-30.832-11.042-56.728-34.611-70.332-65.812-6.446-14.783-10.034-31.087-10.034-48.218H.001V0Z" style="fill-opacity:1;fill-rule:nonzero;stroke:none" transform="translate(255.999 128.575)" fill="#f8d071" data-original="#d4d4ff"/>
    <path d="M0 0c-13.095 30.03-38.314 54.342-70.349 65.81a120.663 120.663 0 0 1-40.69 7.045V-48.219H10.035C10.035-31.088 6.446-14.784 0 0" style="fill-opacity:1;fill-rule:nonzero;stroke:none" transform="translate(367.039 55.72)" fill="#fce29f" data-original="#efedff"/>
    <path d="m0 0-.653 3.284a120.808 120.808 0 0 1-30.008 15.805 120.663 120.663 0 0 1-40.69 7.045c-14.277 0-27.977-2.486-40.707-7.045a121.023 121.023 0 0 1-30.005-15.82c-6.35-31.92-10-62.775-10-98.209H9.347v.014A486.72 486.72 0 0 1 0 0" style="fill-opacity:1;fill-rule:nonzero;stroke:none" transform="translate(327.35 102.44)" fill="#9fa3e1" data-original="#8288cb"/>
    <path d="M0 0c-14.286 0-27.996-2.49-40.707-7.045a121.037 121.037 0 0 1-29.995-15.814l-.01-.006c-6.35-31.921-10-62.776-10-98.209v-.001h30.642c.059 52.61 31.45 97.879 76.519 118.153A121.123 121.123 0 0 1 0 0" style="fill-opacity:1;fill-rule:nonzero;stroke:none" transform="translate(255.999 128.575)" fill="#8389ca" data-original="#676fb2"/>
    <path d="M248.5 7.5h15v80.139h-15z" style="fill-opacity:1;fill-rule:nonzero;stroke:none" fill="#8389ca" data-original="#676fb2"/>
    <path d="M0 0h-65.601c-16.08 0-25.585 18.014-16.51 31.288l8.607 12.602 40.708 21.893L7.893 43.89l8.617-12.602C25.585 18.014 16.08 0 0 0" style="fill-opacity:1;fill-rule:nonzero;stroke:none" transform="translate(288.796 77.64)" fill="#fce29f" data-original="#efedff"/>
    <path d="m0 0-40.708-21.893C-33.56-40.638-19.261-55.484 0-65.783c19.26 10.299 33.542 25.146 40.689 43.89z" style="fill-opacity:1;fill-rule:nonzero;stroke:none" transform="translate(256 143.422)" fill="#ffbd86" data-original="#ffcbbe"/>
    <path d="M0 0a7.5 7.5 0 1 0-15 0A7.5 7.5 0 0 0 0 0" style="fill-opacity:1;fill-rule:nonzero;stroke:none" transform="translate(293.5 54.913)" fill="#8389ca" data-original="#676fb2"/>
    <path d="M0 0a7.5 7.5 0 1 0-15 0A7.5 7.5 0 0 0 0 0" style="fill-opacity:1;fill-rule:nonzero;stroke:none" transform="translate(293.5 29.5)" fill="#8389ca" data-original="#676fb2"/>
    <path d="M0 0c-19.927 0-36.082-16.154-36.082-36.082 0-19.927 16.155-36.081 36.082-36.081s36.082 16.154 36.082 36.081C36.082-16.154 19.927 0 0 0" style="fill-opacity:1;fill-rule:nonzero;stroke:none" transform="translate(110.862 296.953)" fill="#ffbd86" data-original="#ffcbbe"/>
    <path d="M0 0c-19.927 0-36.082-16.154-36.082-36.082 0-19.927 16.155-36.081 36.082-36.081s36.082 16.154 36.082 36.081C36.082-16.154 19.927 0 0 0" style="fill-opacity:1;fill-rule:nonzero;stroke:none" transform="translate(401.117 296.953)" fill="#ffbd86" data-original="#ffcbbe"/>
    <path d="M0 0a144.099 144.099 0 0 1-42.491 14.139 146.128 146.128 0 0 1-24.054 1.984c-23.977 0-46.593-5.819-66.521-16.115-46.687-24.123-78.606-72.839-78.606-129.014 0-26.043 6.865-50.48 18.878-71.609 18.441-32.438 49.01-57.08 85.553-67.733 12.909-3.763 26.571-5.784 40.696-5.784 8.195 0 16.231.682 24.054 1.989a145.213 145.213 0 0 1 16.647 3.795c36.546 10.654 67.111 35.298 85.553 67.738 12.011 21.128 18.874 45.563 18.874 71.604C78.583-72.839 46.676-24.126 0 0" style="fill-opacity:1;fill-rule:nonzero;stroke:none" transform="translate(322.534 389.877)" fill="#fed2a4" data-original="#ffddcf"/>
    <path d="M0 0c0 71.957 52.372 131.683 121.073 143.145a146.131 146.131 0 0 1-24.055 1.984C16.869 145.129-48.108 80.153-48.108 0c0-80.15 64.977-145.126 145.126-145.126 8.196 0 16.23.684 24.055 1.989C52.372-131.675 0-71.955 0 0" style="fill-opacity:1;fill-rule:nonzero;stroke:none" transform="translate(158.97 260.871)" fill="#ffbd86" data-original="#ffcbbe"/>
    <path d="M0 0c3.361-14.42 4.588-32.52-1.819-53.902-2.257-7.534 1.464-15.569 8.677-18.703l29.829-12.963c7.702-3.347 12.851-10.707 13.482-19.081a188.812 188.812 0 0 0-6.842-66.5 23.841 23.841 0 0 1 8.458-25.561c2.374-1.815 5.075-3.1 7.924-3.9 12.011 21.128 18.874 45.563 18.874 71.604C78.583-72.839 46.676-24.126 0 0" style="fill-opacity:1;fill-rule:nonzero;stroke:none" transform="translate(322.534 389.877)" fill="#df8956" data-original="#d6948c"/>
    <path d="M0 0a188.838 188.838 0 0 0-6.843 66.5c.632 8.374 5.781 15.735 13.483 19.082l29.829 12.962c7.213 3.134 10.934 11.169 8.677 18.704-6.408 21.385-5.179 39.487-1.817 53.909-46.687-24.122-78.606-72.838-78.606-129.013 0-26.043 6.864-50.48 18.877-71.609 2.856.799 5.563 2.086 7.942 3.904A23.841 23.841 0 0 1 0 0" style="fill-opacity:1;fill-rule:nonzero;stroke:none" transform="translate(146.14 218.727)" fill="#d57b42" data-original="#ce857a"/>
    <path d="M0 0c0-12.703-12.931-23-28.882-23-15.951 0-28.882 10.297-28.882 23s12.931 23 28.882 23C-12.931 23 0 12.703 0 0" style="fill-opacity:1;fill-rule:nonzero;stroke:none" transform="translate(205.753 211.5)" fill="#ffbd86" data-original="#ffcbbe"/>
    <path d="M0 0c0-12.703 12.984-23 29-23 16.017 0 29 10.297 29 23S45.017 23 29 23C12.984 23 0 12.703 0 0" style="fill-opacity:1;fill-rule:nonzero;stroke:none" transform="translate(305.99 211.5)" fill="#ffbd86" data-original="#ffcbbe"/>
    <path d="M0 0a7.5 7.5 0 0 1-7.5-7.5v-12a7.5 7.5 0 0 1 15 0v12A7.5 7.5 0 0 1 0 0" style="fill-opacity:1;fill-rule:nonzero;stroke:none" transform="translate(193.54 253)" fill="#313d40" data-original="#313d40"/>
    <path d="M0 0a7.5 7.5 0 0 1-7.5-7.5v-12a7.5 7.5 0 0 1 15 0v12A7.5 7.5 0 0 1 0 0" style="fill-opacity:1;fill-rule:nonzero;stroke:none" transform="translate(318.438 253)" fill="#313d40" data-original="#313d40"/>
    <path d="M0 0c-6.885 0-13.342 2.954-18.204 7.83a19.892 19.892 0 0 1-14.134 5.868c-6.275 0-11.871-2.897-15.532-7.423-3.66 4.526-9.256 7.423-15.531 7.423A19.892 19.892 0 0 1-77.535 7.83C-82.397 2.954-88.854 0-95.739 0h-.001c-3.098 0-5.409-2.841-4.803-5.881 2.732-13.726 14.846-24.073 29.376-24.073 9.412 0 17.806 4.345 23.297 11.135 5.492-6.79 13.886-11.135 23.298-11.135 14.53 0 26.644 10.347 29.376 24.073C5.41-2.841 3.099 0 0 0Z" style="fill-opacity:1;fill-rule:nonzero;stroke:none" transform="translate(303.87 217.307)" fill="#d57b42" data-original="#ce857a"/>
    <path d="m0 0-30-111.961c-2.144-8.002 2.604-16.227 10.606-18.372a15.045 15.045 0 0 1 3.892-.515c6.623 0 12.685 4.421 14.48 11.122l30 111.961L16.981 3.986z" style="fill-opacity:1;fill-rule:nonzero;stroke:none" transform="translate(392.575 138.348)" fill="#8389ca" data-original="#676fb2"/>
    <path d="M0 0c2.145 8.002-2.604 16.227-10.606 18.371-8.005 2.147-16.228-2.605-18.372-10.606l-10-37.321L-10-37.32Z" style="fill-opacity:1;fill-rule:nonzero;stroke:none" transform="translate(431.553 167.903)" fill="#fce29f" data-original="#efedff"/>
    <path d="M0 0c0-11.045-8.955-20-20-20-11.046 0-20 8.955-20 20 0 11.046 8.954 20 20 20C-8.955 20 0 11.046 0 0" style="fill-opacity:1;fill-rule:nonzero;stroke:none" transform="translate(387.343 61.36)" fill="#ffbd86" data-original="#ffbf9d"/>
    <path d="M0 0c0-16.569-13.431-30-30-30-16.568 0-30 13.431-30 30 0 16.568 13.432 30 30 30C-13.431 30 0 16.568 0 0" style="fill-opacity:1;fill-rule:nonzero;stroke:none" transform="translate(428.22 64.067)" fill="#fed2a4" data-original="#ffd4bd"/>
    <path d="M0 0c-43.738 13.795-89.1 20.657-134.458 20.634a447.643 447.643 0 0 1-10.87-.154A449.523 449.523 0 0 1-268.875-.031c-14.469-4.545-23.246-19.213-20.456-34.12a831.625 831.625 0 0 0 9.349-63.47 833.85 833.85 0 0 0 4.561-68.016c39.508-15.92 82.218-25.58 126.733-27.265 4.652-.177 9.324-.266 14.015-.266 48.689 0 96.426 9.42 141.179 27.572a833.352 833.352 0 0 0 4.586 68.216 832.518 832.518 0 0 0 9.33 63.271C23.21-19.215 14.452-4.558 0 0" style="fill-opacity:1;fill-rule:nonzero;stroke:none" transform="translate(390.448 483.866)" fill="#9fa3e1" data-original="#8288cb"/>
    <path d="M0 0c-3.893 20.805 5.991 41.314 23.675 51.506A449.523 449.523 0 0 1-99.872 30.995c-14.469-4.545-23.246-19.213-20.456-34.12a831.625 831.625 0 0 0 9.349-63.47 833.85 833.85 0 0 0 4.561-68.016c39.508-15.92 82.218-25.58 126.732-27.265A1360.818 1360.818 0 0 1 0 0" style="fill-opacity:1;fill-rule:nonzero;stroke:none" transform="translate(221.445 452.84)" fill="#8389ca" data-original="#676fb2"/>
    <path d="M0 0a833.382 833.382 0 0 0 4.586 68.216C-39.037 45.381-88.622 32.44-141.179 32.44c-52.373 0-101.796 12.849-145.309 35.535a833.845 833.845 0 0 0 4.561-68.017c43.638-17.583 91.181-27.531 140.748-27.531C-92.49-27.573-44.752-18.152 0 0" style="fill-opacity:1;fill-rule:nonzero;stroke:none" transform="translate(396.954 318.27)" fill="#fb8978" data-original="#ff8e9e"/>
    <path d="M0 0a1363.545 1363.545 0 0 1-5.023 58.065c-.082.756-.174 1.512-.257 2.268-45.215 2.745-87.884 15.069-126.013 34.948a833.372 833.372 0 0 0 4.56-68.016C-86.006 10.855-43.157 1.635 0 0" style="fill-opacity:1;fill-rule:nonzero;stroke:none" transform="translate(241.76 290.964)" fill="#f67661" data-original="#ea5b70"/>
    <path d="M0 0c-6.812 6.812-17.225 8.541-25.838 4.226-48.039-24.06-101.37-36.795-156.662-36.795-55.192 0-108.428 12.689-156.397 36.665-8.599 4.298-18.988 2.568-25.786-4.229v-.001c-10.882-10.882-7.786-29.2 6.025-35.99 11.593-5.7 23.51-10.84 35.696-15.476 43.665-16.61 90.967-25.983 140.462-25.983 49.642 0 97.117 9.278 140.891 25.983A403.083 403.083 0 0 1-5.95-35.999C7.816-29.158 10.869-10.87 0 0" style="fill-opacity:1;fill-rule:nonzero;stroke:none" transform="translate(438.275 348.28)" fill="#8389ca" data-original="#676fb2"/>
    <path d="M0 0a50.02 50.02 0 0 1-13.638 5.778 49.998 49.998 0 0 1-5.779 13.639c-3.116 5.091-10.413 5.091-13.528 0a49.998 49.998 0 0 1-5.779-13.639A50.007 50.007 0 0 1-52.362 0c-2.546-1.558-3.819-4.162-3.819-6.765 0-2.603 1.273-5.206 3.819-6.764a50.054 50.054 0 0 1 13.64-5.787 49.967 49.967 0 0 1 5.777-13.63c3.115-5.092 10.412-5.092 13.528 0a49.967 49.967 0 0 1 5.777 13.63A50.054 50.054 0 0 1 0-13.529C5.092-10.413 5.092-3.116 0 0" style="fill-opacity:1;fill-rule:nonzero;stroke:none" transform="translate(500.681 217.976)" fill="#f8d071" data-original="#ffce71"/>
    <path d="M0 0a58.337 58.337 0 0 1-15.911 6.741 58.368 58.368 0 0 1-6.741 15.911c-3.636 5.941-12.149 5.941-15.784 0a58.37 58.37 0 0 1-6.742-15.911A58.35 58.35 0 0 1-61.089 0c-2.97-1.818-4.455-4.855-4.455-7.892s1.485-6.074 4.455-7.892a58.368 58.368 0 0 1 15.914-6.752 58.282 58.282 0 0 1 6.739-15.901c3.635-5.94 12.148-5.94 15.784 0a58.31 58.31 0 0 1 6.738 15.901A58.368 58.368 0 0 1 0-15.784C5.94-12.148 5.941-3.636 0 0" style="fill-opacity:1;fill-rule:nonzero;stroke:none" transform="translate(126.544 113.892)" fill="#f8d071" data-original="#ffce71"/>
    <path d="M0 0h-6a7.5 7.5 0 0 1 0-15h6A7.5 7.5 0 0 1 0 0" style="fill-opacity:1;fill-rule:nonzero;stroke:none" transform="translate(47.5 183)" fill="#f8d071" data-original="#ffce71"/>
    <path d="M0 0h-6a7.5 7.5 0 0 1 0-15h6A7.5 7.5 0 0 1 0 0" style="fill-opacity:1;fill-rule:nonzero;stroke:none" transform="translate(13.5 183)" fill="#f8d071" data-original="#ffce71"/>
    <path d="M0 0a7.5 7.5 0 0 1-7.5-7.5v-6a7.5 7.5 0 0 1 15 0v6A7.5 7.5 0 0 1 0 0" style="fill-opacity:1;fill-rule:nonzero;stroke:none" transform="translate(27.5 169)" fill="#f8d071" data-original="#ffce71"/>
    <path d="M0 0a7.5 7.5 0 0 1 7.5 7.5v6a7.5 7.5 0 0 1-15 0v-6A7.5 7.5 0 0 1 0 0" style="fill-opacity:1;fill-rule:nonzero;stroke:none" transform="translate(27.5 182)" fill="#f8d071" data-original="#ffce71"/>
    <path d="M0 0h-6a7.5 7.5 0 0 1 0-15h6A7.5 7.5 0 0 1 0 0" style="fill-opacity:1;fill-rule:nonzero;stroke:none" transform="translate(504.5 118.083)" fill="#f8d071" data-original="#ffce71"/>
    <path d="M0 0h-6a7.5 7.5 0 0 1 0-15h6A7.5 7.5 0 0 1 0 0" style="fill-opacity:1;fill-rule:nonzero;stroke:none" transform="translate(470.5 118.083)" fill="#f8d071" data-original="#ffce71"/>
    <path d="M0 0a7.5 7.5 0 0 1-7.5-7.5v-6a7.5 7.5 0 0 1 15 0v6A7.5 7.5 0 0 1 0 0" style="fill-opacity:1;fill-rule:nonzero;stroke:none" transform="translate(484.5 104.083)" fill="#f8d071" data-original="#ffce71"/>
    <path d="M0 0a7.5 7.5 0 0 1 7.5 7.5v6a7.5 7.5 0 0 1-15 0v-6A7.5 7.5 0 0 1 0 0" style="fill-opacity:1;fill-rule:nonzero;stroke:none" transform="translate(484.5 117.083)" fill="#f8d071" data-original="#ffce71"/>
  </g>
</svg>
