<svg xmlns="http://www.w3.org/2000/svg" width="512" height="512" viewBox="0 0 512 512" style="enable-background:new 0 0 512 512" xml:space="preserve">
  <g fill="#f5c98d">
    <path d="M199.9 364.172a7.5 7.5 0 0 1-6.926-10.372L305.168 82.94a7.5 7.5 0 0 1 13.858 5.74L206.832 359.54a7.503 7.503 0 0 1-6.932 4.632z" data-original="#f5c98d"/>
    <path d="M312.1 364.172a7.503 7.503 0 0 1-6.932-4.632L192.974 88.68a7.5 7.5 0 1 1 13.858-5.74L319.026 353.8a7.5 7.5 0 0 1-6.926 10.372z" data-original="#f5c98d"/>
    <path d="M391.427 284.839a7.472 7.472 0 0 1-2.867-.573L117.7 172.072a7.5 7.5 0 0 1 5.74-13.858L394.3 270.408a7.5 7.5 0 0 1-2.873 14.431z" data-original="#f5c98d"/>
    <path d="M120.573 284.839a7.503 7.503 0 0 1-2.873-14.431l270.86-112.194a7.5 7.5 0 0 1 5.74 13.858L123.44 284.266a7.472 7.472 0 0 1-2.867.573z" data-original="#f5c98d"/>
  </g>
  <g fill="#fb8978">
    <ellipse cx="256" cy="417.719" rx="30.684" ry="24.76" data-original="#cde9fa"/>
    <ellipse cx="117.068" cy="360.172" rx="30.684" ry="24.76" data-original="#cde9fa"/>
    <ellipse cx="59.52" cy="221.24" rx="30.684" ry="24.76" data-original="#cde9fa"/>
    <ellipse cx="117.068" cy="82.308" rx="30.684" ry="24.76" data-original="#cde9fa"/>
  </g>
  <ellipse cx="256" cy="24.76" fill="#f67661" rx="30.684" ry="24.76" data-original="#a2ddfd"/>
  <ellipse cx="394.932" cy="82.308" fill="#f67661" rx="30.684" ry="24.76" data-original="#a2ddfd"/>
  <ellipse cx="452.48" cy="221.24" fill="#f67661" rx="30.684" ry="24.76" data-original="#a2ddfd"/>
  <ellipse cx="394.932" cy="360.172" fill="#f67661" rx="30.684" ry="24.76" data-original="#a2ddfd"/>
  <path fill="#fb8978" d="M256 34.215c-103.291 0-187.025 83.734-187.025 187.025S152.709 408.265 256 408.265s187.025-83.734 187.025-187.025S359.291 34.215 256 34.215zm0 333.615c-80.959 0-146.59-65.631-146.59-146.59S175.041 74.65 256 74.65s146.59 65.63 146.59 146.59c0 80.959-65.631 146.59-146.59 146.59z" data-original="#cde9fa"/>
  <path fill="#f67661" d="M68.975 221.24c0 103.291 83.734 187.025 187.025 187.025 25.942 0 50.648-5.285 73.106-14.832-26.711-6.327-49.783-15.057-69.637-25.648-1.153.027-2.309.044-3.468.044-80.959 0-146.59-65.631-146.59-146.59 0-38.135 14.566-72.865 38.432-98.941 3.158-26.065 8.953-48.219 14.666-63.07-55.912 32.336-93.534 92.778-93.534 162.012z" data-original="#a2ddfd"/>
  <path fill="#fce29f" d="M165.655 494.992 256 276.879l90.345 218.113h42.925a21.156 21.156 0 0 0-1.405-11.04l-112.194-270.86a21.292 21.292 0 0 0-39.342 0l-112.194 270.86a21.174 21.174 0 0 0-1.405 11.04z" data-original="#fbf1cf"/>
  <path fill="#f8d071" d="m199.523 301.948-75.388 182.004a21.164 21.164 0 0 0-1.405 11.04h42.925l60.23-145.408c-18.608-10.154-25.488-28.626-26.362-47.636z" data-original="#f5e2a2"/>
  <path fill="#9fa3e1" d="M424.289 512H87.711c-4.525 0-7.486-4.74-5.5-8.806l7.055-14.447a25.439 25.439 0 0 1 22.859-14.277h287.752a25.439 25.439 0 0 1 22.859 14.277l7.055 14.447c1.984 4.066-.977 8.806-5.502 8.806z" data-original="#3a5092"/>
  <path fill="#8389ca" d="M215.932 474.47H112.124a25.44 25.44 0 0 0-22.859 14.276l-7.055 14.447c-1.985 4.066.975 8.806 5.5 8.806h136.151c-7.281-7.929-9.922-26.242-7.929-37.529z" data-original="#173180"/>
  <circle cx="256" cy="221.24" r="57.804" fill="#9fa3e1" data-original="#3a5092"/>
  <circle cx="256" cy="221.24" r="24.565" fill="#fb8978" transform="rotate(-13.1 256.566 221.444)" data-original="#cde9fa"/>
</svg>
