<svg xmlns="http://www.w3.org/2000/svg" width="512" height="512" viewBox="0 0 512 512" style="enable-background:new 0 0 512 512" xml:space="preserve">
  <path fill="#f8d071" d="M79.613 42.466 20.089 280.62l34.9 9.056 45.327-183.449 45.327 183.449 34.901-9.056L121.02 42.466zm352.774 0 59.524 238.154-34.9 9.056-45.327-183.449-45.327 183.449-34.901-9.056L390.98 42.466z" data-original="#f5c372"/>
  <path fill="#f5c06b" d="m446.294 98.108-13.907-55.642H390.98l-13.907 55.642zm-311.367 0L121.02 42.466H79.613L65.706 98.108z" data-original="#f7b267"/>
  <path fill="#f8d071" d="M487.263 17.729H24.737C11.075 17.729 0 28.804 0 42.466c0 13.662 11.075 24.737 24.737 24.737h462.527c13.662 0 24.737-11.075 24.737-24.737-.001-13.662-11.076-24.737-24.738-24.737z" data-original="#f5c372"/>
  <path fill="#fce29f" d="M331.461 425.428 256 467.341l-75.461-41.913s50.201-42.021 50.201-112.187V42.469h50.52v270.773c0 70.165 50.201 112.186 50.201 112.186z" data-original="#f2d48b"/>
  <path fill="#f8d071" d="M230.74 108.403c7.849 3.018 16.361 4.689 25.26 4.689s17.41-1.671 25.26-4.688V42.469h-50.52z" data-original="#f5c372"/>
  <path fill="#f5c06b" d="M185.375 42.466c0 8.7 1.591 17.033 4.481 24.736h132.289c2.89-7.703 4.481-16.036 4.481-24.736s-1.591-17.034-4.481-24.737H189.856a70.277 70.277 0 0 0-4.481 24.737z" data-original="#f7b267"/>
  <circle cx="256" cy="42.466" r="39.72" fill="#fce29f" data-original="#f2d48b"/>
  <path fill="#f8d071" d="M380.137 509.254H131.863c-18.131 0-31.678-14.855-31.678-31.616 0-3.657.639-7.417 2.029-11.126 9.241-24.704 32.852-41.084 59.235-41.084h189.1c26.383 0 49.995 16.38 59.235 41.084 7.738 20.696-7.56 42.742-29.647 42.742z" data-original="#f5c372"/>
  <path d="m126.277 211.297 19.366 78.379 34.901-9.056-17.327-69.323zm-88.862 0L20.089 280.62l34.9 9.056 19.366-78.379z" fill="#f5c06b" data-original="#f7b267"/>
  <path fill="#fce29f" d="M169.248 242.202H31.384c-15.355 0-29.98 11.852-29.421 32.132 1.241 45.039 38.897 80.556 83.954 80.556h28.799c45.056 0 82.713-35.517 83.954-80.556.561-20.409-14.215-32.132-29.422-32.132z" data-original="#f2d48b"/>
  <path d="m437.645 211.297 19.366 78.379 34.9-9.056-17.326-69.323zm-88.862 0-17.327 69.323 34.901 9.056 19.366-78.379z" fill="#f5c06b" data-original="#f7b267"/>
  <path fill="#fce29f" d="M342.752 242.202h137.864c15.355 0 29.98 11.852 29.421 32.132-1.241 45.039-38.897 80.556-83.954 80.556h-28.799c-45.056 0-82.713-35.517-83.954-80.556-.561-20.409 14.215-32.132 29.422-32.132z" data-original="#f2d48b"/>
  <path fill="#f8d071" d="M64.058 265.556c0-8.02.882-15.833 2.541-23.354H31.384c-15.355 0-29.98 11.852-29.421 32.132 1.241 45.039 38.897 80.555 83.953 80.555h25.473c-28.566-19.422-47.331-52.185-47.331-89.333zm311.367-.001c0-8.02.882-15.832 2.541-23.354h-35.215c-15.355 0-29.98 11.852-29.421 32.132 1.241 45.039 38.897 80.555 83.953 80.555h25.473c-28.566-19.422-47.331-52.184-47.331-89.333z" data-original="#f5c372"/>
  <path fill="#f5c06b" d="M216.28 431.911c0-2.174.056-4.335.161-6.482h-54.99c-26.383 0-49.995 16.38-59.235 41.083a31.612 31.612 0 0 0-2.029 11.126c0 16.761 13.547 31.616 31.678 31.616h109.652c-15.865-21.685-25.237-48.417-25.237-77.343z" data-original="#f7b267"/>
</svg>
