<svg xmlns="http://www.w3.org/2000/svg" width="512" height="512" viewBox="0 0 497 497" style="enable-background:new 0 0 512 512" xml:space="preserve">
  <path d="M410.056 1.401h42.669v111.848h-42.669zm-355.124 0h42.669v111.848H54.932z" fill="#df8956" data-original="#dedede"/>
  <path fill="#d57b42" d="M410.056 61.041h42.669v52.208h-42.669zm-355.124 0h42.669v52.208H54.932z" data-original="#d0d0ce"/>
  <path fill="#df8956" d="M32.866 135.458h441.926c12.265 0 22.208-9.943 22.208-22.208 0-12.265-9.943-22.208-22.208-22.208H32.866c-12.265 0-22.208 9.943-22.208 22.208 0 12.265 9.943 22.208 22.208 22.208z" data-original="#5c586f"/>
  <path fill="#9fa3e1" d="m273.556 359.995 126.62 24.717h.01c-14.136 56.783-65.468 98.858-126.631 98.858-129.447 0-143.518-39.405-236.846 9.55-12.709 6.668-28.294-.734-31.147-14.801-12.281-60.568-20.229-197.637 159.428-197.637z" data-original="#ffb3dd"/>
  <path fill="#fed2a4" d="M338.513 191.424h80.73c14.362 0 26.004 11.642 26.004 26.004s-11.643 26.004-26.004 26.004h-80.73c-14.362 0-26.004-11.642-26.004-26.004s11.642-26.004 26.004-26.004zm-129.914 0h-80.73c-14.362 0-26.004 11.642-26.004 26.004s11.643 26.004 26.004 26.004h80.73c14.362 0 26.004-11.642 26.004-26.004s-11.643-26.004-26.004-26.004z" data-original="#da9d81"/>
  <path fill="#ffbd86" d="M241.895 40.931c52.122 0 94.527 42.404 94.527 94.527 0 17.234-13.971 31.205-31.205 31.205s-31.205-13.971-31.205-31.205c0-17.709-14.407-32.116-32.116-32.116-17.234 0-31.205-13.971-31.205-31.205s13.97-31.206 31.204-31.206z" data-original="#c7856a"/>
  <path fill="#fed2a4" d="M186.467 40.931c52.122 0 94.527 42.404 94.527 94.527 0 17.234-13.971 31.205-31.205 31.205s-31.205-13.971-31.205-31.205c0-17.709-14.407-32.116-32.116-32.116-17.234 0-31.205-13.971-31.205-31.205s13.97-31.206 31.204-31.206z" data-original="#da9d81"/>
  <path fill="#f67661" d="M338.513 266.28v-96.644c0-35.875-29.082-64.957-64.957-64.957-35.875 0-64.957 29.082-64.957 64.957v96.644z" data-original="#93eae9"/>
  <circle cx="273.556" cy="222.601" r="30.011" fill="#ffbd86" data-original="#c7856a"/>
  <path fill="#8389ca" d="m165.552 281.093-.563-.411c-179.656 0-171.709 137.069-159.427 197.636C8.415 492.386 24 499.788 36.71 493.12c93.328-48.955 107.398-9.55 236.846-9.55 5.765 0 11.443-.375 17.011-1.1-67.647-36.035-116.552-111.604-125.015-201.377z" data-original="#ff9dd3"/>
  <path fill="#fed2a4" d="M143.081 354.296c.516 22.427 13.739 42.764 33.985 52.425 33.424 15.948 62.765 3.358 80.067-8.324a29.368 29.368 0 0 1 32.846 0c22.355 15.093 64.808 31.704 110.197-13.685h.01a130.924 130.924 0 0 0 3.859-31.621c0-72.074-58.426-130.49-130.49-130.49s-130.49 58.416-130.49 130.49c.001.39.006.792.016 1.205z" data-original="#da9d81"/>
  <path fill="#423e4f" d="M338.513 350.852a7.5 7.5 0 0 1-7.5-7.5V330.87a7.5 7.5 0 0 1 15 0v12.482a7.5 7.5 0 0 1-7.5 7.5zm-129.915 0a7.5 7.5 0 0 1-7.5-7.5V330.87a7.5 7.5 0 0 1 15 0v12.482a7.5 7.5 0 0 1-7.5 7.5zm82.086-12.11a7.48 7.48 0 0 1-5.657-2.573c-2.896-3.323-7.077-5.229-11.471-5.229s-8.575 1.906-11.471 5.229a7.5 7.5 0 0 1-11.309-9.855c5.746-6.593 14.048-10.375 22.78-10.375s17.034 3.781 22.78 10.375a7.5 7.5 0 0 1-5.652 12.428z" data-original="#423e4f"/>
  <path d="M170.801 191.424h-42.932c-14.362 0-26.004 11.642-26.004 26.004s11.643 26.004 26.004 26.004h36.544c.588-17.876 2.766-35.275 6.388-52.008zm-5.356 88.573c-14.126 20.852-22.379 46.008-22.379 73.094 0 .39.005.792.014 1.205.516 22.427 13.739 42.764 33.985 52.425 13.096 6.249 25.56 8.104 36.924 7.362-26.479-37.182-43.958-83.391-48.544-134.086z" fill="#ffbd86" data-original="#c7856a"/>
</svg>
