<svg xmlns="http://www.w3.org/2000/svg" width="512" height="512" viewBox="0 0 512 512" style="enable-background:new 0 0 512 512" xml:space="preserve">
  <path fill="#fce29f" d="M110.531 126.49c-20.349-24.118-29.962-69.561-14.12-108.225 5.105-12.458 21.943-14.429 29.857-3.536 17.291 23.8 39.608 43.963 70.503 48.969zm290.938 0c20.35-24.118 29.962-69.561 14.12-108.225-5.105-12.458-21.943-14.429-29.857-3.536-17.291 23.8-39.608 43.963-70.503 48.969z" data-original="#fbf1cf"/>
  <path d="M121.803 221.024c0-30.701-45.138-97.802-78.052-97.802S-2.666 189.783.431 221.024c3.029 30.551 28.86 55.588 61.775 55.588 32.914 0 59.597-24.888 59.597-55.588zm268.394 0c0-30.701 45.138-97.802 78.052-97.802s46.417 66.561 43.32 97.802c-3.029 30.551-28.86 55.588-61.775 55.588-32.914 0-59.597-24.888-59.597-55.588zm13.005 283.357c21.64 0 37.944-20.035 33.15-41.138C417.65 380.902 344.003 319.437 256 319.437S94.351 380.902 75.647 463.244c-4.793 21.103 11.51 41.138 33.15 41.138h294.405z" fill="#f67661" data-original="#e7889d"/>
  <path fill="#e3715e" d="M381.64 368.674c-32.987-30.555-77.13-49.237-125.64-49.237s-92.652 18.682-125.64 49.237c36.24 19.757 79.725 30.403 125.64 30.403s89.4-10.645 125.64-30.403z" data-original="#e16e7e"/>
  <path fill="#f8d071" d="M362.406 40.744c-13.142 11.458-28.608 19.945-47.177 22.954l86.24 62.792c9.51-11.272 16.674-27.203 19.991-44.921-16.944-16.437-36.945-30.242-59.054-40.825zM110.531 126.49l86.24-62.792c-18.568-3.008-34.035-11.496-47.177-22.954-22.109 10.584-42.11 24.389-59.054 40.825 3.317 17.718 10.48 33.649 19.991 44.921z" data-original="#fae0bd"/>
  <path fill="#e3715e" d="M85.596 233.646a7.504 7.504 0 0 1-7.265-5.658c-1.511-5.96-18.281-22.76-40.043-31.231a7.501 7.501 0 0 1 5.441-13.979c22.822 8.885 45.786 28.288 49.142 41.522a7.5 7.5 0 0 1-5.427 9.113 7.5 7.5 0 0 1-1.848.233zm340.809 0a7.5 7.5 0 0 1-7.276-9.345c3.355-13.234 26.318-32.638 49.141-41.522a7.5 7.5 0 1 1 5.441 13.979c-21.762 8.472-38.531 25.271-40.043 31.231a7.502 7.502 0 0 1-7.263 5.657z" data-original="#e16e7e"/>
  <path fill="#fb8978" d="M442.838 213.499c0-88.702-83.65-160.61-186.838-160.61S69.162 124.797 69.162 213.499c0 88.703 83.65 149.521 186.838 149.521s186.838-60.818 186.838-149.521z" data-original="#eda1ab"/>
  <path fill="#565e75" d="M256 32.745c-51.751 0-88.029 24.525-102.025 49.707-6.276 11.293 2.269 25.157 15.184 24.789 15.39-.438 35.179-2.181 50.511-5.115 2.588 16.341 12.471 32.137 25.951 42.71a16.82 16.82 0 0 0 20.756 0c13.481-10.572 23.364-26.368 25.951-42.71 15.332 2.934 35.122 4.677 50.511 5.115 12.915.368 21.461-13.496 15.184-24.789C344.029 57.271 307.751 32.745 256 32.745zm40.484 306.958c0-19.616-18.125-35.519-40.483-35.519s-40.484 15.902-40.484 35.519c0 19.616 26.228 62.007 40.484 62.007 14.254 0 40.483-42.391 40.483-62.007z" data-original="#565e75"/>
  <ellipse cx="172.754" cy="234.453" fill="#e3715e" rx="30.716" ry="24.461" data-original="#ffffff"/>
  <ellipse cx="339.246" cy="234.453" fill="#e3715e" rx="30.716" ry="24.461" data-original="#ffffff"/>
  <path d="M291.905 218.862c0-15.528-16.075-16.987-35.904-16.987-19.83 0-35.905 1.459-35.905 16.987 0 15.527 16.075 28.115 35.905 28.115 19.829-.001 35.904-12.588 35.904-28.115zm-89.144-28.492c-.433 0-.871-.037-1.311-.115l-21.762-3.838a7.499 7.499 0 0 1-6.083-8.688c.72-4.08 4.611-6.807 8.689-6.083l21.762 3.838a7.499 7.499 0 0 1-1.295 14.886zm106.478 0a7.502 7.502 0 0 1-7.377-6.198 7.498 7.498 0 0 1 6.083-8.688l21.762-3.838a7.497 7.497 0 0 1 8.688 6.083 7.498 7.498 0 0 1-6.083 8.688l-21.762 3.838c-.44.078-.878.115-1.311.115zm-118.584 27.939a7.5 7.5 0 0 1-7.5-7.5v-12.362c0-4.143 3.358-7.5 7.5-7.5s7.5 3.357 7.5 7.5v12.362a7.5 7.5 0 0 1-7.5 7.5zm130.69 0a7.499 7.499 0 0 1-7.5-7.5v-12.362c0-4.143 3.357-7.5 7.5-7.5s7.5 3.357 7.5 7.5v12.362a7.5 7.5 0 0 1-7.5 7.5z" data-original="#565e75" fill="#565e75"/>
</svg>
