<svg xmlns="http://www.w3.org/2000/svg" width="512" height="512" viewBox="0 0 497 497" style="enable-background:new 0 0 512 512" xml:space="preserve">
  <path fill="#8389ca" d="m324.517 134.629-220.064 58.967L185.75 497h235.864z" data-original="#8288cb"/>
  <path d="m96.341 221.276 59.528 222.163 28.978-7.765-59.529-222.162-17.077-5.777zm132.883 202.507 28.977-7.764-59.528-222.163-17.077-5.777-11.901 13.542z" data-original="#9ea2e3" fill="#9ea2e3"/>
  <path fill="#d4d4ff" d="m280.816 29.493-80.804 9.03-23.425 22.79 15.525 57.94 31.682 8.023 74.493-32.581z" data-original="#d4d4ff"/>
  <path fill="#9ea2e3" d="m196.595 97.346-5.172-19.303a24.498 24.498 0 0 1 11.745-27.744l-3.155-11.775-18.621 2.081L89.73 80.694l17.471 65.203 99.426-11.112 17.167-7.508-3.155-11.775a24.5 24.5 0 0 1-24.044-18.156z" data-original="#9ea2e3"/>
  <path d="M143.717 87.194a7.5 7.5 0 0 0-5.303 9.186l3.106 11.591a7.5 7.5 0 0 0 14.489-3.883l-3.106-11.591a7.5 7.5 0 0 0-9.186-5.303zm93.595-25.079a7.5 7.5 0 0 0-5.303 9.186l3.106 11.591a7.5 7.5 0 0 0 14.489-3.883l-3.106-11.591a7.5 7.5 0 0 0-9.186-5.303zm-23.679 16.168a7.5 7.5 0 0 0-10.033 3.441 14.34 14.34 0 0 1-9.166 7.559c-4 1.072-8.27.357-11.717-1.963a7.501 7.501 0 0 0-8.373 12.447c7.046 4.739 15.783 6.199 23.972 4.005s15.026-7.828 18.758-15.455a7.501 7.501 0 0 0-3.441-10.034z" data-original="#313d40" fill="#313d40"/>
  <path fill="#9ea2e3" d="m437.143 497-91.76-342.454-17.077-5.777-11.901 13.542L406.085 497z" data-original="#9ea2e3"/>
  <path fill="#ffce71" d="m358.522 497-8.849-33.022z" data-original="#ffce71"/>
  <path fill="#9ea2e3" d="m243.05 181.965 84.413 315.034h31.058L272.027 174.2l-17.077-5.777z" data-original="#9ea2e3"/>
  <path d="m96.341 221.276 28.978-7.765a7.494 7.494 0 0 0 5.541-6.842c.376-7.008 5.187-13.287 12.333-15.202s14.453 1.118 18.282 6.999a7.496 7.496 0 0 0 8.22 3.155l28.978-7.765a7.494 7.494 0 0 0 5.541-6.842c.376-7.008 5.187-13.287 12.333-15.202s14.453 1.118 18.282 6.999a7.494 7.494 0 0 0 8.22 3.154l28.978-7.765a7.493 7.493 0 0 0 5.541-6.842c.376-7.008 5.187-13.288 12.333-15.203s14.453 1.118 18.282 6.999a7.494 7.494 0 0 0 8.22 3.154l28.978-7.765a7.5 7.5 0 0 0 5.303-9.186l-8.412-31.393-135.647 20.818L78.743 184.58l8.412 31.393a7.5 7.5 0 0 0 9.186 5.303zm25.881 96.592 28.978-7.765a7.493 7.493 0 0 0 5.541-6.842c.376-7.007 5.187-13.287 12.333-15.202s14.453 1.118 18.282 6.999a7.494 7.494 0 0 0 8.22 3.154l28.978-7.765a7.492 7.492 0 0 0 5.541-6.842c.376-7.007 5.187-13.287 12.333-15.202s14.453 1.118 18.282 6.999a7.494 7.494 0 0 0 8.22 3.154l28.978-7.765a7.493 7.493 0 0 0 5.541-6.842c.376-7.008 5.187-13.287 12.333-15.202s14.453 1.118 18.282 6.999a7.494 7.494 0 0 0 8.22 3.154l28.978-7.765a7.5 7.5 0 0 0 5.303-9.186l-8.412-31.393-135.648 20.818-127.883 49.795 8.412 31.393a7.502 7.502 0 0 0 9.188 5.306zm16.697 91.29a7.5 7.5 0 0 0 9.186 5.303l28.978-7.765a7.492 7.492 0 0 0 5.541-6.842c.376-7.007 5.187-13.287 12.333-15.202s14.453 1.118 18.282 6.999a7.494 7.494 0 0 0 8.22 3.154l28.978-7.765a7.493 7.493 0 0 0 5.541-6.842c.376-7.008 5.187-13.287 12.333-15.202s14.453 1.118 18.282 6.999a7.494 7.494 0 0 0 8.22 3.154l28.978-7.765a7.493 7.493 0 0 0 5.541-6.842c.376-7.008 5.187-13.287 12.333-15.202s14.453 1.118 18.282 6.999a7.494 7.494 0 0 0 8.22 3.154l28.978-7.765a7.5 7.5 0 0 0 5.303-9.186l-8.412-31.393L258.39 327.97l-127.883 49.795zm17.47 65.2L162.456 497h63.98l49.883-13.367a7.492 7.492 0 0 0 5.541-6.842c.376-7.008 5.187-13.287 12.333-15.203 7.146-1.914 14.453 1.118 18.282 6.999a7.494 7.494 0 0 0 8.22 3.154l28.978-7.765a7.493 7.493 0 0 0 5.541-6.842c.376-7.008 5.187-13.287 12.333-15.203 7.146-1.914 14.453 1.118 18.282 6.999a7.496 7.496 0 0 0 8.22 3.155l28.978-7.765a7.5 7.5 0 0 0 5.303-9.186l-8.412-31.393-135.648 20.818z" data-original="#d4d4ff" fill="#d4d4ff"/>
  <path fill="#efedff" d="M334.511 84.989 175.299 127.65l-9.641 18.112 17.403 10.866 159.213-42.661c8.002-2.144 12.751-10.369 10.607-18.371-2.144-8.001-10.368-12.75-18.37-10.607z" data-original="#efedff"/>
  <path fill="#d4d4ff" d="M174.351 143.433c-2.144-8.002 2.605-16.227 10.607-18.371L70.979 155.603c-8.002 2.144-12.751 10.369-10.607 18.371s10.369 12.751 18.371 10.607l113.977-30.54c-8.001 2.142-16.225-2.607-18.369-10.608z" data-original="#d4d4ff"/>
  <path fill="#efedff" d="M360.393 181.581 201.18 224.242l-9.641 18.112 17.403 10.866 159.213-42.661c8.002-2.144 12.751-10.369 10.607-18.371-2.144-8.001-10.368-12.749-18.369-10.607z" data-original="#efedff"/>
  <path fill="#d4d4ff" d="M200.233 240.025c-2.144-8.002 2.605-16.227 10.607-18.371L96.861 252.195c-8.002 2.144-12.751 10.369-10.607 18.371s10.369 12.751 18.371 10.607l113.977-30.54c-8.001 2.142-16.225-2.606-18.369-10.608z" data-original="#d4d4ff"/>
  <path fill="#efedff" d="m386.275 278.174-159.213 42.661-9.641 18.112 17.403 10.866 159.213-42.661c8.002-2.144 12.751-10.369 10.607-18.371-2.144-8.001-10.368-12.75-18.369-10.607z" data-original="#efedff"/>
  <path fill="#d4d4ff" d="M226.115 336.618c-2.144-8.002 2.605-16.227 10.607-18.371l-113.979 30.541c-8.002 2.144-12.751 10.369-10.607 18.371s10.369 12.751 18.371 10.607l113.977-30.54c-8.001 2.142-16.225-2.607-18.369-10.608z" data-original="#d4d4ff"/>
  <path fill="#efedff" d="m412.157 374.766-159.213 42.661-9.641 18.112 17.403 10.866 159.213-42.661c8.002-2.144 12.751-10.369 10.607-18.371-2.144-8.001-10.368-12.749-18.369-10.607z" data-original="#efedff"/>
  <path fill="#d4d4ff" d="M251.997 433.211c-2.144-8.002 2.605-16.227 10.607-18.371l-113.98 30.54c-8.002 2.144-12.751 10.369-10.607 18.371s10.369 12.751 18.371 10.607l113.977-30.54c-8 2.142-16.224-2.606-18.368-10.607z" data-original="#d4d4ff"/>
  <path fill="#efedff" d="m273.054.514-87.31 23.395-9.641 18.112 17.403 10.866 87.31-23.395c8.002-2.144 12.751-10.369 10.607-18.371C289.279 3.12 281.055-1.628 273.054.514z" data-original="#efedff"/>
  <path fill="#d4d4ff" d="M184.796 39.692c-2.144-8.002 2.605-16.227 10.607-18.371L81.965 51.716c-8.002 2.144-12.751 10.369-10.607 18.371s10.37 12.751 18.372 10.607l113.436-30.395c-8.002 2.143-16.226-2.605-18.37-10.607z" data-original="#d4d4ff"/>
</svg>
