<svg xmlns="http://www.w3.org/2000/svg" width="512" height="512" viewBox="0 0 497 497" style="enable-background:new 0 0 512 512" xml:space="preserve">
  <path fill="#fce3a0" d="M377.141 184.644h-.001c-130.188-14.983-254.027-1.69-368.352 74.604C3.281 262.923 0 269.136 0 275.756c0 5.746 2.199 11.305 6.24 15.39 20.749 20.983 30.129 49.19 25.272 77.073l-8.289 47.582c-1.961 11.256 9.631 19.947 19.923 14.986 19.98-9.632 50.464-18.114 86.725-7.734 12.029 3.443 24.768-2.778 29.15-14.498 36.402-97.37 116.509-166.627 218.12-223.911z" data-original="#fce3a0"/>
  <path fill="#ffce71" d="M492.773 236.506c-11.866-19.053-23.737-37.876-35.831-56.167 6.46-21.131 13.213-42.523 20.612-63.244 7.351-20.587-12.277-40.215-32.865-32.865-20.721 7.398-42.113 14.152-63.244 20.612-18.291-12.094-37.113-23.965-56.167-35.831-19.473-12.127-44.729 3.435-42.793 26.396 1.522 18.055 2.609 37.372 3.233 57.1-19.65 16.257-37.265 33.662-52.111 52.753-11.936 15.35-5.087 37.671 13.254 43.549 14.976 4.799 32.611 9.444 51.909 14.203 4.759 19.298 9.404 36.933 14.203 51.909 5.878 18.342 28.199 25.191 43.549 13.254 19.091-14.846 36.496-32.461 52.753-52.111 19.728.624 39.045 1.711 57.1 3.233 22.963 1.939 38.525-23.317 26.398-42.791z" data-original="#ffce71"/>
  <path fill="#ffb357" d="M444.69 84.231c-20.721 7.399-42.113 14.152-63.244 20.612-18.291-12.094-37.113-23.965-56.167-35.831-19.473-12.127-44.729 3.435-42.793 26.396 1.522 18.055 2.609 37.372 3.233 57.1-19.65 16.257-37.265 33.662-52.111 52.753-11.936 15.35-5.087 37.671 13.254 43.549 14.976 4.799 32.611 9.444 51.909 14.203 4.759 19.298 9.404 36.933 14.203 51.909 5.878 18.342 28.199 25.191 43.549 13.254-47.257-77.38-30.741-162.836 88.167-243.945z" data-original="#ffb357"/>
  <g fill="#fb8978">
    <ellipse cx="317.324" cy="138.11" rx="19.909" ry="25" transform="rotate(-45 317.322 138.177)" data-original="#ff8e9e"/>
    <ellipse cx="423.676" cy="244.461" rx="19.909" ry="25" transform="rotate(-45 423.662 244.557)" data-original="#ff8e9e"/>
  </g>
  <path d="M346.52 126.95a7.5 7.5 0 0 0-10.607 0l-8.485 8.485a7.5 7.5 0 0 0 10.607 10.607l8.485-8.485a7.501 7.501 0 0 0 0-10.607zm88.315 88.316a7.5 7.5 0 0 0-10.607 0l-8.485 8.485a7.5 7.5 0 0 0 10.607 10.607l8.485-8.485a7.5 7.5 0 0 0 0-10.607zm-38.569-19.494a7.501 7.501 0 0 0-7.996-6.969c-4.145.285-8.201-1.231-11.129-4.159s-4.444-6.984-4.159-11.129a7.501 7.501 0 0 0-14.965-1.027 29.341 29.341 0 0 0 8.517 22.763 29.335 29.335 0 0 0 22.763 8.517 7.5 7.5 0 0 0 6.969-7.996z" data-original="#313d40" fill="#313d40"/>
  <path d="M174.895 126.641a66.656 66.656 0 0 0-18.184-7.705 66.684 66.684 0 0 0-7.704-18.184c-4.155-6.79-13.884-6.79-18.039 0a66.693 66.693 0 0 0-7.705 18.185 66.656 66.656 0 0 0-18.184 7.705c-6.789 4.155-6.789 13.883 0 18.038a66.69 66.69 0 0 0 18.184 7.706 66.669 66.669 0 0 0 7.705 18.184c4.155 6.789 13.884 6.789 18.038 0a66.656 66.656 0 0 0 7.705-18.184 66.645 66.645 0 0 0 18.184-7.706c6.789-4.156 6.789-13.885 0-18.039zm109.786 239.304a50.02 50.02 0 0 0-13.638-5.778 50.026 50.026 0 0 0-5.778-13.639c-3.116-5.092-10.413-5.092-13.529 0a50.013 50.013 0 0 0-5.778 13.639 49.976 49.976 0 0 0-13.638 5.778c-5.092 3.116-5.092 10.413 0 13.529a49.991 49.991 0 0 0 13.638 5.779 50.007 50.007 0 0 0 5.778 13.638c3.117 5.092 10.413 5.092 13.529 0a49.989 49.989 0 0 0 5.778-13.638 49.978 49.978 0 0 0 13.638-5.779c5.092-3.116 5.092-10.412 0-13.529zm174.049 5.915a82.046 82.046 0 0 0-22.389-9.486 82.128 82.128 0 0 0-9.486-22.39c-5.116-8.359-17.095-8.359-22.21 0a82.099 82.099 0 0 0-9.487 22.39 82.073 82.073 0 0 0-22.389 9.486c-8.359 5.116-8.359 17.094 0 22.21a82.073 82.073 0 0 0 22.39 9.487 82.09 82.09 0 0 0 9.486 22.389c5.115 8.359 17.094 8.359 22.21 0a82.121 82.121 0 0 0 9.486-22.389 82.093 82.093 0 0 0 22.389-9.487c8.36-5.116 8.36-17.094 0-22.21z" data-original="#ffce71" fill="#ffce71"/>
  <path d="M141.007 302.96a7.5 7.5 0 0 0-7.5 7.5v5.99c0 4.142 3.357 7.5 7.5 7.5s7.5-3.358 7.5-7.5v-5.99a7.5 7.5 0 0 0-7.5-7.5zm-15.989 21.98h-5.99a7.499 7.499 0 0 0-7.5 7.5 7.5 7.5 0 0 0 7.5 7.5h5.99a7.5 7.5 0 0 0 7.5-7.5 7.5 7.5 0 0 0-7.5-7.5zm37.968 0h-5.989a7.499 7.499 0 0 0-7.5 7.5 7.5 7.5 0 0 0 7.5 7.5h5.989a7.5 7.5 0 0 0 7.5-7.5c0-4.143-3.357-7.5-7.5-7.5zm-21.979 15.989a7.5 7.5 0 0 0-7.5 7.5v5.99c0 4.142 3.357 7.5 7.5 7.5s7.5-3.358 7.5-7.5v-5.99a7.5 7.5 0 0 0-7.5-7.5z" data-original="#ffb357" fill="#ffb357"/>
</svg>
