<svg xmlns="http://www.w3.org/2000/svg" width="512" height="512" viewBox="0 0 512 512" style="enable-background:new 0 0 512 512" xml:space="preserve">
  <path fill="#fff0ce" d="M480.739 170.254c-9.077 5.203-19.596 8.17-30.806 8.17H264.676c-34.102 0-62.539-27.138-62.971-61.24-.443-34.649 27.509-62.879 62.044-62.879h.134c7.562.021 14.682-3.833 18.37-10.437a85.353 85.353 0 0 1 19.792-23.934C316.871 7.498 335.983.008 356.846.008c32.083 0 60.025 17.7 74.593 43.87 3.647 6.532 10.663 10.468 18.143 10.427h1.082c33.289.381 60.664 27.519 61.323 60.808.464 23.583-12.229 44.251-31.248 55.141z" data-original="#99b2e9"/>
  <path fill="#fce29f" d="M480.739 170.254c-9.077 5.203-19.596 8.17-30.806 8.17H264.676c-34.102 0-62.539-27.138-62.971-61.24-.443-34.649 27.509-62.879 62.044-62.879h.134c7.562.021 14.682-3.833 18.37-10.437a85.353 85.353 0 0 1 19.792-23.934c82.197 15.929 149.464 73.738 178.694 150.32z" data-original="#7293df"/>
  <path fill="#9fa3e1" d="m452.746 282.813 5.924 26.252c-21.183 81.156-89.821 143.128-174.5 154.513a211.756 211.756 0 0 1-28.168 1.875c-115.681 0-209.448-93.767-209.448-209.448S140.32 46.557 256.002 46.557c2.061 0 4.111.031 6.151.093 24.851.711 48.599 5.759 70.554 14.403l35.154 38.759 35.153 7.006c37.74 37.194 61.436 88.605 62.394 145.56z" data-original="#f1ebf9"/>
  <path fill="#8389ca" d="M284.17 463.578a211.756 211.756 0 0 1-28.168 1.875c-115.681 0-209.448-93.767-209.448-209.448S140.32 46.557 256.002 46.557c2.061 0 4.111.031 6.151.093-54.379 34.875-223.203 172.378 21.532 416.444.165.164.33.319.485.484z" data-original="#e8ddf5"/>
  <path fill="#fce29f" d="M310.287 417.514c.69 34.845-27.354 63.311-62.044 63.311H62.977c-34.103 0-62.528-27.138-62.971-61.24-.443-34.649 27.509-62.879 62.054-62.879h.134c7.562.01 14.682-3.833 18.36-10.437 14.568-26.159 42.52-43.859 74.603-43.859 32.073 0 60.014 17.7 74.593 43.859 3.637 6.542 10.653 10.478 18.133 10.437h1.082a61.022 61.022 0 0 1 18.267 2.998l8.654 9.654 10.87.865c14.001 11.158 23.15 28.21 23.531 47.291z" data-original="#7293df"/>
  <path fill="#f8d071" d="M310.287 417.514c.69 34.845-27.354 63.311-62.044 63.311h-71.574c-3.74-9.51-5.852-19.874-5.986-30.744-.618-48.218 37.132-87.503 83.752-87.503h.185c4.43.01 8.747-.989 12.611-2.875 24.501 7.965 42.521 30.868 43.056 57.811z" data-original="#4677d5"/>
  <path fill="#fff0ce" d="M511.988 448.68c.69 34.845-27.354 63.311-62.054 63.311H264.676c-23.14 0-43.674-12.487-54.616-31.166l14.352-48.424 106.975-86.977 32.537-11.56c29.075 2.39 54.028 19.37 67.515 43.581 3.647 6.542 10.653 10.478 18.143 10.437.361-.01.721-.01 1.082 0 33.289.382 60.664 27.509 61.324 60.798z" data-original="#99b2e9"/>
  <path fill="#fce29f" d="M360.947 511.991h-96.27c-34.113 0-62.539-27.128-62.971-61.23-.453-34.659 27.509-62.889 62.044-62.889h.134c7.562.021 14.682-3.822 18.36-10.426 14.579-26.17 42.53-43.87 74.603-43.87 2.38 0 4.739.093 7.078.289-23.11 24.324-76.479 95.775-2.978 178.126z" data-original="#7293df"/>
  <path fill="#8389ca" d="M465.449 256.005c0 18.329-2.359 36.112-6.779 53.06a30.909 30.909 0 0 1-8.727 1.247c-17.144 0-31.032-13.899-31.032-31.032 0-17.144 13.888-31.032 31.032-31.032a30.837 30.837 0 0 1 15.465 4.131c.031 1.205.041 2.41.041 3.626zM186.189 155.16c0 16.011-12.127 29.188-27.694 30.847a29.57 29.57 0 0 1-3.338.185c-17.144 0-31.032-13.899-31.032-31.032 0-17.144 13.888-31.032 31.032-31.032 8.984 0 17.082 3.822 22.738 9.922a30.86 30.86 0 0 1 8.294 21.11z" data-original="#e8ddf5"/>
  <path fill="#7278b9" d="M177.895 134.05c-8.521 15.444-15.413 32.763-19.4 51.958a29.57 29.57 0 0 1-3.338.185c-17.144 0-31.032-13.899-31.032-31.032 0-17.144 13.888-31.032 31.032-31.032 8.984-.001 17.082 3.821 22.738 9.921z" data-original="#d6c4ea"/>
  <path fill="#8389ca" d="M403.014 106.819c-2.926 22.893-22.481 40.583-46.167 40.583-25.706 0-46.538-20.843-46.538-46.548 0-16.866 8.974-31.64 22.398-39.8 26.499 10.426 50.36 26.107 70.307 45.765z" data-original="#e8ddf5"/>
  <ellipse cx="170.418" cy="254.13" fill="#bec2f7" rx="31.579" ry="25.148" data-original="#ffa1ac"/>
  <ellipse cx="341.585" cy="253.968" fill="#bec2f7" rx="31.579" ry="25.148" data-original="#ffa1ac"/>
  <ellipse cx="255.99" cy="242.37" fill="#495560" rx="14.127" ry="16.202" data-original="#495560"/>
  <path fill="#495560" d="M188.783 235.223a22.311 22.311 0 0 1-16.807-7.644 7.726 7.726 0 0 1 .74-10.903 7.727 7.727 0 0 1 10.903.74 6.855 6.855 0 0 0 5.165 2.353h.007a6.855 6.855 0 0 0 5.166-2.363 7.728 7.728 0 0 1 11.662 10.142 22.305 22.305 0 0 1-16.813 7.675h-.023zm134.359-.127a22.306 22.306 0 0 1-16.806-7.644 7.728 7.728 0 0 1 11.641-10.164 6.857 6.857 0 0 0 5.165 2.353h.007a6.859 6.859 0 0 0 5.167-2.363 7.728 7.728 0 0 1 11.661 10.143 22.309 22.309 0 0 1-16.813 7.675h-.022z" data-original="#495560"/>
</svg>
