<svg xmlns="http://www.w3.org/2000/svg" width="512" height="512" viewBox="0 0 512 512" style="enable-background:new 0 0 512 512" xml:space="preserve">
  <path fill="#ffa973" d="m444.632 282.979 46.856-4.434C503.116 277.444 512 267.68 512 256c0-11.68-8.884-21.444-20.512-22.545l-46.793-4.428c23.421-10.934 13.981-46.21-11.771-43.984l-.074.006 38.361-27.268c9.52-6.767 12.332-19.665 6.491-29.78-5.84-10.115-18.416-14.13-29.036-9.268l-42.738 19.561c14.817-21.179-10.997-47.01-32.186-32.206l-.061.043 19.587-42.795c4.861-10.621.847-23.196-9.268-29.036s-23.013-3.029-29.78 6.491l-27.232 38.31c2.242-25.75-33.029-35.213-43.977-11.798l-.032.068-4.434-46.856C277.444 8.884 267.68 0 256 0c-11.68 0-21.444 8.884-22.545 20.512l-4.428 46.793c-10.934-23.421-46.21-13.981-43.984 11.771l.006.074-27.269-38.361c-6.767-9.52-19.665-12.332-29.78-6.491-10.115 5.84-14.13 18.416-9.268 29.036l19.561 42.738c-21.179-14.817-47.01 10.997-32.206 32.186l.043.061-42.795-19.588c-10.621-4.861-23.196-.847-29.036 9.268s-3.029 23.013 6.491 29.78l38.31 27.232c-25.75-2.242-35.213 33.029-11.798 43.977l.068.032-46.856 4.434C8.884 234.556 0 244.32 0 256s8.884 21.444 20.512 22.545l46.793 4.428c-23.421 10.934-13.981 46.21 11.771 43.984l.074-.006-38.361 27.269c-9.52 6.767-12.332 19.665-6.491 29.78 5.84 10.115 18.416 14.13 29.036 9.268l42.738-19.561c-14.817 21.179 10.997 47.01 32.186 32.206l.061-.043-19.587 42.795c-4.861 10.621-.847 23.196 9.268 29.036s23.013 3.029 29.78-6.491l27.232-38.31c-2.242 25.75 33.029 35.213 43.977 11.798l.032-.068 4.434 46.856C234.556 503.116 244.32 512 256 512c11.68 0 21.444-8.884 22.545-20.512l4.428-46.793c10.934 23.421 46.21 13.981 43.984-11.771l-.006-.075 27.268 38.361c6.767 9.52 19.665 12.332 29.78 6.491 10.115-5.84 14.13-18.416 9.268-29.036l-19.561-42.738c21.179 14.816 47.01-10.997 32.206-32.186l-.043-.061 42.795 19.588c10.621 4.861 23.196.847 29.036-9.268s3.029-23.013-6.491-29.78l-38.31-27.232c25.75 2.242 35.213-33.029 11.798-43.977z" data-original="#ffa973"/>
  <circle cx="256" cy="256" r="144.225" fill="#fcef92" data-original="#fcef92"/>
  <path fill="#ffd883" d="M174.441 256c0-68.892 48.306-126.492 112.892-140.802A144.726 144.726 0 0 0 256 111.774c-79.653 0-144.225 64.572-144.225 144.225S176.347 400.225 256 400.225c10.762 0 21.244-1.188 31.333-3.424C222.748 382.492 174.441 324.892 174.441 256z" data-original="#ffd883"/>
  <path fill="#fb8978" d="M204.535 237.403c-.041 13.236-13.549 23.923-30.169 23.871s-30.06-10.824-30.019-24.059c.041-13.236 13.548-23.923 30.169-23.871s30.06 10.824 30.019 24.059zm102.93.323c-.041 13.235 13.398 24.007 30.018 24.059s30.127-10.635 30.169-23.871c.041-13.236-13.398-24.007-30.018-24.06-16.62-.051-30.128 10.636-30.169 23.872z" data-original="#ffa1ac"/>
  <path fill="#495560" d="M280.32 219.227c.047-14.995-10.811-16.438-24.211-16.48s-24.267 1.333-24.314 16.328c-.047 14.994 10.778 27.184 24.178 27.226s24.3-12.079 24.347-27.074zm-73.934-.396h-.024a7.5 7.5 0 0 1-7.477-7.523c.006-1.823-.699-3.539-1.983-4.832s-2.996-2.008-4.819-2.014h-.022c-3.753 0-6.812 3.047-6.823 6.802a7.501 7.501 0 0 1-7.5 7.477h-.024a7.5 7.5 0 0 1-7.477-7.523c.038-12.01 9.821-21.755 21.822-21.755h.07a21.687 21.687 0 0 1 15.412 6.44 21.679 21.679 0 0 1 6.343 15.452 7.499 7.499 0 0 1-7.498 7.476zm128.04.4h-.023a7.5 7.5 0 0 1-7.477-7.523 6.832 6.832 0 0 0-6.803-6.846h-.021a6.832 6.832 0 0 0-6.824 6.803 7.501 7.501 0 0 1-7.5 7.477h-.024a7.5 7.5 0 0 1-7.477-7.523c.038-12.01 9.822-21.756 21.823-21.756h.068c12.034.038 21.793 9.858 21.756 21.892a7.497 7.497 0 0 1-7.498 7.476z" data-original="#495560"/>
</svg>
