<svg xmlns="http://www.w3.org/2000/svg" width="512" height="512" viewBox="0 0 682.667 682.667" style="enable-background:new 0 0 512 512" xml:space="preserve">
  <defs>
    <clipPath id="a" clipPathUnits="userSpaceOnUse">
      <path d="M0 512h512V0H0Z" data-original="#000000"/>
    </clipPath>
  </defs>
  <g clip-path="url(#a)" transform="matrix(1.33333 0 0 -1.33333 0 682.667)">
    <path d="M0 0a50.02 50.02 0 0 1-13.638 5.778 49.998 49.998 0 0 1-5.779 13.639c-3.116 5.091-10.413 5.091-13.528 0a49.998 49.998 0 0 1-5.779-13.639A50.007 50.007 0 0 1-52.362 0c-2.546-1.558-3.819-4.161-3.819-6.765 0-2.603 1.273-5.206 3.819-6.764a50.054 50.054 0 0 1 13.64-5.787 49.967 49.967 0 0 1 5.777-13.63c3.115-5.092 10.412-5.092 13.528 0a49.967 49.967 0 0 1 5.777 13.63A50.054 50.054 0 0 1 0-13.529C5.092-10.413 5.092-3.116 0 0" style="fill-opacity:1;fill-rule:nonzero;stroke:none" transform="translate(480.681 337.976)" fill="#fce3a0" data-original="#fce3a0"/>
    <path d="M0 0a58.306 58.306 0 0 1-15.911 6.741 58.374 58.374 0 0 1-6.741 15.912c-3.636 5.94-12.149 5.94-15.784 0a58.376 58.376 0 0 1-6.742-15.912A58.319 58.319 0 0 1-61.089 0c-2.971-1.817-4.455-4.854-4.455-7.892 0-3.037 1.485-6.074 4.455-7.892a58.368 58.368 0 0 1 15.914-6.752 58.263 58.263 0 0 1 6.739-15.9c3.635-5.941 12.148-5.941 15.784 0a58.291 58.291 0 0 1 6.738 15.9A58.368 58.368 0 0 1 0-15.784C5.94-12.148 5.941-3.635 0 0" style="fill-opacity:1;fill-rule:nonzero;stroke:none" transform="translate(89.544 50.392)" fill="#fce3a0" data-original="#fce3a0"/>
    <path d="M0 0h-6a7.5 7.5 0 0 1 0-15h6A7.5 7.5 0 0 1 0 0" style="fill-opacity:1;fill-rule:nonzero;stroke:none" transform="translate(47.5 183)" fill="#fce3a0" data-original="#fce3a0"/>
    <path d="M0 0h-6a7.5 7.5 0 0 1 0-15h6A7.5 7.5 0 0 1 0 0" style="fill-opacity:1;fill-rule:nonzero;stroke:none" transform="translate(13.5 183)" fill="#fce3a0" data-original="#fce3a0"/>
    <path d="M0 0a7.5 7.5 0 0 1-7.5-7.5v-6a7.5 7.5 0 0 1 15 0v6A7.5 7.5 0 0 1 0 0" style="fill-opacity:1;fill-rule:nonzero;stroke:none" transform="translate(27.5 169)" fill="#fce3a0" data-original="#fce3a0"/>
    <path d="M0 0a7.5 7.5 0 0 1 7.5 7.5v6a7.5 7.5 0 0 1-15 0v-6A7.5 7.5 0 0 1 0 0" style="fill-opacity:1;fill-rule:nonzero;stroke:none" transform="translate(27.5 182)" fill="#fce3a0" data-original="#fce3a0"/>
    <path d="M0 0h-6a7.5 7.5 0 0 1 0-15h6A7.5 7.5 0 0 1 0 0" style="fill-opacity:1;fill-rule:nonzero;stroke:none" transform="translate(504.5 118.083)" fill="#fce3a0" data-original="#fce3a0"/>
    <path d="M0 0h-6a7.5 7.5 0 0 1 0-15h6A7.5 7.5 0 0 1 0 0" style="fill-opacity:1;fill-rule:nonzero;stroke:none" transform="translate(470.5 118.083)" fill="#fce3a0" data-original="#fce3a0"/>
    <path d="M0 0a7.5 7.5 0 0 1-7.5-7.5v-6a7.5 7.5 0 0 1 15 0v6A7.5 7.5 0 0 1 0 0" style="fill-opacity:1;fill-rule:nonzero;stroke:none" transform="translate(484.5 104.083)" fill="#fce3a0" data-original="#fce3a0"/>
    <path d="M0 0a7.5 7.5 0 0 1 7.5 7.5v6a7.5 7.5 0 0 1-15 0v-6A7.5 7.5 0 0 1 0 0" style="fill-opacity:1;fill-rule:nonzero;stroke:none" transform="translate(484.5 117.083)" fill="#fce3a0" data-original="#fce3a0"/>
    <path d="m0 0 7.393 7.393c8.032 8.032 8.032 21.054 0 29.086-3.857 3.857-6.024 7.877-6.024 13.333v38.73c0 5.791-2.413 11.343-4.092 16.885l-158.875.003-158.873.003c-1.679-5.545-4.093-11.098-4.093-16.891v-38.73c0-5.456-2.167-9.476-6.024-13.333-8.032-8.032-8.032-21.054 0-29.086L-323.195 0c11.639-11.64 11.639-30.511 0-42.151-11.64-11.639-11.64-30.511 0-42.15a92.718 92.718 0 0 1 65.562-27.157h192.07A92.723 92.723 0 0 1 0-84.301c11.639 11.639 11.639 30.511 0 42.15C-11.64-30.511-11.64-11.64 0 0" style="fill-opacity:1;fill-rule:nonzero;stroke:none" transform="translate(417.598 158.962)" fill="#fb8978" data-original="#ffb39d"/>
    <path d="M0 0c-1.679-5.544-4.093-11.098-4.093-16.891v-38.73c0-5.455-2.167-9.475-6.024-13.333-8.032-8.031-8.032-21.054 0-29.086l7.392-7.393c11.64-11.639 11.64-30.51 0-42.15-11.639-11.64-11.639-30.511 0-42.151a92.723 92.723 0 0 1 65.563-27.157h96.035V-.003Z" style="fill-opacity:1;fill-rule:nonzero;stroke:none" transform="translate(97.127 264.395)" fill="#f67661" data-original="#ff8f71"/>
    <path d="M0 0c-11.149 14-26.969 24.063-45.052 27.752A76.815 76.815 0 0 1-60.438 29.3c-24.412 0-46.219-11.449-60.435-29.3-10.669-13.396-17.064-30.397-17.064-48.879V-60.7h155v11.821C17.063-30.397 10.669-13.397 0 0" style="fill-opacity:1;fill-rule:nonzero;stroke:none" transform="translate(316.437 68.2)" fill="#9fa3e1" data-original="#c9aaf2"/>
    <path d="M0 0a76.885 76.885 0 0 1-15.385 1.548c-24.412 0-46.22-11.449-60.436-29.3-10.669-13.397-17.063-30.398-17.063-48.88v-11.82h30.795v11.82C-62.089-38.896-35.364-7.226 0 0" style="fill-opacity:1;fill-rule:nonzero;stroke:none" transform="translate(271.384 95.952)" fill="#8389ca" data-original="#b28ae4"/>
    <path d="m0 0-14.976 5.043h-75.75L-105.703 0c-9.292-3.129-11.715-15.142-4.364-21.629l29.981-26.459v-3.263a14 14 0 0 1 7.087-12.174l20.147-11.44h.001l20.147 11.44a14.001 14.001 0 0 1 7.088 12.174v3.263L4.365-21.629C11.716-15.142 9.292-3.129 0 0" style="fill-opacity:1;fill-rule:nonzero;stroke:none" transform="translate(308.852 82.465)" fill="#8389ca" data-original="#b28ae4"/>
    <path d="m0 0-37.875-31.859A58.538 58.538 0 0 1 0-75a58.538 58.538 0 0 1 37.875 43.141z" style="fill-opacity:1;fill-rule:nonzero;stroke:none" transform="translate(256 119.368)" fill="#ffbd86" data-original="#ffcbbe"/>
    <path d="M0 0h-290c-19.33 0-35-15.67-35-35s15.67-35 35-35H0c19.33 0 35 15.67 35 35S19.33 0 0 0" style="fill-opacity:1;fill-rule:nonzero;stroke:none" transform="translate(401 262.5)" fill="#ffbd86" data-original="#ffcbbe"/>
    <path d="M0 0a145.912 145.912 0 0 1-48.294 0c-68.586-11.499-120.853-71.134-120.853-142.987s52.267-131.489 120.853-142.987a145.903 145.903 0 0 1 48.294 0c68.586 11.498 120.853 71.134 120.853 142.987S68.586-11.499 0 0" style="fill-opacity:1;fill-rule:nonzero;stroke:none" transform="translate(280.147 370.487)" fill="#fed2a4" data-original="#ffddcf"/>
    <path d="M0 0c0 71.98 52.361 131.723 121.048 143.189a145.912 145.912 0 0 1-48.294 0C4.168 131.69-48.099 72.055-48.099.202S4.168-131.287 72.754-142.785a145.903 145.903 0 0 1 48.294 0C52.361-131.319 0-71.978 0 0" style="fill-opacity:1;fill-rule:nonzero;stroke:none" transform="translate(159.1 227.298)" fill="#ffbd86" data-original="#ffcbbe"/>
    <path d="M0 0c0-12.703-12.984-23-29-23S-58-12.703-58 0s12.984 23 29 23S0 12.703 0 0" style="fill-opacity:1;fill-rule:nonzero;stroke:none" transform="translate(205 180.5)" fill="#fb8978" data-original="#ff8e9e"/>
    <path d="M0 0c0-12.703 12.984-23 29-23S58-12.703 58 0 45.016 23 29 23 0 12.703 0 0" style="fill-opacity:1;fill-rule:nonzero;stroke:none" transform="translate(307 180.5)" fill="#fb8978" data-original="#ff8e9e"/>
    <path d="M0 0a7.5 7.5 0 0 1-7.5-7.5v-12a7.5 7.5 0 0 1 15 0v12A7.5 7.5 0 0 1 0 0" style="fill-opacity:1;fill-rule:nonzero;stroke:none" transform="translate(193.551 222)" fill="#313d40" data-original="#313d40"/>
    <path d="M0 0a7.5 7.5 0 0 1-7.5-7.5v-12a7.5 7.5 0 0 1 15 0v12A7.5 7.5 0 0 1 0 0" style="fill-opacity:1;fill-rule:nonzero;stroke:none" transform="translate(318.449 222)" fill="#313d40" data-original="#313d40"/>
    <path d="M0 0a7.5 7.5 0 0 1-10.582-.726 14.34 14.34 0 0 0-10.81-4.928A14.342 14.342 0 0 0-32.203-.726 7.498 7.498 0 0 1-42.784 0a7.5 7.5 0 0 1-.726-10.582 29.338 29.338 0 0 1 22.118-10.072A29.338 29.338 0 0 1 .726-10.582 7.5 7.5 0 0 1 0 0" style="fill-opacity:1;fill-rule:nonzero;stroke:none" transform="translate(277.392 209.014)" fill="#313d40" data-original="#313d40"/>
    <path d="M0 0c-8.482 28.005-23.318 52.974-42.695 72.982-21.722 22.431-49.155 38.622-79.75 45.876a157.713 157.713 0 0 1-36.43 4.252c-45.167 0-86.144-19.098-116.191-50.131-19.372-20.005-34.201-44.975-42.682-72.974l18.126-1.895a145.358 145.358 0 0 1-4.253-34.999A173.57 173.57 0 0 1-255.6-30.02a173.654 173.654 0 0 1 47.612 22.093c19.802 13.134 36.447 29.91 49.113 49.343 12.667-19.433 29.312-36.209 49.114-49.343 28.53-18.924 61.684-28.935 95.886-28.961 0 12.075-1.476 23.794-4.252 34.998z" style="fill-opacity:1;fill-rule:nonzero;stroke:none" transform="translate(414.875 264.39)" fill="#fb8978" data-original="#ffb39d"/>
    <path d="M0 0c11.496 3.565 22.076 9.518 31.242 17.26a157.657 157.657 0 0 1-36.429 4.253c-45.168 0-86.145-19.099-116.192-50.131-19.372-20.006-34.201-44.975-42.682-72.974l18.126-1.895a145.364 145.364 0 0 1-4.252-34.999 173.495 173.495 0 0 1 48.274 6.869C-98.935-69.532-56.983-17.671 0 0" style="fill-opacity:1;fill-rule:nonzero;stroke:none" transform="translate(261.188 365.987)" fill="#f67661" data-original="#ff8f71"/>
    <path d="M0 0a273.951 273.951 0 0 1-52.436 12.567 276.065 276.065 0 0 1-37.682 2.586c-10.646 0-15.834-12.999-8.113-20.328l47.198-44.807a30.002 30.002 0 0 0 8.71-27.9l-20.139-96.271c28.162 20.725 59.55 36.596 93.749 47.351a336.28 336.28 0 0 0 12.32 3.612c27.642 7.537 55.655 11.32 83.774 11.32 4.742 0 9.486-.12 14.231-.335a274.675 274.675 0 0 1-58.795 66.098A273.717 273.717 0 0 1 0 0" style="fill-opacity:1;fill-rule:nonzero;stroke:none" transform="translate(180.644 489.347)" fill="#9fa3e1" data-original="#c9aaf2"/>
    <path d="M0 0c-8.54 10.68-6.972 26.225 3.536 34.976A273.951 273.951 0 0 1-48.9 47.543a276.09 276.09 0 0 1-37.728 2.586c-10.621-.002-15.77-13.015-8.067-20.328l47.198-44.807a30 30 0 0 0 8.709-27.9l-20.138-96.271c28.161 20.725 59.55 36.596 93.748 47.351a334.365 334.365 0 0 0 12.321 3.612A273.767 273.767 0 0 1 0 0" style="fill-opacity:1;fill-rule:nonzero;stroke:none" transform="translate(177.108 454.37)" fill="#8389ca" data-original="#b28ae4"/>
    <path d="M0 0a385.476 385.476 0 0 1-68.384-14.16c-1.239-.376-2.483-.732-3.718-1.12a388.837 388.837 0 0 1-54.106-21.6l-19.071-91.166c28.162 20.725 59.55 36.596 93.749 47.351a332.376 332.376 0 0 0 12.32 3.612c27.642 7.537 55.655 11.32 83.774 11.32 4.742 0 9.486-.119 14.231-.334A274.611 274.611 0 0 1 0 0" style="fill-opacity:1;fill-rule:nonzero;stroke:none" transform="translate(263.46 443.24)" fill="#fce29f" data-original="#b0ebd8"/>
    <path d="M0 0a388.664 388.664 0 0 1-54.106-21.6l-19.071-91.166c28.161 20.725 59.55 36.597 93.748 47.351a332.424 332.424 0 0 0 12.321 3.612A273.808 273.808 0 0 1 3.717 1.12C2.479.744 1.235.388 0 0" style="fill-opacity:1;fill-rule:nonzero;stroke:none" transform="translate(191.36 427.959)" fill="#f8d071" data-original="#5fd9b3"/>
    <path d="M0 0c7.319-3.817 16.276-2.553 22.208 3.188 33.084 32.017 73.406 56.137 118.604 70.351 45.117 14.188 91.897 17.5 137.273 10.232 8.134-1.302 16.182 2.782 19.992 10.086 6.098 11.694-1.142 25.872-14.178 27.872-10.941 1.679-22.005 2.817-33.158 3.474-39.964 2.354-81.041-2.145-121.5-14.868-40.58-12.762-77.004-32.55-108.492-57.459a345.125 345.125 0 0 1-25.14-21.919C-13.884 21.826-11.679 6.091 0 0" style="fill-opacity:1;fill-rule:nonzero;stroke:none" transform="translate(77.118 269.927)" fill="#8389ca" data-original="#b28ae4"/>
  </g>
</svg>
