<svg xmlns="http://www.w3.org/2000/svg" width="512" height="512" viewBox="0 0 512 512" style="enable-background:new 0 0 512 512" xml:space="preserve">
  <path fill="#f8d071" d="M468.649 366.615c-8.394-8.948-12.049-21.483-8.834-33.323a45.355 45.355 0 0 0 1.582-11.899c0-25.153-20.58-45.733-45.733-45.733H97.846c-25.153 0-45.733 20.58-45.733 45.733 0 3.733.454 7.365 1.309 10.844 2.95 12.003-.543 24.61-9.175 33.457-11.571 11.86-18.727 28.043-18.727 45.821 0 36.159 29.585 65.744 65.744 65.744h329.473c36.159 0 65.744-29.585 65.744-65.744 0-17.318-6.787-33.127-17.832-44.9z" data-original="#feb237"/>
  <path fill="#ffbd86" d="M414.662 475.547c-8.465-33.122-27.029-62.201-52.218-83.766l-30.272 10.866-13.523-37.756c-19.297-7.997-40.45-12.417-62.638-12.417-19.036 0-37.312 3.25-54.307 9.223l-23.656 37.606-28.002-7.917c-25.426 21.605-44.17 50.837-52.687 84.163C92.642 494.007 106.437 512 125.491 512h21.923l36.809-17.496L238.814 512h34.936l60.481-25.73L365.149 512h21.382c19.053 0 32.849-17.993 28.131-36.453z" data-original="#efc19e"/>
  <path fill="#f67661" d="M150.046 391.385c3.234 16.851 5.015 35.125 5.015 54.232 0 23.798-2.749 46.319-7.648 66.384h91.4c-26.56-39.28-42.729-91.228-42.74-148.202a163.647 163.647 0 0 0-46.027 27.586zm212.398.396a163.691 163.691 0 0 0-45.957-27.774c-.05 56.893-16.211 108.762-42.738 147.993h91.4c-4.899-20.065-7.648-42.586-7.648-66.384 0-18.958 1.758-37.093 4.943-53.835z" data-original="#f3eae6"/>
  <path fill="#fce29f" d="M313.178 2.567c-17.08-5.34-35.351-2.128-50.387 7.576-2.343 1.512-4.963 2.358-7.729 2.358-2.765 0-5.385-.846-7.729-2.358-15.036-9.704-33.307-12.916-50.387-7.576-79.04 24.711-136.403 98.488-136.403 185.673 0 23.832 4.294 46.659 12.137 67.76h364.763c7.843-21.101 12.137-43.928 12.137-67.76.001-87.185-57.361-160.962-136.402-185.673z" data-original="#ffd15b"/>
  <path fill="#f8d071" d="M60.543 188.24c0 23.832 4.294 46.659 12.137 67.76h96.092V127.611C148.726 93.89 143.996 28.545 196.947 2.567 117.906 27.278 60.543 101.055 60.543 188.24z" data-original="#feb237"/>
  <circle cx="95.813" cy="249.518" r="43.134" fill="#ffbd86" data-original="#efc19e"/>
  <circle cx="416.291" cy="249.518" r="43.134" fill="#ffbd86" data-original="#fcd5b3"/>
  <path fill="#fed2a4" d="M331.996 172.372c-5.962-4.314-14.475-1.606-16.549 5.455-1.209 4.115-3.226 7.681-6.104 10.559-18.315 18.314-64.385 1.938-102.901-36.579-6.81-6.81-12.923-13.855-18.276-20.941-5.719-7.572-17.131-7.572-22.851 0-5.353 7.086-11.466 14.132-18.276 20.941-7.96 7.96-16.242 14.971-24.536 20.925-11.82 8.487-19.954 21.27-22.422 35.611a158.951 158.951 0 0 0-2.293 27.253c.162 89.124 74.923 161.013 163.99 157.815 84.701-3.041 152.433-72.665 152.433-158.108 0-7.359-.505-14.601-1.479-21.692-1.438-10.464-10.522-18.202-21.077-17.782-16.324.65-38.047-7.821-59.659-23.457z" data-original="#ffe3cb"/>
  <path fill="#ffbd86" d="M153.497 204.323c0-27.182 5.44-53.092 15.275-76.712a14.25 14.25 0 0 0-3.457 3.255c-5.353 7.086-11.466 14.132-18.276 20.941-7.96 7.96-16.242 14.97-24.535 20.925-11.82 8.487-19.954 21.27-22.422 35.611a158.951 158.951 0 0 0-2.293 27.253c.162 89.124 74.923 161.013 163.99 157.815a158.757 158.757 0 0 0 20.991-2.163c-75.537-28.483-129.273-101.423-129.273-186.925z" data-original="#fcd5b3"/>
  <ellipse cx="172.188" cy="274.453" fill="#fb8978" rx="30.925" ry="24.627" data-original="#ffa1ac"/>
  <ellipse cx="339.812" cy="274.453" fill="#fb8978" rx="30.925" ry="24.627" data-original="#ffa1ac"/>
  <path fill="#606060" d="M256 279.472a28.209 28.209 0 0 1-21.268-9.686 7.5 7.5 0 0 1 11.308-9.856c2.515 2.886 6.146 4.541 9.96 4.541s7.445-1.655 9.961-4.542a7.5 7.5 0 0 1 11.307 9.856A28.21 28.21 0 0 1 256 279.472zm-69.11-23.25a31.668 31.668 0 0 1-23.875-10.873 7.5 7.5 0 0 1 11.309-9.855c3.172 3.641 7.752 5.729 12.566 5.729s9.394-2.088 12.566-5.729a7.501 7.501 0 0 1 11.309 9.855 31.67 31.67 0 0 1-23.875 10.873zm138.219 0a31.662 31.662 0 0 1-23.874-10.874 7.499 7.499 0 0 1 .728-10.582 7.5 7.5 0 0 1 10.581.727c3.172 3.64 7.752 5.728 12.565 5.728s9.394-2.088 12.566-5.729a7.501 7.501 0 0 1 11.309 9.856 31.664 31.664 0 0 1-23.875 10.874z" data-original="#606060"/>
  <path fill="#f67661" d="M11.047 74.5c.626-7.155 8.173-11.513 14.682-8.477 41.401 19.305 62.849 56.455 58.867 101.961-.626 7.155-8.173 11.513-14.683 8.477C28.514 157.156 7.066 120.007 11.047 74.5z" data-original="#fe5694"/>
  <path fill="#fb8978" d="M68.848 32.07c4.914-6.958 15.256-6.826 20.119.255 30.933 45.039 30.75 96.217-.504 140.465-4.914 6.958-15.256 6.826-20.119-.256-30.933-45.037-30.749-96.215.504-140.464z" data-original="#fe76a8"/>
  <path fill="#f67661" d="M500.953 74.5c-.626-7.155-8.173-11.513-14.682-8.477-41.401 19.305-62.849 56.455-58.867 101.961.626 7.155 8.173 11.513 14.683 8.477 41.399-19.305 62.847-56.454 58.866-101.961z" data-original="#fe5694"/>
  <path fill="#fb8978" d="M443.152 32.07c-4.914-6.958-15.256-6.826-20.119.255-30.933 45.039-30.75 96.217.504 140.465 4.914 6.958 15.256 6.826 20.119-.256 30.933-45.037 30.749-96.215-.504-140.464z" data-original="#fe76a8"/>
  <path fill="#fb8978" d="M292.11 167.715a78.489 78.489 0 0 1-27.214-27.214c-1.875-3.144-5.236-5.097-8.896-5.097-3.66 0-7.021 1.954-8.896 5.097a78.489 78.489 0 0 1-27.214 27.214c-3.144 1.875-5.097 5.236-5.097 8.896 0 3.66 1.954 7.021 5.097 8.896a78.489 78.489 0 0 1 27.214 27.214c1.875 3.144 5.236 5.097 8.896 5.097 3.66 0 7.021-1.954 8.896-5.097a78.489 78.489 0 0 1 27.214-27.214c3.144-1.875 5.098-5.236 5.097-8.896 0-3.661-1.953-7.022-5.097-8.896z" data-original="#cb97e7"/>
  <path fill="#f67661" d="M261.097 185.507c-3.144-1.875-5.097-5.236-5.097-8.896 0-3.66 1.954-7.021 5.097-8.896a78.431 78.431 0 0 0 15.506-12.132 78.483 78.483 0 0 1-11.708-15.083c-1.875-3.144-5.236-5.097-8.896-5.097s-7.021 1.954-8.896 5.097a78.472 78.472 0 0 1-27.214 27.214c-3.144 1.875-5.097 5.236-5.097 8.896 0 3.66 1.954 7.022 5.097 8.896a78.489 78.489 0 0 1 27.214 27.214c1.875 3.144 5.236 5.097 8.896 5.097 3.66 0 7.021-1.954 8.896-5.097a78.446 78.446 0 0 1 11.708-15.082 78.435 78.435 0 0 0-15.506-12.131z" data-original="#b17dd3"/>
</svg>
