<svg xmlns="http://www.w3.org/2000/svg" width="512" height="512" viewBox="0 0 512 512.001" style="enable-background:new 0 0 512 512" xml:space="preserve">
  <path fill="#ebebeb" d="m285.695 359.137 18.547 76.433L285.695 512H228.68l-18.543-76.43 18.543-76.433zm0 0" data-original="#ebebeb"/>
  <path fill="#fed2a4" d="M136.605 451.469c-10.18 15.96-23.882 34.804-45.57 23.36-20.058-10.572-15.535-32.599-6.191-50.818l34.8-2.5zm241.168 0c10.176 15.96 23.88 34.804 45.567 23.36 20.062-10.571 15.539-32.599 6.195-50.817l-34.805-2.5zm0 0" data-original="#ffd3bc"/>
  <path fill="#f67661" d="m168.895 359.137-5.977 92.336h-26.313l-51.761-27.457c3.82-7.473 8.457-14.301 12.547-19.454 17.785-22.378 43.695-38.812 71.504-45.425zm176.589 0 5.973 92.336h26.316l51.762-27.457c-3.824-7.473-8.46-14.301-12.55-19.454-17.782-22.378-43.696-38.812-71.5-45.425zm0 0" data-original="#f9496e"/>
  <path fill="#f36b55" d="M379.984 372.918c-10.812-6.219-22.476-10.922-34.5-13.781l2.204 34.086a202.532 202.532 0 0 0 25.269-15.133 200.724 200.724 0 0 0 7.027-5.172zm0 0" data-original="#e3254c"/>
  <path fill="#fb8978" d="M345.484 359.137h-22.699l-18.543 76.433L322.785 512h48.317c6.34 0 11.457-5.23 11.277-11.57-2.668-93.36-36.895-141.293-36.895-141.293zm0 0" data-original="#ff889e"/>
  <path fill="#f36b55" d="m166.688 393.223 2.207-34.086c-12.028 2.86-23.692 7.566-34.504 13.781a208.352 208.352 0 0 0 7.027 5.172 202.816 202.816 0 0 0 25.27 15.133zm0 0" data-original="#e3254c"/>
  <path fill="#fb8978" d="M191.59 359.137h-22.695S134.665 407.07 132 500.434c-.184 6.336 4.934 11.566 11.273 11.566h48.317l18.547-76.43zm0 0" data-original="#ff889e"/>
  <path fill="#f67661" d="M191.59 359.137h-22.695s-6.602 9.242-14.227 27.511a199.896 199.896 0 0 0 48.629 20.727zm0 0" data-original="#f9496e"/>
  <path fill="#d5d4da" d="M216.219 410.492a202.4 202.4 0 0 0 40.969 4.176c13.894 0 27.601-1.414 40.968-4.176L285.7 359.137h-57.015zm0 0" data-original="#d5d4da"/>
  <path fill="#fce29f" d="M191.59 359.137h37.09V512h-37.09zm0 0" data-original="#f5e277"/>
  <path fill="#f67661" d="M311.082 407.375a199.961 199.961 0 0 0 48.629-20.727c-7.629-18.265-14.227-27.511-14.227-27.511h-22.699zm0 0" data-original="#f9496e"/>
  <path fill="#fce29f" d="M285.695 359.137h37.09V512h-37.09zm0 0" data-original="#f5e277"/>
  <path fill="#ffbd86" d="M439.375 201.918c0 18.16-14.723 32.883-32.883 32.883-18.16 0-32.883-14.723-32.883-32.883 0-18.16 14.723-32.883 32.883-32.883 18.16 0 32.883 14.723 32.883 32.883zm-298.609 0c0 18.16-14.723 32.883-32.883 32.883C89.723 234.8 75 220.078 75 201.918c0-18.16 14.723-32.883 32.883-32.883 18.16 0 32.883 14.723 32.883 32.883zm0 0" data-original="#ffbe9c"/>
  <path fill="#fce29f" d="M394.957 10.285 380.152 21.27a10.958 10.958 0 0 1-13.054 0L341.34 2.156a10.958 10.958 0 0 0-13.055 0L302.527 21.27a10.958 10.958 0 0 1-13.054 0L263.715 2.156a10.958 10.958 0 0 0-13.055 0L224.902 21.27a10.958 10.958 0 0 1-13.054 0L186.09 2.156a10.958 10.958 0 0 0-13.055 0L147.277 21.27a10.958 10.958 0 0 1-13.054 0l-14.805-10.985c-7.227-5.363-17.48-.203-17.48 8.797v94.176l155.25 17.629 155.25-17.63V19.083c0-9-10.254-14.16-17.481-8.797zm0 0" data-original="#f5e277"/>
  <path d="M132.844 113.258V20.246l-13.426-9.96c-7.227-5.364-17.48-.204-17.48 8.8v94.172l155.25 17.629 15.453-1.754zM285.695 412.66a199.81 199.81 0 0 0 37.09-8.922v-44.601h-37.09zm-57.015 0v-53.523h-37.09v44.601a200.27 200.27 0 0 0 37.09 8.922zm0 0" fill="#f8d071" data-original="#f0bc63"/>
  <path fill="#df8956" d="m414.86 263.926-8.79-8.79a13.652 13.652 0 0 1-3.734-12.394 148.865 148.865 0 0 0 3.016-29.887c0-23.054-5.27-44.878-14.664-64.335l-133.5-17.633-133.5 17.633c-9.395 19.457-14.66 41.28-14.66 64.335 0 10.239 1.038 20.23 3.015 29.883a13.652 13.652 0 0 1-3.734 12.395l-8.793 8.793c-2.528 2.527-3.368 6.308-2.094 9.648 24.539 64.352 86.902 110.192 159.766 110.192 72.867 0 135.226-45.836 159.765-110.188 1.274-3.344.434-7.125-2.094-9.652zm0 0" data-original="#e3986d"/>
  <path fill="#d57b42" d="M398.773 169.121a146.64 146.64 0 0 0-8.086-20.601l-133.5-17.633-133.5 17.633a147.119 147.119 0 0 0-8.085 20.601zm0 0" data-original="#d97c40"/>
  <path fill="#fed2a4" d="M358.078 148.52c7.04 5.203 11.242 12.367 13.7 19.761 5.648 17.02 1.902 35.781-9.34 49.754-38.383 47.711-43.422-6.828-105.25-6.828s-66.864 54.54-105.247 6.828c-11.242-13.972-14.988-32.734-9.34-49.754 2.454-7.394 6.657-14.558 13.7-19.761l100.886-17.633zm0 0" data-original="#ffd3bc"/>
  <path fill="#ffbd86" d="M257.188 130.887 156.3 148.52c-7.043 5.203-11.246 12.367-13.7 19.761-.093.281-.163.563-.25.84h229.676c-.09-.277-.156-.562-.25-.84-2.453-7.394-6.66-14.558-13.699-19.761zm0 0" data-original="#ffbe9c"/>
  <path fill="#f8d071" d="M412.438 113.258h-310.5c-9.739 0-17.633 7.89-17.633 17.629s7.894 17.633 17.633 17.633h310.5c9.738 0 17.632-7.895 17.632-17.633s-7.894-17.63-17.632-17.63zm0 0" data-original="#f0bc63"/>
  <path fill="#f5c555" d="M115.21 130.887c0-9.739 7.895-17.63 17.634-17.63h-30.907c-9.738 0-17.632 7.891-17.632 17.63s7.894 17.633 17.633 17.633h30.906c-9.739 0-17.633-7.895-17.633-17.633zm0 0" data-original="#f59e18"/>
  <path fill="#3d4851" d="M327.059 209.441a7.729 7.729 0 0 1-7.727-7.726v-14.621c0-4.266 3.461-7.727 7.727-7.727s7.726 3.461 7.726 7.727v14.62a7.729 7.729 0 0 1-7.726 7.727zm-139.743 0a7.729 7.729 0 0 1-7.726-7.726v-14.621a7.726 7.726 0 1 1 15.453 0v14.62a7.726 7.726 0 0 1-7.727 7.727zm0 0" data-original="#3d4851"/>
  <path fill="#333a41" d="M257.188 251.426c-6.844 0-13.278-2.871-17.657-7.88a7.725 7.725 0 1 1 11.633-10.168c1.445 1.65 3.64 2.595 6.024 2.595 2.386 0 4.578-.946 6.023-2.594a7.725 7.725 0 0 1 10.902-.734 7.724 7.724 0 0 1 .73 10.902c-4.374 5.008-10.812 7.879-17.655 7.879zm0 0" data-original="#333a41"/>
  <path fill="#f67661" d="M257.188 43.703c-8.344 0-15.11 6.766-15.11 15.11v11.199c0 8.347 6.766 15.113 15.11 15.113 8.347 0 15.109-6.766 15.109-15.113v-11.2c0-8.343-6.762-15.109-15.11-15.109zm0 0" data-original="#f9496e"/>
  <path fill="#fb8978" d="M168.496 43.703c-8.348 0-15.11 6.766-15.11 15.11v11.199c0 8.347 6.762 15.113 15.11 15.113 8.344 0 15.11-6.766 15.11-15.113v-11.2c0-8.343-6.766-15.109-15.11-15.109zm177.383 0c8.348 0 15.113 6.766 15.113 15.11v11.199c0 8.347-6.765 15.113-15.113 15.113-8.344 0-15.11-6.766-15.11-15.113v-11.2c0-8.343 6.766-15.109 15.11-15.109zm0 0" data-original="#ff889e"/>
</svg>
