<svg xmlns="http://www.w3.org/2000/svg" width="512" height="512" viewBox="0 0 512 512" style="enable-background:new 0 0 512 512" xml:space="preserve">
  <path fill="#8389ca" d="M438.692 229.658v160.234c0 29.391-23.828 53.219-53.219 53.219H277.84c-52.457-63.222-79.932-138.611-85.526-213.454h246.378z" data-original="#5f7080"/>
  <path fill="#747ab9" d="M277.84 443.112H126.527c-29.391 0-53.219-23.828-53.219-53.219V229.658h119.007c5.593 74.843 33.068 150.232 85.525 213.454z" data-original="#546370"/>
  <path fill="#9fa3e1" d="M384.402 475.614v13.794c0 12.475-10.116 22.592-22.592 22.592h-9.261c-78.753-26.461-125.505-98.931-127.217-152.704h85.093c43.7 20.48 73.977 64.86 73.977 116.318z" data-original="#77899b"/>
  <path fill="#8389ca" d="M352.549 512H150.19c-12.475 0-22.592-10.116-22.592-22.592v-13.794c0-51.457 30.277-95.838 73.977-116.318h23.756C251.57 417.017 293.416 470.195 352.549 512z" data-original="#5f7080"/>
  <path fill="#fce29f" d="m335.55 376.29-62.6 60.81c-6.306-1.452-9.993-6.009-9.15-12.01l61.3-59.55c2.97-2.89 7.72-2.82 10.61.15 2.88 2.97 2.81 7.72-.16 10.6z" data-original="#f9ee80"/>
  <path fill="#f8d071" d="M277.91 462.13c0 4.15-3.35 7.5-7.5 7.5h-6.91v14.72c0 4.14-3.36 7.5-7.5 7.5s-7.5-3.36-7.5-7.5v-14.72h-6.91a7.49 7.49 0 0 1-7.5-7.5c0-4.14 3.35-7.5 7.5-7.5h6.91v-8.34l-72.05-70c-2.98-2.88-3.04-7.63-.16-10.6 2.89-2.97 7.64-3.04 10.61-.15l69.1 67.12 7.8-7.57c2.95 4.05 6.01 8.05 9.15 12.01l-9.45 9.18v8.35h6.91c4.15 0 7.5 3.36 7.5 7.5z" data-original="#f9d171"/>
  <circle cx="411.096" cy="213.214" r="37.635" fill="#ffbd86" data-original="#ffcbbe"/>
  <circle cx="100.904" cy="213.214" r="37.635" fill="#ffbd86" data-original="#ffcbbe"/>
  <path fill="#fed2a4" d="M410.208 191.284s-1.947 124.147-150.252 124.147c-20.109 0-37.653-1.968-52.972-5.408-45.215-73.878-45.215-178.757 10.374-247.635A156.116 156.116 0 0 1 256 57.556c78.551 0 143.504 58.133 154.208 133.728z" data-original="#ffddcf"/>
  <path fill="#ffbd86" d="M206.984 310.023c-106.377-23.88-105.192-118.739-105.192-118.739 8.89-62.759 55.156-113.474 115.566-128.896-30.081 75.306-35.057 164.066-10.374 247.635z" data-original="#ffcbbe"/>
  <path fill="#df8956" d="M411.763 213.309c0 100.185-69.733 192.304-155.763 192.304-1.885 0-3.76-.041-5.625-.134-42.632-34.654-54.66-82.363-50.056-121.317.608.211 1.283.349 1.905.343 2.781 0 5.202-2.277 5.202-5.233 0-12.043 9.766-21.809 21.809-21.809h53.528a21.759 21.759 0 0 1 15.422 6.387 21.735 21.735 0 0 1 6.387 15.422c0 3.451 3.297 5.985 6.624 5.038 52.168-14.876 90.955-50.232 99.011-93.025a156.83 156.83 0 0 1 1.556 22.024z" data-original="#eaaa83"/>
  <path fill="#d57b42" d="M250.375 405.479c-83.424-3.904-150.139-94.179-150.139-192.17 0-7.469.536-14.824 1.556-22.025 8.035 42.66 46.596 77.93 98.527 92.878 9.272 42.021 25.785 83.221 50.056 121.317z" data-original="#df8a57"/>
  <path fill="#495560" d="M188.503 250.129a7.5 7.5 0 0 1-7.5-7.5v-12.97c0-4.143 3.358-7.5 7.5-7.5s7.5 3.357 7.5 7.5v12.97a7.5 7.5 0 0 1-7.5 7.5zm134.994 0a7.5 7.5 0 0 1-7.5-7.5v-12.97c0-4.143 3.358-7.5 7.5-7.5s7.5 3.357 7.5 7.5v12.97a7.5 7.5 0 0 1-7.5 7.5zM256 305.951a31.102 31.102 0 0 1-23.449-10.679 7.5 7.5 0 0 1 11.309-9.855c3.065 3.518 7.49 5.534 12.141 5.534s9.076-2.018 12.142-5.534a7.5 7.5 0 1 1 11.308 9.855A31.106 31.106 0 0 1 256 305.951z" data-original="#495560"/>
  <path fill="#9fa3e1" d="M438.692 64.551v123.086S373.461 155.475 256 155.475c-22.685 0-43.577 1.277-62.481 3.317C177.795 104.68 198.67 32.308 250.231 0h123.92c35.645 0 64.541 28.897 64.541 64.551z" data-original="#77899b"/>
  <path fill="#8389ca" d="M250.231 0c-30.957 45.843-50.376 100.875-56.712 158.792-76.13 8.211-120.212 28.845-120.212 28.845V64.551C73.308 28.897 102.204 0 137.849 0z" data-original="#5f7080"/>
</svg>
