<svg xmlns="http://www.w3.org/2000/svg" width="512" height="512" viewBox="0 0 512 512" style="enable-background:new 0 0 512 512" xml:space="preserve">
  <path fill="#fb8978" d="M447.989 109.37C448.525 50.007 403.186-.173 343.837 0 307.033 0 274.559 19.094 256 47.903 237.441 19.094 205.262 0 168.457 0c-57.592 0-101.79 46.766-104.28 104.333-3.92 90.657 139.533 185.487 180.838 210.576a20.988 20.988 0 0 0 21.809.003c40.435-24.578 180.358-116.151 181.165-205.542z" data-original="#e26e7e"/>
  <path fill="#f67661" d="M113.619 104.334c2.12-49.021 34.5-90.214 79.623-101.364A104.213 104.213 0 0 0 168.457 0C110.865 0 66.667 46.766 64.178 104.334c-3.92 90.657 139.533 185.487 180.838 210.576a20.985 20.985 0 0 0 21.796.011 681.359 681.359 0 0 0 13.844-8.651c-52.652-33.864-170.596-119.618-167.037-201.936z" data-original="#de5c6e"/>
  <path fill="#fff0ce" d="m248.473 145.922-53.809-23.227v71.236l53.809-23.227c10.862-4.69 10.862-20.093 0-24.782z" data-original="#f7ef87"/>
  <path fill="#f8d071" d="M76.825 490.7v-86.491h43.885V490.7c0 11.763-9.536 21.3-21.3 21.3h-1.286c-11.762 0-21.299-9.536-21.299-21.3z" data-original="#bae1f6"/>
  <path fill="#fce29f" d="M32.941 473.312v-86.491h43.885v86.491c0 11.763-9.536 21.3-21.3 21.3H54.24c-11.763 0-21.299-9.536-21.299-21.3zm87.767 0v-86.491h43.885v86.491c0 11.763-9.536 21.3-21.3 21.3h-1.286c-11.763 0-21.299-9.536-21.299-21.3z" data-original="#ceeafb"/>
  <path fill="#fce29f" d="m208.776 198.412-.064-.022c7.426-10.399 11.81-23.12 11.81-36.873 0-35.092-28.448-63.54-63.54-63.54s-63.54 28.448-63.54 63.54c0 25.795-6.358 50.416-31.986 62.845C25.276 240.268 0 276.402 0 318.459c0 56.756 46.009 102.765 102.765 102.765S205.53 375.215 205.53 318.459c0-14.209-2.885-27.743-8.099-40.051-9.109-26.587-3.702-60.229 11.345-79.996z" data-original="#ceeafb"/>
  <path fill="#fce29f" d="M0 318.459c0 17.946 4.603 34.816 12.689 49.499 36.18-15.907 61.463-52.046 61.463-94.102 0-17.946-4.611-34.812-12.697-49.494C25.276 240.268 0 276.402 0 318.459z" data-original="#ceeafb"/>
  <path fill="#f8d071" d="M156.982 97.977c-35.092 0-63.54 28.448-63.54 63.54 0 25.794-6.358 50.416-31.986 62.844 8.086 14.682 12.696 31.548 12.696 49.494 0 42.057-25.284 78.196-61.463 94.102a103.203 103.203 0 0 0 24.537 29.655c9.402 7.767 20.183 13.921 31.943 17.988a103.214 103.214 0 0 1-17.827-15.277c-3.913-4.214-3.766-10.819.416-14.766 28.126-26.55 45.688-64.162 45.688-105.895a145.6 145.6 0 0 0-3.797-33.105c-1.719-7.371.761-15.023 6.159-20.329 13.525-13.297 17.423-32.31 17.512-52.072.159-35.338 28.712-64.514 64.049-64.237 5.27.041 10.403.719 15.294 1.969a63.287 63.287 0 0 0-39.681-13.911z" data-original="#bae1f6"/>
  <path fill="#fff0ce" d="m263.527 145.922 53.809-23.227v71.236l-53.809-23.227c-10.862-4.69-10.862-20.093 0-24.782z" data-original="#f7ef87"/>
  <path fill="#f8d071" d="M435.175 490.7v-86.491H391.29V490.7c0 11.763 9.536 21.3 21.3 21.3h1.286c11.762 0 21.299-9.536 21.299-21.3z" data-original="#bae1f6"/>
  <path fill="#fce29f" d="M479.059 473.312v-86.491h-43.885v86.491c0 11.763 9.536 21.3 21.3 21.3h1.286c11.763 0 21.299-9.536 21.299-21.3zm-87.767 0v-86.491h-43.885v86.491c0 11.763 9.536 21.3 21.3 21.3h1.286c11.763 0 21.299-9.536 21.299-21.3z" data-original="#ceeafb"/>
  <path fill="#fce29f" d="m303.224 198.412.064-.022c-7.426-10.399-11.81-23.12-11.81-36.873 0-35.092 28.448-63.54 63.54-63.54s63.54 28.448 63.54 63.54c0 25.795 6.358 50.416 31.986 62.845 36.18 15.906 61.456 52.04 61.456 94.097 0 56.756-46.009 102.765-102.765 102.765S306.47 375.215 306.47 318.459c0-14.209 2.885-27.743 8.099-40.051 9.109-26.587 3.702-60.229-11.345-79.996z" data-original="#ceeafb"/>
  <path d="M329.959 318.459c0-14.209 2.885-27.743 8.099-40.051 9.11-26.586 3.703-60.229-11.344-79.996l.064-.022c-7.426-10.399-11.81-23.12-11.81-36.873 0-31.077 22.345-56.943 51.823-62.455a64.134 64.134 0 0 0-11.773-1.085c-35.092 0-63.54 28.448-63.54 63.54 0 13.753 4.384 26.474 11.81 36.873l-.064.022c15.047 19.767 20.454 53.409 11.344 79.996-5.214 12.308-8.099 25.843-8.099 40.051 0 56.756 46.01 102.765 102.765 102.765 3.972 0 7.89-.233 11.745-.672-51.223-5.829-91.02-49.31-91.02-102.093zm182.041 0c0 17.946-4.611 34.812-12.696 49.494-36.18-15.907-61.456-52.041-61.456-94.098 0-17.946 4.611-34.812 12.697-49.494C486.724 240.268 512 276.402 512 318.459z" fill="#f8d071" data-original="#bae1f6"/>
  <path fill="#f3be77" d="M489.4 439.286H22.555c-12.036 0-21.793-9.757-21.793-21.793v-1.316c0-12.036 9.757-21.793 21.793-21.793H489.4c12.036 0 21.793 9.757 21.793 21.793v1.316c0 12.036-9.757 21.793-21.793 21.793z" data-original="#f3be77"/>
  <path fill="#f1b260" d="M78.483 416.835c0-12.399 10.052-22.451 22.451-22.451H23.213c-12.399 0-22.451 10.052-22.451 22.451s10.052 22.451 22.451 22.451h77.721c-12.399 0-22.451-10.052-22.451-22.451z" data-original="#f1b260"/>
  <ellipse cx="155.17" cy="183.388" fill="#fff0ce" rx="27.03" ry="21.525" data-original="#ffa1ac"/>
  <path fill="#424952" d="M170.923 169.138a25.995 25.995 0 0 1-19.601-8.926 7.5 7.5 0 0 1 11.309-9.855 11 11 0 0 0 8.292 3.781 11 11 0 0 0 8.292-3.781 7.501 7.501 0 0 1 11.309 9.855 25.997 25.997 0 0 1-19.601 8.926z" data-original="#424952"/>
  <ellipse cx="356.555" cy="183.388" fill="#fff0ce" rx="27.03" ry="21.525" data-original="#ffa1ac"/>
  <path fill="#424952" d="M340.802 169.138a25.995 25.995 0 0 1-19.601-8.926 7.499 7.499 0 0 1 .728-10.582 7.5 7.5 0 0 1 10.581.727 11 11 0 0 0 8.292 3.781 11 11 0 0 0 8.292-3.781 7.5 7.5 0 0 1 11.309 9.855 25.997 25.997 0 0 1-19.601 8.926z" data-original="#424952"/>
</svg>
