<svg xmlns="http://www.w3.org/2000/svg" width="512" height="512" viewBox="0 0 497 497" style="enable-background:new 0 0 512 512" xml:space="preserve">
  <path fill="#df8956" d="M459.335 359.809h-92.973v-51.654h116.649c7.726 0 13.989 6.263 13.989 13.989 0 20.802-16.863 37.665-37.665 37.665z" data-original="#db9e82"/>
  <path fill="#fed2a4" d="m364.234 310.596 23.033-188.145c-47.083-28.175-107.33-45.091-173-45.091-69.766 0-133.404 19.097-181.648 50.499l27.542 182.738h304.073z" data-original="#ffd3a3"/>
  <path fill="#ffbd86" d="M87.7 100.018c-19.941 7.628-38.428 17.001-55.081 27.841l27.542 182.738h304.073l6.482-52.952c-54.185 0-103.412-68.296-98.111-175.719-18.368-3.332-38.314-4.567-58.339-4.567 0 23.97.455 148.431.455 180.977-39.589 1.711-104.777-15.216-127.021-158.318" data-original="#ffbd86"/>
  <path fill="#df8956" d="M232.165 305.232H187.72V66.458c0-12.273 9.949-22.222 22.222-22.222 12.273 0 22.222 9.949 22.222 22.222v238.774z" data-original="#db9e82"/>
  <path fill="#d57b42" d="M209.961 226.847V44.236c-12.281-.01-22.24 9.943-22.24 22.222v238.774h44.445V249.05c-12.264.001-22.205-9.941-22.205-22.203z" data-original="#c8866a"/>
  <path fill="#df8956" d="M.226 105.116c-1.735-12.15 6.707-23.406 18.857-25.141 12.15-1.735 23.406 6.707 25.141 18.857l29.022 203.201-43.998 6.284z" data-original="#db9e82"/>
  <path fill="#d57b42" d="M19.083 79.975C6.933 81.71-1.509 92.967.226 105.116l29.022 203.201 43.998-6.284-7.745-54.233c-10.98 1.895-21.38-5.583-23.08-16.595z" data-original="#c8866a"/>
  <path fill="#df8956" d="m346.639 302.033 43.998 6.284 29.022-203.201c1.735-12.15-6.707-23.406-18.857-25.141-12.15-1.735-23.406 6.707-25.141 18.857z" data-original="#db9e82"/>
  <path fill="#d57b42" d="M400.803 79.975c-12.15-1.735-23.406 6.707-25.141 18.857L346.64 302.033l43.998 6.284 6.996-48.98c-11.684-2.191-19.594-13.163-17.98-24.94z" data-original="#c8866a"/>
  <path fill="#df8956" d="M384.226 385.194H35.659c-15.633 0-28.306-12.673-28.306-28.306v-47.29c0-16.757 13.584-30.341 30.34-30.341h344.499c16.757 0 30.341 13.584 30.341 30.341v47.29c0 15.633-12.673 28.306-28.307 28.306z" data-original="#db9e82"/>
  <path fill="#d57b42" d="M8.892 300.01a30.24 30.24 0 0 0-1.54 9.587v47.29c0 15.633 12.673 28.307 28.307 28.307h348.567c15.633 0 28.306-12.673 28.306-28.307v-47.29c0-3.354-.543-6.576-1.547-9.592z" data-original="#c8866a"/>
  <circle cx="113.085" cy="385.194" r="67.57" fill="#fff0ce" data-original="#fff2cf"/>
  <path fill="#fed2a4" d="M113.161 379.942c.279-20.62 2.863-42.742 13.014-61.06a68.017 68.017 0 0 0-13.091-1.258c-37.318 0-67.57 30.252-67.57 67.57s30.252 67.57 67.57 67.57c3.926 0 7.787-.337 11.53-.98-3.521-7.548-12.473-30.145-11.453-71.842z" data-original="#ffd3a3"/>
  <circle cx="113.085" cy="385.194" r="25.385" fill="#d57b42" data-original="#c8866a"/>
  <path fill="#c27b5d" d="M113.704 400.949c-.808-13.701-.953-27.459.608-41.11-.442-.023-.78-.03-1.227-.03-14.02 0-25.385 11.365-25.385 25.385s11.365 25.385 25.385 25.385c.439 0 .798-.007 1.231-.029-.28-3.2-.424-6.407-.612-9.601z" data-original="#c27b5d"/>
  <circle cx="306.801" cy="385.194" r="67.57" fill="#fff0ce" data-original="#fff2cf"/>
  <path fill="#fed2a4" d="M306.878 379.942c.279-20.62 2.863-42.742 13.014-61.06a68.017 68.017 0 0 0-13.091-1.258c-37.318 0-67.57 30.252-67.57 67.57s30.252 67.57 67.57 67.57c3.926 0 7.787-.337 11.53-.98-3.521-7.548-12.474-30.145-11.453-71.842z" data-original="#ffd3a3"/>
  <circle cx="306.801" cy="385.194" r="25.385" fill="#d57b42" data-original="#c8866a"/>
  <path fill="#c27b5d" d="M307.42 400.949c-.808-13.701-.953-27.459.608-41.11-.442-.023-.78-.03-1.227-.03-14.02 0-25.385 11.365-25.385 25.385s11.365 25.385 25.385 25.385c.439 0 .798-.007 1.231-.029-.279-3.2-.423-6.407-.612-9.601z" data-original="#c27b5d"/>
</svg>
