<svg xmlns="http://www.w3.org/2000/svg" width="512" height="512" viewBox="0 0 512 512" style="enable-background:new 0 0 512 512" xml:space="preserve">
  <path fill="#d57b42" d="M491.474 234.885c-8.413-56.514-37.955-106.743-57.503-134.865l11.466-5.096c10.31-4.582 12.402-18.307 3.914-25.74C420.893 44.263 356.242 0 256.022 0S91.128 44.263 62.657 69.184c-8.491 7.432-6.4 21.159 3.911 25.742l11.46 5.094c-19.548 28.122-49.09 78.352-57.503 134.865-1.908 12.819 11.829 22.174 23.04 15.671l11.34-6.577S22.701 368.672 75.379 440.875c8.771 12.022 27.854 5.657 27.854-9.224V399.81s4.717 40.134 43.685 78.401c9.795 9.619 26.329 2.744 26.329-10.984v-12.352s15.913 29.356 54.844 50.15c17.413 9.301 38.403 9.301 55.817 0 38.931-20.794 54.844-50.15 54.844-50.15v12.352c0 13.728 16.534 20.603 26.329 10.984 38.968-38.268 43.685-78.401 43.685-78.401v31.841c0 14.881 19.083 21.246 27.854 9.224 52.678-72.202 20.474-196.896 20.474-196.896l11.34 6.577c11.211 6.503 24.949-2.852 23.04-15.671z" data-original="#a44f3e"/>
  <path fill="#feb237" d="M472.417 134.532c3.961-14.784-4.812-29.979-19.596-33.941L382.4 81.722c-14.784-3.961-29.979 4.812-33.941 19.596l-.208.778c-9.214 34.387 11.328 69.736 45.842 78.71 34.242 8.904 69.167-12.099 78.324-46.274zm-432.834 0c-3.961-14.784 4.812-29.979 19.596-33.941L129.6 81.722c14.784-3.961 29.979 4.812 33.941 19.596l.209.778c9.214 34.387-11.328 69.736-45.842 78.71-34.243 8.904-69.168-12.099-78.325-46.274z" data-original="#feb237"/>
  <path fill="#ffd15b" d="M410.496 237.243c0-76.216-36.579-141.083-82.771-154.496-16.6-4.82-30.533-.255-41.57 7.573-18.143 12.866-42.167 12.866-60.309 0-11.038-7.828-24.97-12.393-41.57-7.573-46.192 13.413-82.771 78.28-82.771 154.496 0 85.326-6.154 154.496 154.496 154.496s154.495-69.17 154.495-154.496z" data-original="#ffd15b"/>
  <path fill="#feb237" d="M164.142 271.798c-32.873-17.751-69.032-67.712-44.966-122.316-11.095 25.177-17.672 55.448-17.672 87.761 0 78.517-5.207 143.353 119.143 153.2 6.735-55.848-27.873-103.184-56.505-118.645zm183.716 0c32.873-17.751 69.032-67.712 44.966-122.316 11.095 25.177 17.672 55.448 17.672 87.761 0 78.517 5.207 143.353-119.143 153.2-6.735-55.848 27.873-103.184 56.505-118.645z" data-original="#feb237"/>
  <ellipse cx="256" cy="370.166" fill="#ffd15b" rx="64.156" ry="45.611" data-original="#ffd15b"/>
  <path fill="#ffebab" d="M290.339 274.988h-67.911c-28.309 0-51.905 22.519-52.272 50.825-.373 28.761 22.829 52.193 51.505 52.193a51.3 51.3 0 0 0 20.418-4.21c8.766-3.793 18.721-4.034 27.456-.169 6.777 2.998 14.321 4.578 22.258 4.359 27.407-.755 49.638-23.282 50.05-50.697.432-28.81-22.792-52.301-51.504-52.301z" data-original="#ffebab"/>
  <path fill="#ffe481" d="M219.779 325.813c.367-28.306 23.964-50.825 52.272-50.825h-49.623c-28.309 0-51.905 22.519-52.272 50.825-.373 28.761 22.829 52.193 51.505 52.193a51.3 51.3 0 0 0 20.418-4.21 36.294 36.294 0 0 1 5.115-1.773c-16.494-8.746-27.675-26.18-27.415-46.21z" data-original="#ffe481"/>
  <path fill="#df8956" d="M292.422 273.601c0 20.116-16.307 36.422-36.422 36.422s-36.422-16.307-36.422-36.422 72.844-20.116 72.844 0z" data-original="#d78878"/>
  <path fill="#d57b42" d="M253.917 273.598c0-6.78 8.28-11.271 19.253-13.481-21.582-4.346-53.592.145-53.592 13.481 0 20.115 16.307 36.422 36.422 36.422 6.21 0 12.054-1.558 17.17-4.298-11.458-6.136-19.253-18.218-19.253-32.124z" data-original="#ca6e59"/>
  <path fill="#fb8978" d="M292.11 167.715a78.489 78.489 0 0 1-27.214-27.214c-1.875-3.144-5.236-5.097-8.896-5.097-3.66 0-7.021 1.954-8.896 5.097a78.489 78.489 0 0 1-27.214 27.214c-3.144 1.875-5.097 5.236-5.097 8.896 0 3.66 1.954 7.021 5.097 8.896a78.489 78.489 0 0 1 27.214 27.214c1.875 3.144 5.236 5.097 8.896 5.097 3.66 0 7.021-1.954 8.896-5.097a78.489 78.489 0 0 1 27.214-27.214c3.144-1.875 5.098-5.236 5.097-8.896 0-3.661-1.953-7.022-5.097-8.896z" data-original="#fe76a8"/>
  <path fill="#f67661" d="M261.097 185.507c-3.144-1.875-5.097-5.236-5.097-8.896 0-3.66 1.954-7.021 5.097-8.896a78.431 78.431 0 0 0 15.506-12.132 78.483 78.483 0 0 1-11.708-15.083c-1.875-3.144-5.236-5.097-8.896-5.097s-7.021 1.954-8.896 5.097a78.472 78.472 0 0 1-27.214 27.214c-3.144 1.875-5.097 5.236-5.097 8.896 0 3.66 1.954 7.022 5.097 8.896a78.489 78.489 0 0 1 27.214 27.214c1.875 3.144 5.236 5.097 8.896 5.097 3.66 0 7.021-1.954 8.896-5.097a78.446 78.446 0 0 1 11.708-15.082 78.435 78.435 0 0 0-15.506-12.131z" data-original="#fe5694"/>
  <path d="m198.5 226.38-24.792-6.643a7.5 7.5 0 0 0-3.883 14.489l7.531 2.018a7.478 7.478 0 0 0-.477 2.613v10.679a7.5 7.5 0 0 0 15 0v-9.401l2.738.734a7.504 7.504 0 0 0 9.186-5.304 7.5 7.5 0 0 0-5.303-9.185zm148.977-1.34a7.501 7.501 0 0 0-9.186-5.303L313.5 226.38a7.5 7.5 0 0 0 3.883 14.49l2.738-.734v9.401a7.5 7.5 0 0 0 15 0v-10.679a7.47 7.47 0 0 0-.477-2.613l7.531-2.018a7.502 7.502 0 0 0 5.302-9.187z" data-original="#606060" fill="#606060"/>
</svg>
